<svg width="210" height="145" viewBox="0 0 210 145" fill="none" xmlns="http://www.w3.org/2000/svg">
<g clip-path="url(#clip0)">
<path opacity="0.1" d="M118.782 19.741C105.321 19.759 92.3649 15.9426 79.972 11.7029C67.5792 7.46328 55.2817 2.71574 42.0713 0.703977C33.5753 -0.58917 23.9142 -0.470301 17.273 4.22501C10.8802 8.74202 9.02905 16.2181 8.13587 23.1251C7.46419 28.3211 7.15446 33.7747 9.67013 38.5276C11.4169 41.8271 14.4061 44.5467 16.513 47.6913C23.8674 58.6308 19.4447 72.6051 12.2974 83.7986C8.94622 89.0504 5.02055 94.0843 2.48687 99.6369C-0.0468058 105.19 -1.08585 111.486 1.49825 116.967C4.05894 122.398 9.843 126.341 16.0502 129.034C28.6556 134.512 43.3318 135.687 57.6137 136.139C89.228 137.142 120.903 135.096 152.494 133.05C164.185 132.293 175.928 131.532 187.377 129.34C193.734 128.124 200.279 126.319 204.787 122.364C210.508 117.343 211.678 109.145 207.515 103.252C200.533 93.3675 182.124 91.5034 177.118 80.8089C174.357 74.9213 176.738 68.1692 180.244 62.4941C187.764 50.3172 200.708 39.4101 200.926 25.7907C201.075 16.4379 194.344 7.3138 184.29 3.24885C173.752 -1.00881 159.384 0.0862205 152.001 8.02161C144.409 16.1965 130.667 19.7284 118.782 19.741Z" fill="#15B8DB"/>
<path d="M187.172 15.3503H14.1396C13.7308 15.3503 13.3387 15.5127 13.0497 15.8018C12.7606 16.0909 12.5982 16.4831 12.5982 16.892V21.3838H188.713V16.892C188.713 16.4831 188.551 16.0909 188.262 15.8018C187.973 15.5127 187.581 15.3503 187.172 15.3503Z" fill="#3F3D56"/>
<path d="M12.5982 21.3838V122.465C12.5982 123.29 12.9256 124.08 13.5085 124.663C14.0914 125.246 14.882 125.574 15.7063 125.574H185.605C186.429 125.574 187.22 125.246 187.803 124.663C188.386 124.08 188.713 123.29 188.713 122.465V21.3838H12.5982Z" fill="white"/>
<path opacity="0.8" d="M15.3875 19.0424C15.7854 19.0424 16.1079 18.7199 16.1079 18.322C16.1079 17.9241 15.7854 17.6016 15.3875 17.6016C14.9897 17.6016 14.6672 17.9241 14.6672 18.322C14.6672 18.7199 14.9897 19.0424 15.3875 19.0424Z" fill="#FA5959"/>
<path opacity="0.8" d="M17.3684 19.0424C17.7662 19.0424 18.0887 18.7199 18.0887 18.322C18.0887 17.9241 17.7662 17.6016 17.3684 17.6016C16.9706 17.6016 16.6481 17.9241 16.6481 18.322C16.6481 18.7199 16.9706 19.0424 17.3684 19.0424Z" fill="#FED253"/>
<path opacity="0.8" d="M19.3492 19.0424C19.7471 19.0424 20.0695 18.7199 20.0695 18.322C20.0695 17.9241 19.7471 17.6016 19.3492 17.6016C18.9514 17.6016 18.6289 17.9241 18.6289 18.322C18.6289 18.7199 18.9514 19.0424 19.3492 19.0424Z" fill="#8CCF4D"/>
<path opacity="0.05" d="M170.509 38.2379H28.9689V100.485H170.509V38.2379Z" fill="black"/>
<path d="M169.429 38.7098H30.0494V99.5849H169.429V38.7098Z" fill="#3F3D56"/>
<path d="M68.0456 54.377C65.3032 54.377 62.6223 55.1904 60.3421 56.7142C58.0619 58.238 56.2846 60.4039 55.2351 62.938C54.1857 65.472 53.9111 68.2604 54.4461 70.9506C54.9811 73.6407 56.3017 76.1117 58.2409 78.0512C60.1801 79.9907 62.6507 81.3115 65.3405 81.8466C68.0302 82.3817 70.8182 82.1071 73.3518 81.0574C75.8855 80.0078 78.051 78.2303 79.5746 75.9497C81.0983 73.6691 81.9115 70.9879 81.9115 68.245C81.9115 66.4239 81.5528 64.6205 80.856 62.938C80.1592 61.2554 79.1378 59.7266 77.8502 58.4389C76.5627 57.1511 75.0341 56.1296 73.3518 55.4327C71.6695 54.7357 69.8665 54.377 68.0456 54.377ZM70.5324 68.5782V75.1448H65.6307V68.5782C64.9524 68.0647 64.4525 67.3511 64.2016 66.5381C63.9506 65.7251 63.9613 64.8538 64.2321 64.0472C64.5029 63.2405 65.0202 62.5394 65.7109 62.0426C66.4016 61.5459 67.2309 61.2787 68.0816 61.2787C68.9323 61.2787 69.7616 61.5459 70.4523 62.0426C71.143 62.5394 71.6602 63.2405 71.9311 64.0472C72.2019 64.8538 72.2126 65.7251 71.9616 66.5381C71.7107 67.3511 71.2107 68.0647 70.5324 68.5782Z" fill="#15B8DB"/>
<path opacity="0.05" d="M68.0456 54.377C65.3032 54.377 62.6223 55.1904 60.3421 56.7142C58.0619 58.238 56.2846 60.4039 55.2351 62.938C54.1857 65.472 53.9111 68.2604 54.4461 70.9506C54.9811 73.6407 56.3017 76.1117 58.2409 78.0512C60.1801 79.9907 62.6507 81.3115 65.3405 81.8466C68.0302 82.3817 70.8182 82.1071 73.3518 81.0574C75.8855 80.0078 78.051 78.2303 79.5746 75.9497C81.0983 73.6691 81.9115 70.9879 81.9115 68.245C81.9115 66.4239 81.5528 64.6205 80.856 62.938C80.1592 61.2554 79.1378 59.7266 77.8502 58.4389C76.5627 57.1511 75.0341 56.1296 73.3518 55.4327C71.6695 54.7357 69.8665 54.377 68.0456 54.377ZM70.5324 68.5782V75.1448H65.6307V68.5782C64.9524 68.0647 64.4525 67.3511 64.2016 66.5381C63.9506 65.7251 63.9613 64.8538 64.2321 64.0472C64.5029 63.2405 65.0202 62.5394 65.7109 62.0426C66.4016 61.5459 67.2309 61.2787 68.0816 61.2787C68.9323 61.2787 69.7616 61.5459 70.4523 62.0426C71.143 62.5394 71.6602 63.2405 71.9311 64.0472C72.2019 64.8538 72.2126 65.7251 71.9616 66.5381C71.7107 67.3511 71.2107 68.0647 70.5324 68.5782Z" fill="black"/>
<path d="M68.0456 50.4147C64.5196 50.4147 61.0728 51.4605 58.1411 53.4197C55.2093 55.3789 52.9243 58.1636 51.575 61.4217C50.2257 64.6797 49.8726 68.2648 50.5605 71.7235C51.2484 75.1823 52.9463 78.3593 55.4395 80.853C57.9328 83.3466 61.1094 85.0447 64.5676 85.7327C68.0258 86.4207 71.6103 86.0676 74.8679 84.7181C78.1255 83.3685 80.9097 81.0832 82.8687 78.151C84.8276 75.2188 85.8732 71.7715 85.8732 68.245C85.8732 63.5161 83.9949 58.9809 80.6516 55.6371C77.3083 52.2933 72.7737 50.4147 68.0456 50.4147ZM71.2419 68.6737V77.1152H64.9392V68.6737C64.0668 68.0133 63.4237 67.0956 63.1009 66.05C62.778 65.0044 62.7917 63.8839 63.1399 62.8465C63.4882 61.8091 64.1534 60.9073 65.0417 60.2684C65.93 59.6295 66.9965 59.2858 68.0906 59.2858C69.1847 59.2858 70.2512 59.6295 71.1395 60.2684C72.0278 60.9073 72.693 61.8091 73.0412 62.8465C73.3895 63.8839 73.4031 65.0044 73.0803 66.05C72.7574 67.0956 72.1144 68.0133 71.2419 68.6737Z" fill="#15B8DB"/>
<path d="M150.881 65.9055H93.2563V72.029H150.881V65.9055Z" fill="white"/>
<path d="M150.881 77.0719H138.456V83.1955H150.881V77.0719Z" fill="#15B8DB"/>
<path d="M98.9287 68.8754H97.8861L98.8135 67.9497C98.8301 67.9325 98.8394 67.9096 98.8394 67.8857C98.8394 67.8619 98.8301 67.8389 98.8135 67.8218C98.8051 67.8133 98.7951 67.8067 98.7842 67.8021C98.7732 67.7975 98.7614 67.7952 98.7495 67.7952C98.7376 67.7952 98.7259 67.7975 98.7149 67.8021C98.7039 67.8067 98.694 67.8133 98.6856 67.8218L97.7582 68.7493V67.7047C97.7582 67.6808 97.7487 67.6579 97.7318 67.641C97.7149 67.6242 97.6921 67.6147 97.6682 67.6147C97.6444 67.6151 97.6218 67.6248 97.605 67.6416C97.5882 67.6583 97.5786 67.681 97.5781 67.7047V68.7493L96.6525 67.8164C96.6442 67.8079 96.6342 67.8012 96.6232 67.7967C96.6123 67.7921 96.6005 67.7898 96.5886 67.7898C96.5767 67.7898 96.565 67.7921 96.554 67.7967C96.543 67.8012 96.533 67.8079 96.5247 67.8164C96.5081 67.8335 96.4988 67.8565 96.4988 67.8803C96.4988 67.9042 96.5081 67.9271 96.5247 67.9443L97.4521 68.87H96.4076C96.3839 68.8705 96.3613 68.8801 96.3445 68.8969C96.3277 68.9137 96.3181 68.9363 96.3176 68.9601C96.3176 68.9839 96.3271 69.0068 96.344 69.0237C96.3608 69.0406 96.3838 69.0501 96.4076 69.0501H97.4521L96.5247 69.9776C96.5081 69.9948 96.4988 70.0177 96.4988 70.0416C96.4988 70.0654 96.5081 70.0884 96.5247 70.1055C96.542 70.1217 96.5649 70.1307 96.5886 70.1307C96.6123 70.1307 96.6352 70.1217 96.6525 70.1055L97.5781 69.178V70.2208C97.5781 70.2447 97.5876 70.2676 97.6045 70.2845C97.6214 70.3013 97.6443 70.3108 97.6682 70.3108C97.6921 70.3108 97.7149 70.3013 97.7318 70.2845C97.7487 70.2676 97.7582 70.2447 97.7582 70.2208V69.178L98.6856 70.1055C98.7029 70.1217 98.7258 70.1307 98.7495 70.1307C98.7733 70.1307 98.7961 70.1217 98.8135 70.1055C98.8301 70.0884 98.8394 70.0654 98.8394 70.0416C98.8394 70.0177 98.8301 69.9948 98.8135 69.9776L97.8861 69.0501H98.9287C98.9526 69.0501 98.9755 69.0406 98.9924 69.0237C99.0093 69.0068 99.0187 68.9839 99.0187 68.9601C99.0174 68.9371 99.0073 68.9156 98.9905 68.8998C98.9738 68.8841 98.9517 68.8754 98.9287 68.8754Z" fill="#15B8DB"/>
<path d="M102.71 68.8754H101.668L102.595 67.9497C102.612 67.9325 102.621 67.9096 102.621 67.8857C102.621 67.8619 102.612 67.8389 102.595 67.8218C102.587 67.8133 102.577 67.8067 102.566 67.8021C102.555 67.7975 102.543 67.7952 102.531 67.7952C102.519 67.7952 102.508 67.7975 102.497 67.8021C102.486 67.8067 102.476 67.8133 102.467 67.8218L101.54 68.7493V67.7047C101.54 67.6808 101.53 67.6579 101.513 67.641C101.497 67.6242 101.474 67.6147 101.45 67.6147C101.426 67.6151 101.403 67.6248 101.387 67.6416C101.37 67.6583 101.36 67.681 101.36 67.7047V68.7493L100.434 67.8164C100.426 67.8079 100.416 67.8012 100.405 67.7967C100.394 67.7921 100.382 67.7898 100.37 67.7898C100.358 67.7898 100.347 67.7921 100.336 67.7967C100.325 67.8012 100.315 67.8079 100.306 67.8164C100.29 67.8335 100.28 67.8565 100.28 67.8803C100.28 67.9042 100.29 67.9271 100.306 67.9443L101.234 68.87H100.189C100.166 68.8705 100.143 68.8801 100.126 68.8969C100.109 68.9137 100.1 68.9363 100.099 68.9601C100.099 68.9839 100.109 69.0068 100.126 69.0237C100.142 69.0406 100.165 69.0501 100.189 69.0501H101.234L100.306 69.9776C100.29 69.9948 100.28 70.0177 100.28 70.0416C100.28 70.0654 100.29 70.0884 100.306 70.1055C100.324 70.1217 100.347 70.1307 100.37 70.1307C100.394 70.1307 100.417 70.1217 100.434 70.1055L101.36 69.178V70.2208C101.36 70.2447 101.369 70.2676 101.386 70.2845C101.403 70.3013 101.426 70.3108 101.45 70.3108C101.474 70.3108 101.497 70.3013 101.513 70.2845C101.53 70.2676 101.54 70.2447 101.54 70.2208V69.178L102.467 70.1055C102.485 70.1217 102.507 70.1307 102.531 70.1307C102.555 70.1307 102.578 70.1217 102.595 70.1055C102.612 70.0884 102.621 70.0654 102.621 70.0416C102.621 70.0177 102.612 69.9948 102.595 69.9776L101.668 69.0501H102.71C102.734 69.0501 102.757 69.0406 102.774 69.0237C102.791 69.0068 102.8 68.9839 102.8 68.9601C102.799 68.9371 102.789 68.9156 102.772 68.8998C102.755 68.8841 102.733 68.8754 102.71 68.8754Z" fill="#15B8DB"/>
<path d="M106.492 68.8754H105.449L106.377 67.9497C106.393 67.9325 106.403 67.9096 106.403 67.8857C106.403 67.8619 106.393 67.8389 106.377 67.8218C106.368 67.8133 106.358 67.8067 106.347 67.8021C106.336 67.7975 106.325 67.7952 106.313 67.7952C106.301 67.7952 106.289 67.7975 106.278 67.8021C106.267 67.8067 106.257 67.8133 106.249 67.8218L105.321 68.7493V67.7047C105.321 67.6808 105.312 67.6579 105.295 67.641C105.278 67.6242 105.255 67.6147 105.231 67.6147C105.208 67.6151 105.185 67.6248 105.168 67.6416C105.151 67.6583 105.142 67.681 105.141 67.7047V68.7493L104.216 67.8164C104.207 67.8079 104.197 67.8012 104.186 67.7967C104.175 67.7921 104.164 67.7898 104.152 67.7898C104.14 67.7898 104.128 67.7921 104.117 67.7967C104.106 67.8012 104.096 67.8079 104.088 67.8164C104.071 67.8335 104.062 67.8565 104.062 67.8803C104.062 67.9042 104.071 67.9271 104.088 67.9443L105.015 68.87H103.971C103.947 68.8705 103.924 68.8801 103.908 68.8969C103.891 68.9137 103.881 68.9363 103.881 68.9601C103.881 68.9839 103.89 69.0068 103.907 69.0237C103.924 69.0406 103.947 69.0501 103.971 69.0501H105.015L104.088 69.9776C104.071 69.9948 104.062 70.0177 104.062 70.0416C104.062 70.0654 104.071 70.0884 104.088 70.1055C104.105 70.1217 104.128 70.1307 104.152 70.1307C104.176 70.1307 104.198 70.1217 104.216 70.1055L105.141 69.178V70.2208C105.141 70.2447 105.151 70.2676 105.168 70.2845C105.185 70.3013 105.208 70.3108 105.231 70.3108C105.255 70.3108 105.278 70.3013 105.295 70.2845C105.312 70.2676 105.321 70.2447 105.321 70.2208V69.178L106.249 70.1055C106.266 70.1217 106.289 70.1307 106.313 70.1307C106.336 70.1307 106.359 70.1217 106.377 70.1055C106.393 70.0884 106.403 70.0654 106.403 70.0416C106.403 70.0177 106.393 69.9948 106.377 69.9776L105.449 69.0501H106.492C106.516 69.0501 106.539 69.0406 106.556 69.0237C106.572 69.0068 106.582 68.9839 106.582 68.9601C106.581 68.9371 106.571 68.9156 106.554 68.8998C106.537 68.8841 106.515 68.8754 106.492 68.8754Z" fill="#15B8DB"/>
<path d="M110.274 68.8754H109.231L110.158 67.9497C110.175 67.9325 110.184 67.9096 110.184 67.8857C110.184 67.8619 110.175 67.8389 110.158 67.8218C110.15 67.8133 110.14 67.8067 110.129 67.8021C110.118 67.7975 110.106 67.7952 110.094 67.7952C110.082 67.7952 110.071 67.7975 110.06 67.8021C110.049 67.8067 110.039 67.8133 110.03 67.8218L109.103 68.7493V67.7047C109.103 67.6808 109.094 67.6579 109.077 67.641C109.06 67.6242 109.037 67.6147 109.013 67.6147C108.989 67.6151 108.967 67.6248 108.95 67.6416C108.933 67.6583 108.923 67.681 108.923 67.7047V68.7493L107.997 67.8164C107.989 67.8079 107.979 67.8012 107.968 67.7967C107.957 67.7921 107.945 67.7898 107.933 67.7898C107.922 67.7898 107.91 67.7921 107.899 67.7967C107.888 67.8012 107.878 67.8079 107.87 67.8164C107.853 67.8335 107.844 67.8565 107.844 67.8803C107.844 67.9042 107.853 67.9271 107.87 67.9443L108.797 68.87H107.752C107.729 68.8705 107.706 68.8801 107.689 68.8969C107.673 68.9137 107.663 68.9363 107.662 68.9601C107.662 68.9839 107.672 69.0068 107.689 69.0237C107.706 69.0406 107.729 69.0501 107.752 69.0501H108.797L107.87 69.9776C107.853 69.9948 107.844 70.0177 107.844 70.0416C107.844 70.0654 107.853 70.0884 107.87 70.1055C107.887 70.1217 107.91 70.1307 107.933 70.1307C107.957 70.1307 107.98 70.1217 107.997 70.1055L108.923 69.178V70.2208C108.923 70.2447 108.932 70.2676 108.949 70.2845C108.966 70.3013 108.989 70.3108 109.013 70.3108C109.037 70.3108 109.06 70.3013 109.077 70.2845C109.094 70.2676 109.103 70.2447 109.103 70.2208V69.178L110.03 70.1055C110.048 70.1217 110.071 70.1307 110.094 70.1307C110.118 70.1307 110.141 70.1217 110.158 70.1055C110.175 70.0884 110.184 70.0654 110.184 70.0416C110.184 70.0177 110.175 69.9948 110.158 69.9776L109.231 69.0501H110.274C110.297 69.0501 110.32 69.0406 110.337 69.0237C110.354 69.0068 110.364 68.9839 110.364 68.9601C110.362 68.9371 110.352 68.9156 110.335 68.8998C110.319 68.8841 110.297 68.8754 110.274 68.8754Z" fill="#15B8DB"/>
<path d="M114.055 68.8754H113.012L113.94 67.9497C113.957 67.9325 113.966 67.9096 113.966 67.8857C113.966 67.8619 113.957 67.8389 113.94 67.8218C113.932 67.8133 113.922 67.8067 113.911 67.8021C113.9 67.7975 113.888 67.7952 113.876 67.7952C113.864 67.7952 113.852 67.7975 113.841 67.8021C113.83 67.8067 113.82 67.8133 113.812 67.8218L112.885 68.7493V67.7047C112.885 67.6808 112.875 67.6579 112.858 67.641C112.841 67.6242 112.818 67.6147 112.795 67.6147C112.771 67.6151 112.748 67.6248 112.731 67.6416C112.715 67.6583 112.705 67.681 112.705 67.7047V68.7493L111.779 67.8164C111.771 67.8079 111.761 67.8012 111.75 67.7967C111.739 67.7921 111.727 67.7898 111.715 67.7898C111.703 67.7898 111.691 67.7921 111.68 67.7967C111.669 67.8012 111.659 67.8079 111.651 67.8164C111.635 67.8335 111.625 67.8565 111.625 67.8803C111.625 67.9042 111.635 67.9271 111.651 67.9443L112.579 68.87H111.534C111.51 68.8705 111.488 68.8801 111.471 68.8969C111.454 68.9137 111.444 68.9363 111.444 68.9601C111.444 68.9839 111.454 69.0068 111.47 69.0237C111.487 69.0406 111.51 69.0501 111.534 69.0501H112.579L111.651 69.9776C111.635 69.9948 111.625 70.0177 111.625 70.0416C111.625 70.0654 111.635 70.0884 111.651 70.1055C111.668 70.1217 111.691 70.1307 111.715 70.1307C111.739 70.1307 111.762 70.1217 111.779 70.1055L112.705 69.178V70.2208C112.705 70.2447 112.714 70.2676 112.731 70.2845C112.748 70.3013 112.771 70.3108 112.795 70.3108C112.818 70.3108 112.841 70.3013 112.858 70.2845C112.875 70.2676 112.885 70.2447 112.885 70.2208V69.178L113.812 70.1055C113.829 70.1217 113.852 70.1307 113.876 70.1307C113.9 70.1307 113.923 70.1217 113.94 70.1055C113.957 70.0884 113.966 70.0654 113.966 70.0416C113.966 70.0177 113.957 69.9948 113.94 69.9776L113.012 69.0501H114.055C114.079 69.0501 114.102 69.0406 114.119 69.0237C114.136 69.0068 114.145 68.9839 114.145 68.9601C114.144 68.9371 114.134 68.9156 114.117 68.8998C114.1 68.8841 114.078 68.8754 114.055 68.8754Z" fill="#15B8DB"/>
<path d="M117.837 68.8754H116.794L117.722 67.9497C117.738 67.9325 117.747 67.9096 117.747 67.8857C117.747 67.8619 117.738 67.8389 117.722 67.8218C117.713 67.8133 117.703 67.8067 117.692 67.8021C117.681 67.7975 117.669 67.7952 117.658 67.7952C117.646 67.7952 117.634 67.7975 117.623 67.8021C117.612 67.8067 117.602 67.8133 117.594 67.8218L116.666 68.7493V67.7047C116.666 67.6808 116.657 67.6579 116.64 67.641C116.623 67.6242 116.6 67.6147 116.576 67.6147C116.552 67.6151 116.53 67.6248 116.513 67.6416C116.496 67.6583 116.487 67.681 116.486 67.7047V68.7493L115.561 67.8164C115.552 67.8079 115.542 67.8012 115.531 67.7967C115.52 67.7921 115.509 67.7898 115.497 67.7898C115.485 67.7898 115.473 67.7921 115.462 67.7967C115.451 67.8012 115.441 67.8079 115.433 67.8164C115.416 67.8335 115.407 67.8565 115.407 67.8803C115.407 67.9042 115.416 67.9271 115.433 67.9443L116.36 68.87H115.316C115.292 68.8705 115.269 68.8801 115.253 68.8969C115.236 68.9137 115.226 68.9363 115.226 68.9601C115.226 68.9839 115.235 69.0068 115.252 69.0237C115.269 69.0406 115.292 69.0501 115.316 69.0501H116.36L115.433 69.9776C115.416 69.9948 115.407 70.0177 115.407 70.0416C115.407 70.0654 115.416 70.0884 115.433 70.1055C115.45 70.1217 115.473 70.1307 115.497 70.1307C115.52 70.1307 115.543 70.1217 115.561 70.1055L116.486 69.178V70.2208C116.486 70.2447 116.496 70.2676 116.513 70.2845C116.529 70.3013 116.552 70.3108 116.576 70.3108C116.6 70.3108 116.623 70.3013 116.64 70.2845C116.657 70.2676 116.666 70.2447 116.666 70.2208V69.178L117.594 70.1055C117.611 70.1217 117.634 70.1307 117.658 70.1307C117.681 70.1307 117.704 70.1217 117.722 70.1055C117.738 70.0884 117.747 70.0654 117.747 70.0416C117.747 70.0177 117.738 69.9948 117.722 69.9776L116.794 69.0501H117.837C117.861 69.0501 117.884 69.0406 117.9 69.0237C117.917 69.0068 117.927 68.9839 117.927 68.9601C117.925 68.9371 117.915 68.9156 117.899 68.8998C117.882 68.8841 117.86 68.8754 117.837 68.8754Z" fill="#15B8DB"/>
<path d="M121.618 68.8754H120.576L121.503 67.9497C121.52 67.9325 121.529 67.9096 121.529 67.8857C121.529 67.8619 121.52 67.8389 121.503 67.8218C121.495 67.8133 121.485 67.8067 121.474 67.8021C121.463 67.7975 121.451 67.7952 121.439 67.7952C121.427 67.7952 121.416 67.7975 121.405 67.8021C121.394 67.8067 121.384 67.8133 121.375 67.8218L120.448 68.7493V67.7047C120.448 67.6808 120.438 67.6579 120.421 67.641C120.405 67.6242 120.382 67.6147 120.358 67.6147C120.334 67.6151 120.311 67.6248 120.295 67.6416C120.278 67.6583 120.268 67.681 120.268 67.7047V68.7493L119.342 67.8164C119.334 67.8079 119.324 67.8012 119.313 67.7967C119.302 67.7921 119.29 67.7898 119.278 67.7898C119.266 67.7898 119.255 67.7921 119.244 67.7967C119.233 67.8012 119.223 67.8079 119.214 67.8164C119.198 67.8335 119.188 67.8565 119.188 67.8803C119.188 67.9042 119.198 67.9271 119.214 67.9443L120.142 68.87H119.097C119.074 68.8705 119.051 68.8801 119.034 68.8969C119.017 68.9137 119.008 68.9363 119.007 68.9601C119.007 68.9839 119.017 69.0068 119.034 69.0237C119.051 69.0406 119.073 69.0501 119.097 69.0501H120.142L119.214 69.9776C119.198 69.9948 119.188 70.0177 119.188 70.0416C119.188 70.0654 119.198 70.0884 119.214 70.1055C119.232 70.1217 119.255 70.1307 119.278 70.1307C119.302 70.1307 119.325 70.1217 119.342 70.1055L120.268 69.178V70.2208C120.268 70.2447 120.277 70.2676 120.294 70.2845C120.311 70.3013 120.334 70.3108 120.358 70.3108C120.382 70.3108 120.405 70.3013 120.421 70.2845C120.438 70.2676 120.448 70.2447 120.448 70.2208V69.178L121.375 70.1055C121.393 70.1217 121.415 70.1307 121.439 70.1307C121.463 70.1307 121.486 70.1217 121.503 70.1055C121.52 70.0884 121.529 70.0654 121.529 70.0416C121.529 70.0177 121.52 69.9948 121.503 69.9776L120.576 69.0501H121.618C121.642 69.0501 121.665 69.0406 121.682 69.0237C121.699 69.0068 121.708 68.9839 121.708 68.9601C121.707 68.9371 121.697 68.9156 121.68 68.8998C121.663 68.8841 121.641 68.8754 121.618 68.8754Z" fill="#15B8DB"/>
<path d="M125.4 68.8754H124.357L125.285 67.9497C125.301 67.9325 125.311 67.9096 125.311 67.8857C125.311 67.8619 125.301 67.8389 125.285 67.8218C125.276 67.8133 125.266 67.8067 125.255 67.8021C125.244 67.7975 125.233 67.7952 125.221 67.7952C125.209 67.7952 125.197 67.7975 125.186 67.8021C125.175 67.8067 125.165 67.8133 125.157 67.8218L124.229 68.7493V67.7047C124.229 67.6808 124.22 67.6579 124.203 67.641C124.186 67.6242 124.163 67.6147 124.139 67.6147C124.116 67.6151 124.093 67.6248 124.076 67.6416C124.06 67.6583 124.05 67.681 124.049 67.7047V68.7493L123.124 67.8164C123.115 67.8079 123.105 67.8012 123.095 67.7967C123.084 67.7921 123.072 67.7898 123.06 67.7898C123.048 67.7898 123.036 67.7921 123.025 67.7967C123.014 67.8012 123.004 67.8079 122.996 67.8164C122.979 67.8335 122.97 67.8565 122.97 67.8803C122.97 67.9042 122.979 67.9271 122.996 67.9443L123.923 68.87H122.879C122.855 68.8705 122.833 68.8801 122.816 68.8969C122.799 68.9137 122.789 68.9363 122.789 68.9601C122.789 68.9839 122.798 69.0068 122.815 69.0237C122.832 69.0406 122.855 69.0501 122.879 69.0501H123.923L122.996 69.9776C122.979 69.9948 122.97 70.0177 122.97 70.0416C122.97 70.0654 122.979 70.0884 122.996 70.1055C123.013 70.1217 123.036 70.1307 123.06 70.1307C123.084 70.1307 123.106 70.1217 123.124 70.1055L124.049 69.178V70.2208C124.049 70.2447 124.059 70.2676 124.076 70.2845C124.093 70.3013 124.116 70.3108 124.139 70.3108C124.163 70.3108 124.186 70.3013 124.203 70.2845C124.22 70.2676 124.229 70.2447 124.229 70.2208V69.178L125.157 70.1055C125.174 70.1217 125.197 70.1307 125.221 70.1307C125.245 70.1307 125.267 70.1217 125.285 70.1055C125.301 70.0884 125.311 70.0654 125.311 70.0416C125.311 70.0177 125.301 69.9948 125.285 69.9776L124.357 69.0501H125.4C125.424 69.0501 125.447 69.0406 125.464 69.0237C125.481 69.0068 125.49 68.9839 125.49 68.9601C125.489 68.9371 125.479 68.9156 125.462 68.8998C125.445 68.8841 125.423 68.8754 125.4 68.8754Z" fill="#15B8DB"/>
<path d="M129.182 68.8754H128.139L129.066 67.9497C129.083 67.9325 129.092 67.9096 129.092 67.8857C129.092 67.8619 129.083 67.8389 129.066 67.8218C129.058 67.8133 129.048 67.8067 129.037 67.8021C129.026 67.7975 129.014 67.7952 129.002 67.7952C128.991 67.7952 128.979 67.7975 128.968 67.8021C128.957 67.8067 128.947 67.8133 128.938 67.8218L128.011 68.7493V67.7047C128.011 67.6808 128.002 67.6579 127.985 67.641C127.968 67.6242 127.945 67.6147 127.921 67.6147C127.897 67.6151 127.875 67.6248 127.858 67.6416C127.841 67.6583 127.831 67.681 127.831 67.7047V68.7493L126.905 67.8164C126.897 67.8079 126.887 67.8012 126.876 67.7967C126.865 67.7921 126.853 67.7898 126.842 67.7898C126.83 67.7898 126.818 67.7921 126.807 67.7967C126.796 67.8012 126.786 67.8079 126.778 67.8164C126.761 67.8335 126.752 67.8565 126.752 67.8803C126.752 67.9042 126.761 67.9271 126.778 67.9443L127.705 68.87H126.661C126.637 68.8705 126.614 68.8801 126.597 68.8969C126.581 68.9137 126.571 68.9363 126.57 68.9601C126.57 68.9839 126.58 69.0068 126.597 69.0237C126.614 69.0406 126.637 69.0501 126.661 69.0501H127.705L126.778 69.9776C126.761 69.9948 126.752 70.0177 126.752 70.0416C126.752 70.0654 126.761 70.0884 126.778 70.1055C126.795 70.1217 126.818 70.1307 126.842 70.1307C126.865 70.1307 126.888 70.1217 126.905 70.1055L127.831 69.178V70.2208C127.831 70.2447 127.841 70.2676 127.857 70.2845C127.874 70.3013 127.897 70.3108 127.921 70.3108C127.945 70.3108 127.968 70.3013 127.985 70.2845C128.002 70.2676 128.011 70.2447 128.011 70.2208V69.178L128.938 70.1055C128.956 70.1217 128.979 70.1307 129.002 70.1307C129.026 70.1307 129.049 70.1217 129.066 70.1055C129.083 70.0884 129.092 70.0654 129.092 70.0416C129.092 70.0177 129.083 69.9948 129.066 69.9776L128.139 69.0501H129.182C129.205 69.0501 129.228 69.0406 129.245 69.0237C129.262 69.0068 129.272 68.9839 129.272 68.9601C129.27 68.9371 129.26 68.9156 129.243 68.8998C129.227 68.8841 129.205 68.8754 129.182 68.8754Z" fill="#15B8DB"/>
<path d="M132.963 68.8754H131.921L132.848 67.9497C132.865 67.9325 132.874 67.9096 132.874 67.8857C132.874 67.8619 132.865 67.8389 132.848 67.8218C132.84 67.8133 132.83 67.8067 132.819 67.8021C132.808 67.7975 132.796 67.7952 132.784 67.7952C132.772 67.7952 132.76 67.7975 132.749 67.8021C132.738 67.8067 132.728 67.8133 132.72 67.8218L131.793 68.7493V67.7047C131.793 67.6808 131.783 67.6579 131.766 67.641C131.749 67.6242 131.727 67.6147 131.703 67.6147C131.679 67.6151 131.656 67.6248 131.64 67.6416C131.623 67.6583 131.613 67.681 131.613 67.7047V68.7493L130.687 67.8164C130.679 67.8079 130.669 67.8012 130.658 67.7967C130.647 67.7921 130.635 67.7898 130.623 67.7898C130.611 67.7898 130.599 67.7921 130.588 67.7967C130.578 67.8012 130.568 67.8079 130.559 67.8164C130.543 67.8335 130.533 67.8565 130.533 67.8803C130.533 67.9042 130.543 67.9271 130.559 67.9443L131.487 68.87H130.442C130.418 68.8705 130.396 68.8801 130.379 68.8969C130.362 68.9137 130.353 68.9363 130.352 68.9601C130.352 68.9839 130.362 69.0068 130.378 69.0237C130.395 69.0406 130.418 69.0501 130.442 69.0501H131.487L130.559 69.9776C130.543 69.9948 130.533 70.0177 130.533 70.0416C130.533 70.0654 130.543 70.0884 130.559 70.1055C130.577 70.1217 130.599 70.1307 130.623 70.1307C130.647 70.1307 130.67 70.1217 130.687 70.1055L131.613 69.178V70.2208C131.613 70.2447 131.622 70.2676 131.639 70.2845C131.656 70.3013 131.679 70.3108 131.703 70.3108C131.727 70.3108 131.749 70.3013 131.766 70.2845C131.783 70.2676 131.793 70.2447 131.793 70.2208V69.178L132.72 70.1055C132.737 70.1217 132.76 70.1307 132.784 70.1307C132.808 70.1307 132.831 70.1217 132.848 70.1055C132.865 70.0884 132.874 70.0654 132.874 70.0416C132.874 70.0177 132.865 69.9948 132.848 69.9776L131.921 69.0501H132.963C132.987 69.0501 133.01 69.0406 133.027 69.0237C133.044 69.0068 133.053 68.9839 133.053 68.9601C133.052 68.9371 133.042 68.9156 133.025 68.8998C133.008 68.8841 132.986 68.8754 132.963 68.8754Z" fill="#15B8DB"/>
<path d="M136.745 68.8754H135.702L136.63 67.9497C136.646 67.9325 136.655 67.9096 136.655 67.8857C136.655 67.8619 136.646 67.8389 136.63 67.8218C136.621 67.8133 136.611 67.8067 136.6 67.8021C136.589 67.7975 136.578 67.7952 136.566 67.7952C136.554 67.7952 136.542 67.7975 136.531 67.8021C136.52 67.8067 136.51 67.8133 136.502 67.8218L135.574 68.7493V67.7047C135.574 67.6808 135.565 67.6579 135.548 67.641C135.531 67.6242 135.508 67.6147 135.484 67.6147C135.461 67.6151 135.438 67.6248 135.421 67.6416C135.404 67.6583 135.395 67.681 135.394 67.7047V68.7493L134.469 67.8164C134.46 67.8079 134.45 67.8012 134.439 67.7967C134.428 67.7921 134.417 67.7898 134.405 67.7898C134.393 67.7898 134.381 67.7921 134.37 67.7967C134.359 67.8012 134.349 67.8079 134.341 67.8164C134.324 67.8335 134.315 67.8565 134.315 67.8803C134.315 67.9042 134.324 67.9271 134.341 67.9443L135.268 68.87H134.224C134.2 68.8705 134.177 68.8801 134.161 68.8969C134.144 68.9137 134.134 68.9363 134.134 68.9601C134.134 68.9839 134.143 69.0068 134.16 69.0237C134.177 69.0406 134.2 69.0501 134.224 69.0501H135.268L134.341 69.9776C134.324 69.9948 134.315 70.0177 134.315 70.0416C134.315 70.0654 134.324 70.0884 134.341 70.1055C134.358 70.1217 134.381 70.1307 134.405 70.1307C134.428 70.1307 134.451 70.1217 134.469 70.1055L135.394 69.178V70.2208C135.394 70.2447 135.404 70.2676 135.421 70.2845C135.438 70.3013 135.46 70.3108 135.484 70.3108C135.508 70.3108 135.531 70.3013 135.548 70.2845C135.565 70.2676 135.574 70.2447 135.574 70.2208V69.178L136.502 70.1055C136.519 70.1217 136.542 70.1307 136.566 70.1307C136.589 70.1307 136.612 70.1217 136.63 70.1055C136.646 70.0884 136.655 70.0654 136.655 70.0416C136.655 70.0177 136.646 69.9948 136.63 69.9776L135.702 69.0501H136.745C136.769 69.0501 136.792 69.0406 136.808 69.0237C136.825 69.0068 136.835 68.9839 136.835 68.9601C136.833 68.9371 136.823 68.9156 136.807 68.8998C136.79 68.8841 136.768 68.8754 136.745 68.8754Z" fill="#15B8DB"/>
<path d="M165.735 90.7851C165.73 90.5673 165.703 90.3507 165.654 90.1385C165.492 89.5297 165.127 88.7931 164.525 88.6094C163.904 88.4192 163.304 88.1658 162.735 87.853C162.627 85.9222 163.07 83.9465 162.588 82.0752C162.407 81.3908 162.11 80.7352 162.031 80.0346C161.932 79.1629 162.17 78.2336 161.822 77.4303C161.549 76.7964 160.947 76.3497 160.301 76.1156C159.654 75.8814 158.957 75.8184 158.271 75.7554C157.407 75.6851 154.608 75.3537 153.632 76.1264C153.565 76.1786 153.505 76.2391 153.452 76.3065C153.431 76.3362 153.411 76.3675 153.395 76.4001L153.386 76.4145C153.366 76.4521 153.35 76.4913 153.337 76.5316C153.323 76.5758 153.313 76.6209 153.306 76.6667C153.306 76.6811 153.306 76.6955 153.306 76.7099C153.306 76.7243 153.306 76.7729 153.306 76.8054V76.854C153.306 76.8864 153.306 76.9188 153.306 76.9531C153.306 76.9873 153.306 76.9783 153.306 76.9909C153.319 77.153 153.342 77.3151 153.342 77.4754C153.344 77.5552 153.337 77.6349 153.321 77.7131C153.261 77.9255 153.159 78.1239 153.022 78.2966L152.99 78.3435C152.97 78.3723 152.95 78.3993 152.932 78.4281C152.914 78.4569 152.899 78.4785 152.885 78.5037C152.871 78.529 152.856 78.5452 152.844 78.5686C152.826 78.5983 152.811 78.6289 152.797 78.6604C152.797 78.6784 152.777 78.6947 152.77 78.7127C152.747 78.7614 152.729 78.812 152.716 78.864C152.674 79.0204 152.67 79.1848 152.705 79.343C152.754 79.5451 152.837 79.7371 152.952 79.9104C152.997 79.9842 153.045 80.0562 153.096 80.1283L153.222 80.2994C153.198 80.4665 153.186 80.6349 153.184 80.8037C153.184 81.3677 153.312 81.9243 153.559 82.4315C153.805 82.9388 154.163 83.3835 154.607 83.7322C154.678 84.4928 154.67 85.2587 154.583 86.0177C154.567 86.1762 154.547 86.3365 154.526 86.495C154.504 86.6535 154.488 86.7579 154.466 86.8894C154.203 86.9271 153.934 86.9068 153.679 86.83C153.562 86.7775 153.441 86.7312 153.319 86.6913C152.795 86.5598 152.26 87.0821 151.742 86.9236C151.742 86.9488 151.727 86.9722 151.718 86.9957C151.61 86.9284 151.485 86.8916 151.358 86.8894C151.05 86.875 150.8 86.6517 150.576 86.4409L149.89 85.7944C149.846 85.7548 149.806 85.71 149.772 85.6611C149.735 85.5911 149.707 85.5166 149.689 85.4396C149.573 85.0667 149.294 84.7696 149.024 84.4868C148.973 84.4223 148.905 84.3731 148.828 84.3445C148.798 84.34 148.768 84.34 148.738 84.3445C148.72 84.3194 148.7 84.2953 148.678 84.2725C148.632 84.219 148.582 84.1684 148.529 84.1212C148.201 83.8186 148.169 83.5593 147.884 83.2207C147.636 82.8977 147.411 82.5577 147.211 82.2031C147.187 82.014 147.155 81.8195 147.115 81.6231C147.025 81.1737 146.893 80.7336 146.721 80.3084L146.361 79.5105L146.319 79.552C146.058 79.1629 145.779 78.9504 145.529 79.0008C145.109 79.0873 144.902 79.9014 144.969 80.9658L145.113 82.0464C145.113 82.0734 145.126 82.1004 145.133 82.1274C145.107 82.2555 145.094 82.3858 145.093 82.5165C145.093 82.6678 145.234 82.7794 145.307 82.9145C145.426 83.0975 145.488 83.3108 145.488 83.5286C145.479 83.6061 145.455 83.6799 145.452 83.7556C145.461 83.9248 145.52 84.0875 145.621 84.2238L146.521 85.7367L146.701 86.0537L146.712 86.0681C146.769 86.1787 146.852 86.2739 146.953 86.3455C146.989 86.7243 147.089 87.0942 147.25 87.4387C147.281 87.5072 147.315 87.572 147.351 87.6368C147.593 88.0348 147.878 88.405 148.201 88.7409L148.63 89.2217C149.053 89.6936 149.476 90.1673 149.935 90.6031C150.1 90.778 150.298 90.9172 150.519 91.012C150.627 91.0552 150.744 91.0691 150.859 91.0523C150.975 91.0356 151.083 90.9887 151.174 90.9165C151.174 91.1399 151.174 91.3632 151.174 91.5865C151.241 91.5906 151.306 91.6125 151.361 91.6499C151.417 91.6873 151.461 91.7389 151.49 91.7993C151.519 91.8597 151.532 91.9267 151.526 91.9935C151.521 92.0602 151.497 92.1243 151.459 92.1791C151.081 93.1498 150.699 94.1296 150.126 94.9995C150.531 95.2388 150.905 95.5247 151.243 95.8514C151.462 96.0942 151.657 96.3578 151.824 96.6384C151.841 96.7717 151.853 96.9032 151.86 97.0347C151.994 99.1815 151.164 101.312 150.42 103.358C150.206 103.938 149.971 104.545 149.989 105.148C149.848 105.235 149.714 105.332 149.586 105.438C149.734 105.824 149.676 106.168 149.66 106.58C149.655 106.827 149.604 107.072 149.51 107.301C149.432 107.459 149.346 107.614 149.251 107.763C148.785 108.587 148.682 109.565 148.588 110.505C148.533 111.072 148.752 111.765 148.495 112.273C148.05 113.145 147.656 114.074 147.594 115.043C147.592 115.261 147.564 115.478 147.512 115.69C147.456 115.87 147.357 116.023 147.306 116.2C147.254 116.436 147.242 116.679 147.27 116.92C147.305 117.783 147.176 118.645 146.892 119.461C146.667 120.104 146.419 120.792 146.595 121.453C146.161 121.91 145.892 122.499 145.833 123.126C145.829 123.287 145.809 123.447 145.776 123.604C145.721 123.764 145.648 123.918 145.56 124.063C145.197 124.723 145.027 125.472 145.07 126.224C144.53 126.957 144.259 127.861 144.099 128.76C143.939 129.659 143.869 130.574 143.663 131.462C143.39 132.636 142.894 133.823 142.797 135.026C142.214 135.399 141.962 136.121 141.85 136.803C141.738 137.486 141.72 138.203 141.434 138.833C141.286 139.161 141.074 139.455 140.933 139.79C140.835 140.056 140.763 140.332 140.717 140.613C140.631 141.052 140.555 141.542 140.661 141.963C140.509 142.125 140.33 142.261 140.134 142.365C140.163 142.253 140.186 142.142 140.206 142.028C139.741 142.45 138.899 142.302 138.528 142.808C138.416 142.971 138.373 143.171 138.406 143.366C138.44 143.561 138.548 143.735 138.708 143.851C138.824 143.922 138.949 143.976 139.08 144.011C139.981 144.299 140.906 144.589 141.832 144.436C141.941 144.424 142.047 144.391 142.144 144.337C142.264 144.249 142.363 144.134 142.433 144.002C142.572 143.783 142.711 143.563 142.848 143.343C143.179 143.442 143.517 143.521 143.858 143.579C143.892 143.867 143.917 144.155 143.93 144.443C144.11 144.48 144.351 144.49 144.436 144.323C144.462 144.259 144.472 144.191 144.466 144.123C144.466 143.995 144.485 143.826 144.495 143.653H144.531C145.081 143.675 145.627 143.564 146.125 143.33C145.932 141.735 146.568 140.175 147.119 138.666C147.701 137.077 148.199 135.46 148.702 133.843C149.062 132.704 149.46 131.602 149.813 130.462C150.257 129.021 150.703 127.58 151.151 126.139C151.345 125.506 151.542 124.879 151.765 124.248C152.235 122.973 152.793 121.731 153.434 120.533C153.614 120.192 153.794 119.856 153.942 119.503C154.122 119.072 154.25 118.622 154.394 118.177C154.708 117.264 155.086 116.375 155.525 115.515C155.538 115.492 155.547 115.47 155.559 115.449C155.705 116.045 155.851 116.65 155.948 117.25C156.08 117.985 156.09 118.737 155.979 119.476C155.892 119.978 155.728 120.475 155.748 120.985C155.775 121.689 156.152 122.328 156.337 123.007C156.457 123.516 156.524 124.035 156.539 124.556C156.589 125.367 157.029 126.276 156.719 127.027C155.755 129.407 156.222 132.094 155.673 134.592C155.39 135.874 154.524 137.079 154.592 138.39C154.64 139.321 154.722 140.249 154.837 141.175C154.865 141.467 154.941 141.752 155.062 142.019C155.134 142.16 155.217 142.295 155.309 142.423C155.23 142.453 155.163 142.534 155.105 142.705C154.958 143.156 155.105 143.714 155.505 143.966C155.668 144.053 155.844 144.114 156.026 144.146C156.27 144.216 156.524 144.251 156.778 144.251C156.858 144.246 156.936 144.237 157.014 144.222C157.293 144.339 157.577 144.441 157.866 144.528C157.866 144.602 157.88 144.676 157.889 144.75C157.89 144.788 157.898 144.826 157.915 144.861C157.931 144.896 157.954 144.928 157.983 144.953C158.028 144.974 158.078 144.983 158.127 144.978H159.105C159.105 144.897 159.105 144.814 159.105 144.733C159.217 144.745 159.33 144.733 159.437 144.698C159.544 144.664 159.642 144.607 159.726 144.532C159.813 144.421 159.874 144.294 159.906 144.157C160.173 143.253 160.437 142.348 160.7 141.443C161.016 140.442 161.147 139.393 161.088 138.345C160.74 135.026 161.504 131.696 161.255 128.367C161.105 126.367 161.208 124.356 161.561 122.381C161.642 121.934 161.741 121.48 161.777 121.035C161.856 120.196 161.759 119.348 161.819 118.514C161.838 118.222 161.878 117.932 161.914 117.642C162.161 115.842 162.29 114.029 162.301 112.212C162.296 111.61 162.258 111.009 162.19 110.411C162.377 110.363 162.548 110.263 162.681 110.123C162.841 109.914 162.8 109.62 162.798 109.354C162.798 108.716 163.067 108.115 163.283 107.513C163.56 106.683 163.787 105.838 163.963 104.981C164.149 104.29 164.251 103.58 164.266 102.865C164.266 102.793 164.262 102.721 164.255 102.649C164.323 102.601 164.38 102.54 164.421 102.468C164.468 102.363 164.497 102.25 164.507 102.135C164.572 101.676 164.639 101.215 164.703 100.754C164.751 100.424 164.799 100.094 164.846 99.765L165.418 95.7685C165.467 95.4209 165.517 95.0751 165.566 94.7293L165.715 93.6955C165.732 93.5731 165.75 93.4506 165.762 93.3353C166.202 92.6005 165.782 91.6207 165.735 90.7851ZM160.958 105.748C160.745 105.244 160.547 104.727 160.598 104.183H160.578C160.625 104.016 160.617 103.837 160.555 103.675C160.499 103.544 160.401 103.432 160.342 103.3C160.278 103.14 160.245 102.969 160.245 102.796C160.2 101.701 160.287 100.604 160.502 99.5291C160.526 99.403 160.551 99.2752 160.574 99.1491C160.65 99.1054 160.719 99.0515 160.78 98.9888C160.874 98.8808 160.953 98.7594 161.012 98.6286C161.215 98.2197 161.401 97.8037 161.572 97.3805C161.628 97.2436 161.709 97.0851 161.847 97.0509C161.819 98.1045 161.927 99.1797 161.498 100.131C161.417 100.284 161.356 100.448 161.318 100.617C161.278 100.885 161.39 101.157 161.35 101.424C161.331 101.562 161.271 101.69 161.248 101.827C161.23 101.894 161.23 101.965 161.249 102.032C161.267 102.099 161.303 102.16 161.352 102.209C161.376 102.226 161.402 102.239 161.43 102.249C161.419 102.321 161.41 102.395 161.403 102.465C161.388 102.612 161.381 102.751 161.372 102.838C161.331 103.278 161.314 103.721 161.323 104.163C161.323 104.64 161.341 105.118 161.334 105.604C161.341 105.744 161.318 105.883 161.266 106.013C161.23 106.08 161.184 106.141 161.129 106.193C161.077 106.031 161.019 105.889 160.958 105.748Z" fill="url(#paint0_linear)"/>
<path d="M146.743 84.8505C147.293 84.7379 147.48 83.3851 147.161 81.8289C146.842 80.2727 146.138 79.1025 145.589 79.2151C145.039 79.3277 144.852 80.6805 145.171 82.2367C145.49 83.7929 146.194 84.9632 146.743 84.8505Z" fill="#FBBEBE"/>
<path d="M155.134 142.74C154.987 143.186 155.134 143.745 155.534 143.988C155.696 144.074 155.87 144.135 156.051 144.168C156.295 144.237 156.548 144.272 156.802 144.271C157.113 144.256 157.412 144.134 157.724 144.09C157.76 144.081 157.798 144.087 157.83 144.105C157.846 144.122 157.857 144.142 157.864 144.163C157.871 144.185 157.873 144.208 157.87 144.231C157.873 144.408 157.886 144.585 157.909 144.76C157.909 144.799 157.918 144.837 157.934 144.872C157.95 144.907 157.974 144.939 158.003 144.964C158.048 144.985 158.098 144.994 158.147 144.989H159.123C159.145 144.132 159.051 143.275 158.844 142.443C158.83 142.379 158.806 142.318 158.772 142.262C158.689 142.172 158.58 142.109 158.46 142.082C158.222 141.983 157.964 141.938 157.706 141.951C157.391 141.992 157.128 142.196 156.859 142.365C156.591 142.534 156.226 142.684 155.9 142.597C155.574 142.511 155.302 142.239 155.134 142.74Z" fill="#3F3D56"/>
<path d="M140.804 141.949C140.529 142.243 140.193 142.472 139.819 142.619L139.653 142.698C139.63 142.707 139.611 142.723 139.597 142.743C139.594 142.757 139.594 142.772 139.597 142.786C139.6 142.8 139.606 142.813 139.615 142.824C139.753 143.038 139.957 143.2 140.195 143.287C140.434 143.374 140.694 143.38 140.937 143.305C141.044 143.278 141.144 143.227 141.227 143.154C141.364 142.991 141.443 142.787 141.45 142.574C141.505 142.354 141.495 142.124 141.423 141.909C141.173 141.346 141.081 141.601 140.804 141.949Z" fill="#FBBEBE"/>
<path d="M144.546 144.168C144.551 144.236 144.541 144.305 144.515 144.368C144.43 144.534 144.195 144.525 144.011 144.489C143.983 143.877 143.909 143.269 143.789 142.669C143.44 142.653 143.188 142.985 143.001 143.282L142.518 144.047C142.448 144.179 142.35 144.294 142.23 144.382C142.133 144.435 142.028 144.469 141.918 144.481C140.996 144.634 140.065 144.344 139.176 144.056C139.045 144.021 138.919 143.968 138.803 143.898C138.644 143.781 138.537 143.608 138.503 143.414C138.47 143.219 138.513 143.02 138.623 142.857C138.996 142.352 139.833 142.497 140.298 142.079C140.249 142.373 140.17 142.661 140.06 142.938C140.681 142.844 141.099 142.275 141.6 141.895C141.725 141.788 141.877 141.716 142.039 141.686C142.16 141.676 142.283 141.689 142.399 141.724C142.976 141.869 143.517 142.135 143.984 142.504C144.173 142.653 144.468 142.864 144.551 143.094C144.639 143.37 144.546 143.874 144.546 144.168Z" fill="#3F3D56"/>
<path d="M156.933 84.7444C158.988 84.7444 160.654 83.0785 160.654 81.0234C160.654 78.9684 158.988 77.3025 156.933 77.3025C154.878 77.3025 153.213 78.9684 153.213 81.0234C153.213 83.0785 154.878 84.7444 156.933 84.7444Z" fill="#FBBEBE"/>
<path d="M164.262 102.993C164.247 103.704 164.146 104.411 163.962 105.098C163.785 105.951 163.558 106.793 163.281 107.619C163.067 108.219 162.798 108.821 162.8 109.456C162.8 109.721 162.843 110.015 162.681 110.224C162.537 110.37 162.355 110.474 162.155 110.524C162.056 110.551 161.964 110.6 161.887 110.669C161.81 110.737 161.75 110.823 161.712 110.919C161.543 110.666 161.417 110.388 161.338 110.094C161.015 109.105 160.715 108.11 160.437 107.11C160.412 107.052 160.401 106.989 160.406 106.926C160.41 106.864 160.43 106.803 160.463 106.749C160.508 106.71 160.562 106.68 160.619 106.661C160.804 106.586 160.973 106.477 161.118 106.341C161.186 106.28 161.242 106.207 161.284 106.126C161.336 105.997 161.36 105.858 161.354 105.719C161.354 105.242 161.354 104.767 161.341 104.289C161.334 103.849 161.351 103.408 161.392 102.969C161.392 102.883 161.408 102.744 161.423 102.596C161.45 102.314 161.504 101.986 161.657 101.876C161.885 101.723 162.57 101.928 162.829 101.964C163.275 102.025 163.729 102.097 164.165 102.182C164.228 102.448 164.261 102.72 164.262 102.993Z" fill="#3F3D56"/>
<path d="M149.24 85.1892C149.096 85.4774 148.751 85.6161 148.484 85.798L147.571 86.4247C147.51 86.4797 147.439 86.5218 147.361 86.5484C147.283 86.575 147.201 86.5856 147.119 86.5796C147.045 86.5522 146.977 86.5102 146.919 86.4561C146.861 86.4019 146.815 86.3368 146.782 86.2645C146.783 86.2597 146.783 86.2548 146.782 86.25L146.593 85.9331L145.693 84.4238C145.593 84.2886 145.535 84.1271 145.525 83.9591C145.525 83.8817 145.552 83.8096 145.56 83.7322C145.562 83.5147 145.499 83.3014 145.38 83.1198C145.308 82.9848 145.163 82.8731 145.167 82.7218C145.16 82.523 145.195 82.325 145.268 82.1401C145.362 81.9691 145.498 81.8242 145.662 81.7186C145.747 81.6574 145.833 81.5998 145.923 81.5385C145.971 81.5059 146.024 81.4815 146.08 81.4665C146.23 81.4359 146.377 81.5602 146.528 81.5656C147.178 82.0014 147.429 82.8263 147.94 83.4206C148.228 83.7592 148.257 84.0186 148.583 84.3211C148.635 84.368 148.686 84.4184 148.734 84.4706C148.799 84.5409 148.853 84.6197 148.896 84.7048C148.956 84.8597 149.314 85.0416 149.24 85.1892Z" fill="#3F3D56"/>
<path d="M155.626 84.7462C155.894 85.3135 156.103 85.9367 156.026 86.5598C156.01 86.7286 155.956 86.8917 155.869 87.0371C155.61 87.4351 155.066 87.5072 154.592 87.5306C154.492 87.5222 154.392 87.5338 154.297 87.5647C154.202 87.5957 154.113 87.6453 154.038 87.7107C153.974 87.8027 153.943 87.913 153.95 88.0245C153.956 88.136 153.999 88.2422 154.072 88.3266C154.224 88.4891 154.413 88.6126 154.623 88.6869C155.372 89.0164 156.181 89.2884 156.994 89.2128C157.373 89.1767 157.74 89.0669 158.116 89.011C158.527 88.9666 158.939 88.9438 159.352 88.9426C159.841 88.9246 160.329 88.876 160.817 88.8273L162.11 88.6995C162.181 88.7005 162.25 88.6755 162.303 88.6292C162.399 88.5176 162.276 88.3537 162.157 88.269C161.471 87.7611 160.598 87.4117 160.207 86.6481C160.027 86.2879 159.971 85.8592 159.838 85.4702C159.705 85.0812 159.492 84.73 159.409 84.3337C159.365 83.9861 159.345 83.6359 159.35 83.2855C159.354 82.9322 159.226 82.5902 158.99 82.3274C158.732 82.0878 158.359 82.0266 158.01 82.0122C157.149 81.9744 156.233 82.1797 155.622 82.7866C155.458 82.9505 155.318 83.1469 155.149 83.2945C154.979 83.4422 154.749 83.4855 154.861 83.68C154.972 83.8745 155.192 83.9951 155.311 84.1662C155.431 84.3509 155.536 84.5448 155.626 84.7462Z" fill="#FBBEBE"/>
<path d="M162.96 89.9854C162.733 91.3722 162.364 92.732 161.858 94.0431C161.604 94.6352 161.388 95.2428 161.21 95.8622C161.071 96.4205 161.098 97.0185 160.97 97.5786C160.812 98.2756 160.654 98.9744 160.526 99.6768C160.311 100.749 160.225 101.844 160.27 102.937C160.27 103.109 160.303 103.279 160.367 103.439C160.427 103.569 160.522 103.681 160.578 103.814C160.62 103.931 160.637 104.055 160.628 104.179C160.619 104.303 160.585 104.424 160.528 104.534C160.435 104.74 160.31 104.93 160.157 105.096C158.478 105.597 156.683 105.433 154.934 105.539C153.323 105.636 151.693 105.968 150.105 105.692C149.925 104.972 150.225 104.217 150.483 103.515C151.23 101.474 152.057 99.349 151.923 97.2112C151.909 96.9618 151.881 96.7135 151.839 96.4673C151.578 94.9527 151.862 93.384 152.318 91.9161C152.601 91.0012 152.588 90.0268 152.523 89.0741C152.491 88.7647 152.487 88.4531 152.511 88.1429C152.537 87.8262 152.654 87.524 152.849 87.273C152.849 87.2604 152.865 87.2478 152.874 87.2352C152.883 87.2226 152.953 87.2244 153.009 87.2352C153.024 87.2412 153.039 87.2444 153.054 87.2444C153.07 87.2444 153.085 87.2412 153.099 87.2352L153.119 87.2226C153.127 87.2172 153.136 87.2143 153.145 87.2143C153.155 87.2143 153.164 87.2172 153.171 87.2226C153.213 87.2478 153.236 87.3343 153.326 87.3505C153.459 87.3706 153.593 87.3832 153.728 87.3883C153.89 87.3931 154.05 87.4161 154.207 87.4567H154.228C154.463 87.4962 154.703 87.4758 154.927 87.3973C155.076 87.36 155.22 87.3044 155.356 87.2316C155.395 87.1884 155.644 87.1487 155.694 87.1181C155.858 87.0191 155.822 86.5544 155.856 86.3635C155.875 86.172 155.921 85.9841 155.991 85.8052C156.073 85.6731 156.187 85.5632 156.321 85.485C156.455 85.4068 156.607 85.3628 156.762 85.3567C157.072 85.3493 157.382 85.3771 157.686 85.4396C158.358 85.535 159.045 85.5188 159.705 85.6737C160.036 85.7511 160.398 85.8682 160.702 85.7169C160.785 85.7367 160.798 85.8088 160.798 85.897C160.79 85.9809 160.773 86.0636 160.747 86.1438C160.632 86.6409 161.023 87.0983 161.383 87.4585C161.535 87.6283 161.715 87.7714 161.914 87.8818C162.094 87.9646 162.274 87.9988 162.454 88.0889C162.6 88.1667 162.724 88.2801 162.814 88.4185C162.918 88.5772 162.988 88.7556 163.02 88.9426C163.058 89.2911 163.038 89.6436 162.96 89.9854Z" fill="#3F3D56"/>
<path opacity="0.1" d="M162.96 89.9854C162.733 91.3722 162.364 92.732 161.858 94.0431C161.604 94.6352 161.388 95.2428 161.21 95.8622C161.071 96.4205 161.098 97.0185 160.971 97.5786C160.812 98.2756 160.654 98.9744 160.526 99.6768C160.488 99.6984 160.448 99.7182 160.409 99.7362C160.185 99.8432 159.947 99.9196 159.703 99.9632C159.264 100.016 158.819 100.002 158.385 99.92L155.815 99.576C154.788 99.4373 153.695 99.2698 152.934 98.5746C152.511 98.1928 152.233 97.6885 151.929 97.2022C151.915 96.9528 151.887 96.7045 151.844 96.4583C151.583 94.9437 151.868 93.375 152.323 91.9071C152.606 90.9922 152.593 90.0178 152.529 89.0651C152.496 88.7557 152.492 88.444 152.516 88.1339C152.542 87.8172 152.66 87.515 152.854 87.264C152.907 87.2486 152.961 87.2366 153.015 87.228C153.051 87.2207 153.088 87.2158 153.125 87.2136H153.177C153.237 87.2138 153.298 87.2211 153.357 87.2352C153.48 87.2743 153.6 87.3206 153.717 87.3739H153.739C153.893 87.4247 154.055 87.4479 154.218 87.4423C154.455 87.4423 154.7 87.4045 154.938 87.3883C155.232 87.3424 155.532 87.3963 155.792 87.5414C155.959 87.6759 156.118 87.8209 156.267 87.9754C156.447 88.117 156.65 88.2272 156.867 88.3014C158.417 88.8932 160.136 88.857 161.66 88.2006C161.807 88.1173 161.973 88.075 162.141 88.0781C162.265 88.1024 162.383 88.1528 162.487 88.2258C162.595 88.2888 162.701 88.35 162.811 88.4059C162.915 88.5646 162.985 88.743 163.016 88.93C163.057 89.2824 163.039 89.6393 162.96 89.9854Z" fill="black"/>
<path d="M164.529 88.7931C163.812 88.574 163.123 88.2718 162.476 87.8926C162.372 87.8201 162.254 87.7698 162.13 87.7449C161.961 87.7429 161.795 87.7851 161.648 87.8674C160.124 88.5237 158.405 88.5599 156.856 87.9682C156.639 87.8933 156.437 87.7831 156.256 87.6422C156.106 87.4882 155.948 87.3433 155.781 87.2082C155.188 86.8246 154.369 87.2748 153.706 87.0281C153.589 86.9756 153.468 86.9293 153.346 86.8894C152.822 86.7579 152.289 87.2802 151.774 87.1217C151.582 87.6426 151.441 88.1806 151.351 88.7283C151.278 89.3573 151.239 89.9898 151.234 90.623C151.234 91.003 151.216 91.383 151.234 91.763C151.297 91.7734 151.358 91.7969 151.412 91.8319C151.466 91.8669 151.512 91.9128 151.547 91.9666C151.571 92.0293 151.58 92.0965 151.575 92.1633C151.57 92.2302 151.551 92.2952 151.518 92.3538C151.142 93.3209 150.76 94.2989 150.189 95.1652C150.592 95.405 150.965 95.6902 151.302 96.0153C151.932 96.6817 152.242 97.6164 152.923 98.2324C153.69 98.9258 154.783 99.0951 155.804 99.232L158.374 99.576C158.809 99.6574 159.254 99.6726 159.694 99.621C159.938 99.5765 160.174 99.4996 160.398 99.3923C160.544 99.3312 160.677 99.2432 160.79 99.1329C160.885 99.0251 160.964 98.9037 161.023 98.7727C161.226 98.3657 161.412 97.9496 161.583 97.5282C161.642 97.3787 161.732 97.204 161.894 97.1914C162.849 96.3305 163.749 95.448 164.704 94.5871C165.087 94.2692 165.431 93.9064 165.728 93.5064C166.202 92.8058 165.771 91.8135 165.728 90.967C165.723 90.7505 165.696 90.535 165.647 90.324C165.492 89.7098 165.129 88.975 164.529 88.7931Z" fill="#15B8DB"/>
<path opacity="0.1" d="M149.24 85.1892C149.096 85.4774 148.75 85.6161 148.484 85.798L147.571 86.4247C147.51 86.4797 147.438 86.5218 147.361 86.5484C147.283 86.575 147.201 86.5856 147.119 86.5796C147.045 86.5522 146.977 86.5102 146.919 86.4561C146.861 86.4019 146.815 86.3368 146.782 86.2645C146.782 86.223 146.782 86.178 146.782 86.1348C146.775 85.989 146.795 85.8432 146.84 85.7043C146.929 85.5007 147.068 85.3224 147.243 85.1856C147.582 84.8646 147.985 84.619 148.426 84.4652C148.495 84.4385 148.57 84.431 148.642 84.4436C148.67 84.4509 148.697 84.4625 148.722 84.4778C148.786 84.5481 148.841 84.6269 148.884 84.712C148.956 84.8597 149.314 85.0416 149.24 85.1892Z" fill="black"/>
<path d="M151.39 87.0875C151.084 87.0731 150.834 86.8516 150.611 86.6409L149.928 86.0069C149.883 85.9683 149.843 85.9234 149.809 85.8736C149.773 85.8036 149.745 85.7292 149.727 85.6521C149.582 85.2883 149.355 84.9628 149.064 84.7011C149.013 84.6366 148.945 84.5879 148.868 84.5607C148.794 84.5471 148.719 84.5546 148.65 84.5823C148.209 84.7358 147.805 84.9814 147.467 85.3027C147.291 85.4396 147.153 85.6178 147.063 85.8214C147.018 85.9602 146.998 86.106 147.006 86.2518C147.01 86.7277 147.117 87.1971 147.319 87.6278C147.35 87.6945 147.384 87.7611 147.42 87.826C147.66 88.2231 147.944 88.5922 148.266 88.9264L148.695 89.4055C149.116 89.8773 149.537 90.3492 149.995 90.7833C150.159 90.9582 150.358 91.0968 150.578 91.1903C150.689 91.2355 150.81 91.2494 150.928 91.2303C151.047 91.2113 151.157 91.16 151.248 91.0822C151.334 90.9824 151.399 90.8659 151.439 90.7401C151.716 90.0196 151.979 89.2704 151.996 88.4941C151.999 88.1833 151.986 87.8724 151.956 87.563C151.929 87.2352 151.697 87.1073 151.39 87.0875Z" fill="#15B8DB"/>
<path d="M162.303 112.302C162.293 114.114 162.164 115.923 161.918 117.718C161.882 118.008 161.842 118.298 161.822 118.588C161.763 119.429 161.86 120.274 161.781 121.109C161.74 121.561 161.646 122.01 161.567 122.451C161.215 124.42 161.112 126.426 161.261 128.421C161.509 131.741 160.747 135.062 161.093 138.372C161.135 139.016 161.099 139.662 160.987 140.297C160.922 140.692 160.829 141.081 160.708 141.461C160.445 142.363 160.181 143.263 159.915 144.163C159.884 144.299 159.823 144.427 159.735 144.537C159.643 144.617 159.536 144.676 159.419 144.71C159.303 144.744 159.18 144.754 159.06 144.737C158.021 144.705 157.043 144.256 156.1 143.819C155.991 143.776 155.891 143.715 155.802 143.638C155.606 143.435 155.622 143.114 155.536 142.846C155.449 142.578 155.215 142.325 155.082 142.05C154.973 141.789 154.906 141.512 154.886 141.23C154.766 140.308 154.684 139.383 154.641 138.453C154.572 137.146 155.437 135.943 155.721 134.671C156.262 132.171 155.804 129.491 156.764 127.119C157.067 126.37 156.627 125.462 156.584 124.655C156.568 124.135 156.501 123.617 156.382 123.11C156.202 122.433 155.822 121.795 155.795 121.093C155.775 120.585 155.939 120.09 156.024 119.589C156.136 118.852 156.126 118.102 155.993 117.368C155.898 116.763 155.752 116.158 155.606 115.567L155.574 115.634C155.135 116.492 154.758 117.379 154.445 118.291C154.301 118.732 154.174 119.182 153.994 119.611C153.847 119.971 153.665 120.301 153.487 120.639C152.847 121.833 152.291 123.07 151.821 124.34C151.598 124.963 151.401 125.601 151.207 126.226L149.872 130.548C149.512 131.685 149.118 132.784 148.765 133.918C148.266 135.539 147.767 137.146 147.188 138.731C146.647 140.234 146.004 141.792 146.197 143.381C145.701 143.614 145.155 143.725 144.607 143.703C143.679 143.621 142.768 143.4 141.906 143.048C141.562 142.92 141.205 142.776 140.973 142.493C140.573 142.005 140.672 141.29 140.793 140.669C140.838 140.388 140.911 140.113 141.009 139.847C141.146 139.516 141.369 139.222 141.51 138.894C141.792 138.266 141.81 137.555 141.922 136.872C142.034 136.189 142.282 135.469 142.866 135.098C142.965 133.898 143.458 132.715 143.73 131.543C143.935 130.655 144.004 129.742 144.166 128.841C144.328 127.941 144.589 127.04 145.133 126.311C145.09 125.558 145.26 124.809 145.623 124.149C145.71 124.004 145.782 123.85 145.837 123.69C145.871 123.534 145.89 123.375 145.895 123.215C145.954 122.589 146.222 122.001 146.654 121.545C146.474 120.888 146.725 120.201 146.95 119.564C147.233 118.75 147.362 117.891 147.328 117.03C147.3 116.789 147.312 116.546 147.362 116.309C147.413 116.129 147.512 115.976 147.569 115.803C147.621 115.592 147.648 115.375 147.65 115.157C147.721 114.182 148.115 113.264 148.551 112.394C148.81 111.886 148.59 111.196 148.644 110.631C148.738 109.691 148.841 108.718 149.307 107.899C149.393 107.744 149.487 107.596 149.565 107.436C149.658 107.207 149.709 106.963 149.714 106.715C149.73 106.303 149.788 105.961 149.64 105.577C150.604 104.776 151.918 104.55 153.171 104.496C154.425 104.442 155.693 104.556 156.919 104.289C157.279 104.208 157.639 104.097 158.019 104.043C158.882 103.916 159.757 104.113 160.609 104.307C160.549 104.848 160.747 105.366 160.969 105.869C161.834 107.904 162.287 110.091 162.303 112.302Z" fill="#33313F"/>
<path opacity="0.1" d="M158.062 112.715L155.993 117.368C155.898 116.763 155.752 116.158 155.606 115.567L155.574 115.634V115.537L156.701 113.057L158.062 112.715Z" fill="black"/>
<path opacity="0.1" d="M164.262 102.992C164.143 103.082 164 103.135 163.852 103.146C163.624 103.154 163.396 103.123 163.178 103.054L161.558 102.648C161.507 102.636 161.457 102.618 161.41 102.596C161.437 102.314 161.491 101.986 161.644 101.876C161.873 101.723 162.557 101.928 162.816 101.964C163.263 102.025 163.717 102.097 164.152 102.182C164.22 102.447 164.257 102.719 164.262 102.992Z" fill="black"/>
<path d="M165.633 92.2763C165.667 92.4258 165.716 92.5735 165.744 92.7248C165.793 93.096 165.78 93.4726 165.707 93.8396L165.559 94.8698L165.411 95.9054L164.84 99.8911L164.7 100.878L164.502 102.256C164.492 102.371 164.463 102.483 164.415 102.587C164.356 102.685 164.274 102.767 164.176 102.825C164.077 102.883 163.966 102.916 163.852 102.92C163.624 102.928 163.396 102.897 163.178 102.829L161.558 102.422C161.487 102.409 161.419 102.381 161.359 102.341C161.31 102.292 161.274 102.231 161.256 102.165C161.238 102.098 161.237 102.027 161.255 101.961C161.278 101.824 161.338 101.696 161.358 101.559C161.397 101.292 161.286 101.019 161.325 100.754C161.364 100.585 161.425 100.422 161.505 100.269C162.046 99.0753 161.732 97.6813 161.916 96.3845C162.081 95.3639 162.512 94.4048 163.166 93.6037C163.569 93.098 164.032 92.6432 164.545 92.2493C164.747 92.0926 165.067 91.7702 165.321 91.709C165.647 91.6406 165.579 92.0494 165.633 92.2763Z" fill="#15B8DB"/>
<path d="M153.368 76.7622C153.249 77.1404 153.434 77.5564 153.35 77.9418C153.258 78.3669 152.858 78.6623 152.745 79.0891C152.565 79.7393 153.116 80.3318 153.519 80.8721C155.014 82.8785 154.817 85.6557 154.306 88.1033C153.894 90.067 153.325 91.9944 152.604 93.8666C152.379 94.4484 152.131 95.0391 151.688 95.475C152.516 95.2372 153.396 94.9977 154.227 95.2282C155.278 95.52 156.186 96.5412 157.252 96.3088C157.893 96.1666 158.343 95.5974 158.919 95.2823C160 94.7005 161.302 95.0661 162.507 95.2534C162.766 95.3147 163.038 95.3009 163.29 95.2138C163.483 95.1102 163.646 94.9597 163.765 94.7762C164.303 94.0863 164.625 93.253 164.691 92.3808C164.719 91.9465 164.655 91.5111 164.503 91.1034C164.35 90.6957 164.113 90.3251 163.807 90.016C163.551 89.7747 163.245 89.5802 163.049 89.2956C162.858 88.9633 162.755 88.5874 162.751 88.2042C162.609 86.223 163.092 84.2004 162.595 82.2841C162.415 81.6015 162.121 80.9478 162.042 80.249C161.943 79.3791 162.179 78.4479 161.833 77.6519C161.561 77.0197 160.962 76.5712 160.315 76.3407C159.669 76.1102 158.977 76.0453 158.291 75.9805C157.304 75.8977 153.78 75.4744 153.368 76.7622Z" fill="#33313F"/>
<g opacity="0.1">
<path opacity="0.1" d="M154.306 88.1033C153.896 90.0589 153.33 91.9784 152.613 93.8432C152.737 93.5965 152.842 93.3371 152.941 93.0796C153.663 91.2076 154.232 89.2802 154.643 87.3163C155.156 84.8668 155.352 82.0932 153.857 80.0851C153.497 79.606 153.035 79.0873 153.051 78.5254C152.918 78.6953 152.814 78.8865 152.745 79.0909C152.565 79.7411 153.116 80.3336 153.519 80.8739C155.014 82.8785 154.817 85.6557 154.306 88.1033Z" fill="black"/>
<path opacity="0.1" d="M153.371 77.7599C153.516 77.5804 153.623 77.3742 153.688 77.153C153.716 76.8854 153.709 76.6154 153.667 76.3497C153.528 76.4541 153.424 76.5978 153.368 76.7622C153.261 77.081 153.384 77.4267 153.371 77.7599Z" fill="black"/>
<path opacity="0.1" d="M164.104 93.9837C163.985 94.1667 163.821 94.3166 163.628 94.4196C163.377 94.5085 163.105 94.5223 162.845 94.4592C161.64 94.2791 160.324 93.9081 159.258 94.4898C158.68 94.8032 158.232 95.3723 157.589 95.5164C156.524 95.7541 155.617 94.7329 154.565 94.4358C153.82 94.2287 153.035 94.3998 152.284 94.6159C152.134 94.9341 151.933 95.2251 151.688 95.4768C152.516 95.239 153.396 94.9995 154.227 95.23C155.278 95.5218 156.186 96.543 157.252 96.3107C157.893 96.1684 158.343 95.5993 158.919 95.2841C160 94.7023 161.302 95.0679 162.507 95.2552C162.766 95.3165 163.038 95.3028 163.29 95.2156C163.483 95.112 163.646 94.9615 163.765 94.778C164.092 94.3474 164.344 93.8653 164.511 93.3515C164.39 93.5717 164.254 93.783 164.104 93.9837Z" fill="black"/>
</g>
</g>
<defs>
<linearGradient id="paint0_linear" x1="138.407" y1="110.299" x2="165.959" y2="110.299" gradientUnits="userSpaceOnUse">
<stop stop-color="#808080" stop-opacity="0.25"/>
<stop offset="0.54" stop-color="#808080" stop-opacity="0.12"/>
<stop offset="1" stop-color="#808080" stop-opacity="0.1"/>
</linearGradient>
<clipPath id="clip0">
<rect width="210" height="145" fill="white"/>
</clipPath>
</defs>
</svg>
