<svg width="210" height="184" viewBox="0 0 210 184" fill="none" xmlns="http://www.w3.org/2000/svg">
<g clip-path="url(#clip0)">
<path opacity="0.1" d="M118.782 58.741C105.321 58.759 92.3649 54.9426 79.972 50.7029C67.5792 46.4633 55.2817 41.7157 42.0713 39.704C33.5753 38.4108 23.9142 38.5297 17.273 43.225C10.8802 47.742 9.02905 55.2181 8.13587 62.1251C7.46419 67.3211 7.15446 72.7747 9.67013 77.5276C11.4169 80.8271 14.4061 83.5467 16.513 86.6913C23.8674 97.6308 19.4447 111.605 12.2974 122.799C8.94622 128.05 5.02055 133.084 2.48687 138.637C-0.0468058 144.19 -1.08585 150.486 1.49825 155.967C4.05894 161.398 9.843 165.341 16.0502 168.034C28.6556 173.512 43.3318 174.687 57.6137 175.139C89.228 176.142 120.903 174.096 152.494 172.05C164.185 171.293 175.928 170.532 187.377 168.34C193.734 167.124 200.279 165.319 204.787 161.364C210.508 156.343 211.678 148.145 207.515 142.252C200.533 132.368 182.124 130.503 177.118 119.809C174.357 113.921 176.738 107.169 180.244 101.494C187.764 89.3172 200.708 78.4101 200.926 64.7907C201.075 55.4379 194.344 46.3138 184.29 42.2488C173.752 37.9912 159.384 39.0862 152.001 47.0216C144.409 55.1965 130.667 58.7284 118.782 58.741Z" fill="#15B8DB"/>
<path d="M187.172 54.3503H14.1396C13.7308 54.3503 13.3387 54.5127 13.0497 54.8018C12.7606 55.0909 12.5982 55.4831 12.5982 55.892V60.3838H188.713V55.892C188.713 55.4831 188.551 55.0909 188.262 54.8018C187.973 54.5127 187.581 54.3503 187.172 54.3503V54.3503Z" fill="#3F3D56"/>
<path d="M12.5982 60.3838V161.465C12.5982 162.29 12.9256 163.08 13.5085 163.663C14.0914 164.246 14.882 164.574 15.7063 164.574H185.605C186.429 164.574 187.22 164.246 187.803 163.663C188.386 163.08 188.713 162.29 188.713 161.465V60.3838H12.5982Z" fill="white"/>
<path opacity="0.8" d="M15.3875 58.0424C15.7854 58.0424 16.1079 57.7199 16.1079 57.322C16.1079 56.9241 15.7854 56.6016 15.3875 56.6016C14.9897 56.6016 14.6672 56.9241 14.6672 57.322C14.6672 57.7199 14.9897 58.0424 15.3875 58.0424Z" fill="#FA5959"/>
<path opacity="0.8" d="M17.3684 58.0424C17.7662 58.0424 18.0887 57.7199 18.0887 57.322C18.0887 56.9241 17.7662 56.6016 17.3684 56.6016C16.9706 56.6016 16.6481 56.9241 16.6481 57.322C16.6481 57.7199 16.9706 58.0424 17.3684 58.0424Z" fill="#FED253"/>
<path opacity="0.8" d="M19.3492 58.0424C19.7471 58.0424 20.0695 57.7199 20.0695 57.322C20.0695 56.9241 19.7471 56.6016 19.3492 56.6016C18.9514 56.6016 18.6289 56.9241 18.6289 57.322C18.6289 57.7199 18.9514 58.0424 19.3492 58.0424Z" fill="#8CCF4D"/>
<path opacity="0.05" d="M170.509 77.2379H28.9689V139.485H170.509V77.2379Z" fill="black"/>
<path d="M169.429 77.7098H30.0494V138.585H169.429V77.7098Z" fill="#3F3D56"/>
<path d="M68.0456 93.377C65.3032 93.377 62.6223 94.1904 60.3421 95.7142C58.0619 97.238 56.2846 99.4039 55.2351 101.938C54.1857 104.472 53.9111 107.26 54.4461 109.951C54.9811 112.641 56.3017 115.112 58.2409 117.051C60.1801 118.991 62.6507 120.311 65.3405 120.847C68.0302 121.382 70.8182 121.107 73.3518 120.057C75.8855 119.008 78.051 117.23 79.5746 114.95C81.0983 112.669 81.9115 109.988 81.9115 107.245C81.9115 105.424 81.5528 103.621 80.856 101.938C80.1592 100.255 79.1378 98.7266 77.8502 97.4389C76.5627 96.1511 75.0341 95.1296 73.3518 94.4327C71.6695 93.7357 69.8665 93.377 68.0456 93.377V93.377ZM70.5324 107.578V114.145H65.6307V107.578C64.9524 107.065 64.4525 106.351 64.2016 105.538C63.9506 104.725 63.9613 103.854 64.2321 103.047C64.5029 102.241 65.0202 101.539 65.7109 101.043C66.4016 100.546 67.2309 100.279 68.0816 100.279C68.9323 100.279 69.7616 100.546 70.4523 101.043C71.143 101.539 71.6602 102.241 71.9311 103.047C72.2019 103.854 72.2126 104.725 71.9616 105.538C71.7107 106.351 71.2107 107.065 70.5324 107.578V107.578Z" fill="#15B8DB"/>
<path opacity="0.05" d="M68.0456 93.377C65.3032 93.377 62.6223 94.1904 60.3421 95.7142C58.0619 97.238 56.2846 99.4039 55.2351 101.938C54.1857 104.472 53.9111 107.26 54.4461 109.951C54.9811 112.641 56.3017 115.112 58.2409 117.051C60.1801 118.991 62.6507 120.311 65.3405 120.847C68.0302 121.382 70.8182 121.107 73.3518 120.057C75.8855 119.008 78.051 117.23 79.5746 114.95C81.0983 112.669 81.9115 109.988 81.9115 107.245C81.9115 105.424 81.5528 103.621 80.856 101.938C80.1592 100.255 79.1378 98.7266 77.8502 97.4389C76.5627 96.1511 75.0341 95.1296 73.3518 94.4327C71.6695 93.7357 69.8665 93.377 68.0456 93.377V93.377ZM70.5324 107.578V114.145H65.6307V107.578C64.9524 107.065 64.4525 106.351 64.2016 105.538C63.9506 104.725 63.9613 103.854 64.2321 103.047C64.5029 102.241 65.0202 101.539 65.7109 101.043C66.4016 100.546 67.2309 100.279 68.0816 100.279C68.9323 100.279 69.7616 100.546 70.4523 101.043C71.143 101.539 71.6602 102.241 71.9311 103.047C72.2019 103.854 72.2126 104.725 71.9616 105.538C71.7107 106.351 71.2107 107.065 70.5324 107.578V107.578Z" fill="black"/>
<path d="M68.0456 89.4147C64.5196 89.4147 61.0728 90.4605 58.1411 92.4197C55.2093 94.3789 52.9243 97.1636 51.575 100.422C50.2257 103.68 49.8726 107.265 50.5605 110.724C51.2484 114.182 52.9463 117.359 55.4395 119.853C57.9328 122.347 61.1094 124.045 64.5676 124.733C68.0258 125.421 71.6103 125.068 74.8679 123.718C78.1255 122.369 80.9097 120.083 82.8687 117.151C84.8276 114.219 85.8732 110.772 85.8732 107.245C85.8732 102.516 83.9949 97.9809 80.6516 94.6371C77.3083 91.2933 72.7737 89.4147 68.0456 89.4147V89.4147ZM71.2419 107.674V116.115H64.9392V107.674C64.0668 107.013 63.4237 106.096 63.1009 105.05C62.778 104.004 62.7917 102.884 63.1399 101.846C63.4882 100.809 64.1534 99.9073 65.0417 99.2684C65.93 98.6295 66.9965 98.2858 68.0906 98.2858C69.1847 98.2858 70.2512 98.6295 71.1395 99.2684C72.0278 99.9073 72.693 100.809 73.0412 101.846C73.3895 102.884 73.4031 104.004 73.0803 105.05C72.7574 106.096 72.1144 107.013 71.2419 107.674V107.674Z" fill="#15B8DB"/>
<path d="M150.881 104.905H93.2563V111.029H150.881V104.905Z" fill="white"/>
<path d="M150.881 116.072H138.456V122.195H150.881V116.072Z" fill="#15B8DB"/>
<path d="M98.9287 107.875H97.8861L98.8135 106.95C98.8301 106.933 98.8394 106.91 98.8394 106.886C98.8394 106.862 98.8301 106.839 98.8135 106.822C98.8051 106.813 98.7951 106.807 98.7842 106.802C98.7732 106.798 98.7614 106.795 98.7495 106.795C98.7376 106.795 98.7259 106.798 98.7149 106.802C98.7039 106.807 98.694 106.813 98.6856 106.822L97.7582 107.749V106.705C97.7582 106.681 97.7487 106.658 97.7318 106.641C97.7149 106.624 97.6921 106.615 97.6682 106.615C97.6444 106.615 97.6218 106.625 97.605 106.642C97.5882 106.658 97.5786 106.681 97.5781 106.705V107.749L96.6525 106.816C96.6442 106.808 96.6342 106.801 96.6232 106.797C96.6123 106.792 96.6005 106.79 96.5886 106.79C96.5767 106.79 96.565 106.792 96.554 106.797C96.543 106.801 96.533 106.808 96.5247 106.816C96.5081 106.834 96.4988 106.856 96.4988 106.88C96.4988 106.904 96.5081 106.927 96.5247 106.944L97.4521 107.87H96.4076C96.3839 107.87 96.3613 107.88 96.3445 107.897C96.3277 107.914 96.3181 107.936 96.3176 107.96C96.3176 107.984 96.3271 108.007 96.344 108.024C96.3608 108.041 96.3838 108.05 96.4076 108.05H97.4521L96.5247 108.978C96.5081 108.995 96.4988 109.018 96.4988 109.042C96.4988 109.065 96.5081 109.088 96.5247 109.106C96.542 109.122 96.5649 109.131 96.5886 109.131C96.6123 109.131 96.6352 109.122 96.6525 109.106L97.5781 108.178V109.221C97.5781 109.245 97.5876 109.268 97.6045 109.284C97.6214 109.301 97.6443 109.311 97.6682 109.311C97.6921 109.311 97.7149 109.301 97.7318 109.284C97.7487 109.268 97.7582 109.245 97.7582 109.221V108.178L98.6856 109.106C98.7029 109.122 98.7258 109.131 98.7495 109.131C98.7733 109.131 98.7961 109.122 98.8135 109.106C98.8301 109.088 98.8394 109.065 98.8394 109.042C98.8394 109.018 98.8301 108.995 98.8135 108.978L97.8861 108.05H98.9287C98.9526 108.05 98.9755 108.041 98.9924 108.024C99.0093 108.007 99.0187 107.984 99.0187 107.96C99.0174 107.937 99.0073 107.916 98.9905 107.9C98.9738 107.884 98.9517 107.875 98.9287 107.875Z" fill="#15B8DB"/>
<path d="M102.71 107.875H101.668L102.595 106.95C102.612 106.933 102.621 106.91 102.621 106.886C102.621 106.862 102.612 106.839 102.595 106.822C102.587 106.813 102.577 106.807 102.566 106.802C102.555 106.798 102.543 106.795 102.531 106.795C102.519 106.795 102.508 106.798 102.497 106.802C102.486 106.807 102.476 106.813 102.467 106.822L101.54 107.749V106.705C101.54 106.681 101.53 106.658 101.513 106.641C101.497 106.624 101.474 106.615 101.45 106.615C101.426 106.615 101.403 106.625 101.387 106.642C101.37 106.658 101.36 106.681 101.36 106.705V107.749L100.434 106.816C100.426 106.808 100.416 106.801 100.405 106.797C100.394 106.792 100.382 106.79 100.37 106.79C100.358 106.79 100.347 106.792 100.336 106.797C100.325 106.801 100.315 106.808 100.306 106.816C100.29 106.834 100.28 106.856 100.28 106.88C100.28 106.904 100.29 106.927 100.306 106.944L101.234 107.87H100.189C100.166 107.87 100.143 107.88 100.126 107.897C100.109 107.914 100.1 107.936 100.099 107.96C100.099 107.984 100.109 108.007 100.126 108.024C100.142 108.041 100.165 108.05 100.189 108.05H101.234L100.306 108.978C100.29 108.995 100.28 109.018 100.28 109.042C100.28 109.065 100.29 109.088 100.306 109.106C100.324 109.122 100.347 109.131 100.37 109.131C100.394 109.131 100.417 109.122 100.434 109.106L101.36 108.178V109.221C101.36 109.245 101.369 109.268 101.386 109.284C101.403 109.301 101.426 109.311 101.45 109.311C101.474 109.311 101.497 109.301 101.513 109.284C101.53 109.268 101.54 109.245 101.54 109.221V108.178L102.467 109.106C102.485 109.122 102.507 109.131 102.531 109.131C102.555 109.131 102.578 109.122 102.595 109.106C102.612 109.088 102.621 109.065 102.621 109.042C102.621 109.018 102.612 108.995 102.595 108.978L101.668 108.05H102.71C102.734 108.05 102.757 108.041 102.774 108.024C102.791 108.007 102.8 107.984 102.8 107.96C102.799 107.937 102.789 107.916 102.772 107.9C102.755 107.884 102.733 107.875 102.71 107.875Z" fill="#15B8DB"/>
<path d="M106.492 107.875H105.449L106.377 106.95C106.393 106.933 106.403 106.91 106.403 106.886C106.403 106.862 106.393 106.839 106.377 106.822C106.368 106.813 106.358 106.807 106.347 106.802C106.336 106.798 106.325 106.795 106.313 106.795C106.301 106.795 106.289 106.798 106.278 106.802C106.267 106.807 106.257 106.813 106.249 106.822L105.321 107.749V106.705C105.321 106.681 105.312 106.658 105.295 106.641C105.278 106.624 105.255 106.615 105.231 106.615C105.208 106.615 105.185 106.625 105.168 106.642C105.151 106.658 105.142 106.681 105.141 106.705V107.749L104.216 106.816C104.207 106.808 104.197 106.801 104.186 106.797C104.175 106.792 104.164 106.79 104.152 106.79C104.14 106.79 104.128 106.792 104.117 106.797C104.106 106.801 104.096 106.808 104.088 106.816C104.071 106.834 104.062 106.856 104.062 106.88C104.062 106.904 104.071 106.927 104.088 106.944L105.015 107.87H103.971C103.947 107.87 103.924 107.88 103.908 107.897C103.891 107.914 103.881 107.936 103.881 107.96C103.881 107.984 103.89 108.007 103.907 108.024C103.924 108.041 103.947 108.05 103.971 108.05H105.015L104.088 108.978C104.071 108.995 104.062 109.018 104.062 109.042C104.062 109.065 104.071 109.088 104.088 109.106C104.105 109.122 104.128 109.131 104.152 109.131C104.176 109.131 104.198 109.122 104.216 109.106L105.141 108.178V109.221C105.141 109.245 105.151 109.268 105.168 109.284C105.185 109.301 105.208 109.311 105.231 109.311C105.255 109.311 105.278 109.301 105.295 109.284C105.312 109.268 105.321 109.245 105.321 109.221V108.178L106.249 109.106C106.266 109.122 106.289 109.131 106.313 109.131C106.336 109.131 106.359 109.122 106.377 109.106C106.393 109.088 106.403 109.065 106.403 109.042C106.403 109.018 106.393 108.995 106.377 108.978L105.449 108.05H106.492C106.516 108.05 106.539 108.041 106.556 108.024C106.572 108.007 106.582 107.984 106.582 107.96C106.581 107.937 106.571 107.916 106.554 107.9C106.537 107.884 106.515 107.875 106.492 107.875Z" fill="#15B8DB"/>
<path d="M110.274 107.875H109.231L110.158 106.95C110.175 106.933 110.184 106.91 110.184 106.886C110.184 106.862 110.175 106.839 110.158 106.822C110.15 106.813 110.14 106.807 110.129 106.802C110.118 106.798 110.106 106.795 110.094 106.795C110.082 106.795 110.071 106.798 110.06 106.802C110.049 106.807 110.039 106.813 110.03 106.822L109.103 107.749V106.705C109.103 106.681 109.094 106.658 109.077 106.641C109.06 106.624 109.037 106.615 109.013 106.615C108.989 106.615 108.967 106.625 108.95 106.642C108.933 106.658 108.923 106.681 108.923 106.705V107.749L107.997 106.816C107.989 106.808 107.979 106.801 107.968 106.797C107.957 106.792 107.945 106.79 107.933 106.79C107.922 106.79 107.91 106.792 107.899 106.797C107.888 106.801 107.878 106.808 107.87 106.816C107.853 106.834 107.844 106.856 107.844 106.88C107.844 106.904 107.853 106.927 107.87 106.944L108.797 107.87H107.752C107.729 107.87 107.706 107.88 107.689 107.897C107.673 107.914 107.663 107.936 107.662 107.96C107.662 107.984 107.672 108.007 107.689 108.024C107.706 108.041 107.729 108.05 107.752 108.05H108.797L107.87 108.978C107.853 108.995 107.844 109.018 107.844 109.042C107.844 109.065 107.853 109.088 107.87 109.106C107.887 109.122 107.91 109.131 107.933 109.131C107.957 109.131 107.98 109.122 107.997 109.106L108.923 108.178V109.221C108.923 109.245 108.932 109.268 108.949 109.284C108.966 109.301 108.989 109.311 109.013 109.311C109.037 109.311 109.06 109.301 109.077 109.284C109.094 109.268 109.103 109.245 109.103 109.221V108.178L110.03 109.106C110.048 109.122 110.071 109.131 110.094 109.131C110.118 109.131 110.141 109.122 110.158 109.106C110.175 109.088 110.184 109.065 110.184 109.042C110.184 109.018 110.175 108.995 110.158 108.978L109.231 108.05H110.274C110.297 108.05 110.32 108.041 110.337 108.024C110.354 108.007 110.364 107.984 110.364 107.96C110.362 107.937 110.352 107.916 110.335 107.9C110.319 107.884 110.297 107.875 110.274 107.875Z" fill="#15B8DB"/>
<path d="M114.055 107.875H113.012L113.94 106.95C113.957 106.933 113.966 106.91 113.966 106.886C113.966 106.862 113.957 106.839 113.94 106.822C113.932 106.813 113.922 106.807 113.911 106.802C113.9 106.798 113.888 106.795 113.876 106.795C113.864 106.795 113.852 106.798 113.841 106.802C113.83 106.807 113.82 106.813 113.812 106.822L112.885 107.749V106.705C112.885 106.681 112.875 106.658 112.858 106.641C112.841 106.624 112.818 106.615 112.795 106.615C112.771 106.615 112.748 106.625 112.731 106.642C112.715 106.658 112.705 106.681 112.705 106.705V107.749L111.779 106.816C111.771 106.808 111.761 106.801 111.75 106.797C111.739 106.792 111.727 106.79 111.715 106.79C111.703 106.79 111.691 106.792 111.68 106.797C111.669 106.801 111.659 106.808 111.651 106.816C111.635 106.834 111.625 106.856 111.625 106.88C111.625 106.904 111.635 106.927 111.651 106.944L112.579 107.87H111.534C111.51 107.87 111.488 107.88 111.471 107.897C111.454 107.914 111.444 107.936 111.444 107.96C111.444 107.984 111.454 108.007 111.47 108.024C111.487 108.041 111.51 108.05 111.534 108.05H112.579L111.651 108.978C111.635 108.995 111.625 109.018 111.625 109.042C111.625 109.065 111.635 109.088 111.651 109.106C111.668 109.122 111.691 109.131 111.715 109.131C111.739 109.131 111.762 109.122 111.779 109.106L112.705 108.178V109.221C112.705 109.245 112.714 109.268 112.731 109.284C112.748 109.301 112.771 109.311 112.795 109.311C112.818 109.311 112.841 109.301 112.858 109.284C112.875 109.268 112.885 109.245 112.885 109.221V108.178L113.812 109.106C113.829 109.122 113.852 109.131 113.876 109.131C113.9 109.131 113.923 109.122 113.94 109.106C113.957 109.088 113.966 109.065 113.966 109.042C113.966 109.018 113.957 108.995 113.94 108.978L113.012 108.05H114.055C114.079 108.05 114.102 108.041 114.119 108.024C114.136 108.007 114.145 107.984 114.145 107.96C114.144 107.937 114.134 107.916 114.117 107.9C114.1 107.884 114.078 107.875 114.055 107.875Z" fill="#15B8DB"/>
<path d="M117.837 107.875H116.794L117.722 106.95C117.738 106.933 117.747 106.91 117.747 106.886C117.747 106.862 117.738 106.839 117.722 106.822C117.713 106.813 117.703 106.807 117.692 106.802C117.681 106.798 117.669 106.795 117.658 106.795C117.646 106.795 117.634 106.798 117.623 106.802C117.612 106.807 117.602 106.813 117.594 106.822L116.666 107.749V106.705C116.666 106.681 116.657 106.658 116.64 106.641C116.623 106.624 116.6 106.615 116.576 106.615C116.552 106.615 116.53 106.625 116.513 106.642C116.496 106.658 116.487 106.681 116.486 106.705V107.749L115.561 106.816C115.552 106.808 115.542 106.801 115.531 106.797C115.52 106.792 115.509 106.79 115.497 106.79C115.485 106.79 115.473 106.792 115.462 106.797C115.451 106.801 115.441 106.808 115.433 106.816C115.416 106.834 115.407 106.856 115.407 106.88C115.407 106.904 115.416 106.927 115.433 106.944L116.36 107.87H115.316C115.292 107.87 115.269 107.88 115.253 107.897C115.236 107.914 115.226 107.936 115.226 107.96C115.226 107.984 115.235 108.007 115.252 108.024C115.269 108.041 115.292 108.05 115.316 108.05H116.36L115.433 108.978C115.416 108.995 115.407 109.018 115.407 109.042C115.407 109.065 115.416 109.088 115.433 109.106C115.45 109.122 115.473 109.131 115.497 109.131C115.52 109.131 115.543 109.122 115.561 109.106L116.486 108.178V109.221C116.486 109.245 116.496 109.268 116.513 109.284C116.529 109.301 116.552 109.311 116.576 109.311C116.6 109.311 116.623 109.301 116.64 109.284C116.657 109.268 116.666 109.245 116.666 109.221V108.178L117.594 109.106C117.611 109.122 117.634 109.131 117.658 109.131C117.681 109.131 117.704 109.122 117.722 109.106C117.738 109.088 117.747 109.065 117.747 109.042C117.747 109.018 117.738 108.995 117.722 108.978L116.794 108.05H117.837C117.861 108.05 117.884 108.041 117.9 108.024C117.917 108.007 117.927 107.984 117.927 107.96C117.925 107.937 117.915 107.916 117.899 107.9C117.882 107.884 117.86 107.875 117.837 107.875Z" fill="#15B8DB"/>
<path d="M121.618 107.875H120.576L121.503 106.95C121.52 106.933 121.529 106.91 121.529 106.886C121.529 106.862 121.52 106.839 121.503 106.822C121.495 106.813 121.485 106.807 121.474 106.802C121.463 106.798 121.451 106.795 121.439 106.795C121.427 106.795 121.416 106.798 121.405 106.802C121.394 106.807 121.384 106.813 121.375 106.822L120.448 107.749V106.705C120.448 106.681 120.438 106.658 120.421 106.641C120.405 106.624 120.382 106.615 120.358 106.615C120.334 106.615 120.311 106.625 120.295 106.642C120.278 106.658 120.268 106.681 120.268 106.705V107.749L119.342 106.816C119.334 106.808 119.324 106.801 119.313 106.797C119.302 106.792 119.29 106.79 119.278 106.79C119.266 106.79 119.255 106.792 119.244 106.797C119.233 106.801 119.223 106.808 119.214 106.816C119.198 106.834 119.188 106.856 119.188 106.88C119.188 106.904 119.198 106.927 119.214 106.944L120.142 107.87H119.097C119.074 107.87 119.051 107.88 119.034 107.897C119.017 107.914 119.008 107.936 119.007 107.96C119.007 107.984 119.017 108.007 119.034 108.024C119.051 108.041 119.073 108.05 119.097 108.05H120.142L119.214 108.978C119.198 108.995 119.188 109.018 119.188 109.042C119.188 109.065 119.198 109.088 119.214 109.106C119.232 109.122 119.255 109.131 119.278 109.131C119.302 109.131 119.325 109.122 119.342 109.106L120.268 108.178V109.221C120.268 109.245 120.277 109.268 120.294 109.284C120.311 109.301 120.334 109.311 120.358 109.311C120.382 109.311 120.405 109.301 120.421 109.284C120.438 109.268 120.448 109.245 120.448 109.221V108.178L121.375 109.106C121.393 109.122 121.415 109.131 121.439 109.131C121.463 109.131 121.486 109.122 121.503 109.106C121.52 109.088 121.529 109.065 121.529 109.042C121.529 109.018 121.52 108.995 121.503 108.978L120.576 108.05H121.618C121.642 108.05 121.665 108.041 121.682 108.024C121.699 108.007 121.708 107.984 121.708 107.96C121.707 107.937 121.697 107.916 121.68 107.9C121.663 107.884 121.641 107.875 121.618 107.875Z" fill="#15B8DB"/>
<path d="M125.4 107.875H124.357L125.285 106.95C125.301 106.933 125.311 106.91 125.311 106.886C125.311 106.862 125.301 106.839 125.285 106.822C125.276 106.813 125.266 106.807 125.255 106.802C125.244 106.798 125.233 106.795 125.221 106.795C125.209 106.795 125.197 106.798 125.186 106.802C125.175 106.807 125.165 106.813 125.157 106.822L124.229 107.749V106.705C124.229 106.681 124.22 106.658 124.203 106.641C124.186 106.624 124.163 106.615 124.139 106.615C124.116 106.615 124.093 106.625 124.076 106.642C124.06 106.658 124.05 106.681 124.049 106.705V107.749L123.124 106.816C123.115 106.808 123.105 106.801 123.095 106.797C123.084 106.792 123.072 106.79 123.06 106.79C123.048 106.79 123.036 106.792 123.025 106.797C123.014 106.801 123.004 106.808 122.996 106.816C122.979 106.834 122.97 106.856 122.97 106.88C122.97 106.904 122.979 106.927 122.996 106.944L123.923 107.87H122.879C122.855 107.87 122.833 107.88 122.816 107.897C122.799 107.914 122.789 107.936 122.789 107.96C122.789 107.984 122.798 108.007 122.815 108.024C122.832 108.041 122.855 108.05 122.879 108.05H123.923L122.996 108.978C122.979 108.995 122.97 109.018 122.97 109.042C122.97 109.065 122.979 109.088 122.996 109.106C123.013 109.122 123.036 109.131 123.06 109.131C123.084 109.131 123.106 109.122 123.124 109.106L124.049 108.178V109.221C124.049 109.245 124.059 109.268 124.076 109.284C124.093 109.301 124.116 109.311 124.139 109.311C124.163 109.311 124.186 109.301 124.203 109.284C124.22 109.268 124.229 109.245 124.229 109.221V108.178L125.157 109.106C125.174 109.122 125.197 109.131 125.221 109.131C125.245 109.131 125.267 109.122 125.285 109.106C125.301 109.088 125.311 109.065 125.311 109.042C125.311 109.018 125.301 108.995 125.285 108.978L124.357 108.05H125.4C125.424 108.05 125.447 108.041 125.464 108.024C125.481 108.007 125.49 107.984 125.49 107.96C125.489 107.937 125.479 107.916 125.462 107.9C125.445 107.884 125.423 107.875 125.4 107.875Z" fill="#15B8DB"/>
<path d="M129.182 107.875H128.139L129.066 106.95C129.083 106.933 129.092 106.91 129.092 106.886C129.092 106.862 129.083 106.839 129.066 106.822C129.058 106.813 129.048 106.807 129.037 106.802C129.026 106.798 129.014 106.795 129.002 106.795C128.991 106.795 128.979 106.798 128.968 106.802C128.957 106.807 128.947 106.813 128.938 106.822L128.011 107.749V106.705C128.011 106.681 128.002 106.658 127.985 106.641C127.968 106.624 127.945 106.615 127.921 106.615C127.897 106.615 127.875 106.625 127.858 106.642C127.841 106.658 127.831 106.681 127.831 106.705V107.749L126.905 106.816C126.897 106.808 126.887 106.801 126.876 106.797C126.865 106.792 126.853 106.79 126.842 106.79C126.83 106.79 126.818 106.792 126.807 106.797C126.796 106.801 126.786 106.808 126.778 106.816C126.761 106.834 126.752 106.856 126.752 106.88C126.752 106.904 126.761 106.927 126.778 106.944L127.705 107.87H126.661C126.637 107.87 126.614 107.88 126.597 107.897C126.581 107.914 126.571 107.936 126.57 107.96C126.57 107.984 126.58 108.007 126.597 108.024C126.614 108.041 126.637 108.05 126.661 108.05H127.705L126.778 108.978C126.761 108.995 126.752 109.018 126.752 109.042C126.752 109.065 126.761 109.088 126.778 109.106C126.795 109.122 126.818 109.131 126.842 109.131C126.865 109.131 126.888 109.122 126.905 109.106L127.831 108.178V109.221C127.831 109.245 127.841 109.268 127.857 109.284C127.874 109.301 127.897 109.311 127.921 109.311C127.945 109.311 127.968 109.301 127.985 109.284C128.002 109.268 128.011 109.245 128.011 109.221V108.178L128.938 109.106C128.956 109.122 128.979 109.131 129.002 109.131C129.026 109.131 129.049 109.122 129.066 109.106C129.083 109.088 129.092 109.065 129.092 109.042C129.092 109.018 129.083 108.995 129.066 108.978L128.139 108.05H129.182C129.205 108.05 129.228 108.041 129.245 108.024C129.262 108.007 129.272 107.984 129.272 107.96C129.27 107.937 129.26 107.916 129.243 107.9C129.227 107.884 129.205 107.875 129.182 107.875Z" fill="#15B8DB"/>
<path d="M132.963 107.875H131.921L132.848 106.95C132.865 106.933 132.874 106.91 132.874 106.886C132.874 106.862 132.865 106.839 132.848 106.822C132.84 106.813 132.83 106.807 132.819 106.802C132.808 106.798 132.796 106.795 132.784 106.795C132.772 106.795 132.76 106.798 132.749 106.802C132.738 106.807 132.728 106.813 132.72 106.822L131.793 107.749V106.705C131.793 106.681 131.783 106.658 131.766 106.641C131.749 106.624 131.727 106.615 131.703 106.615C131.679 106.615 131.656 106.625 131.64 106.642C131.623 106.658 131.613 106.681 131.613 106.705V107.749L130.687 106.816C130.679 106.808 130.669 106.801 130.658 106.797C130.647 106.792 130.635 106.79 130.623 106.79C130.611 106.79 130.599 106.792 130.588 106.797C130.578 106.801 130.568 106.808 130.559 106.816C130.543 106.834 130.533 106.856 130.533 106.88C130.533 106.904 130.543 106.927 130.559 106.944L131.487 107.87H130.442C130.418 107.87 130.396 107.88 130.379 107.897C130.362 107.914 130.353 107.936 130.352 107.96C130.352 107.984 130.362 108.007 130.378 108.024C130.395 108.041 130.418 108.05 130.442 108.05H131.487L130.559 108.978C130.543 108.995 130.533 109.018 130.533 109.042C130.533 109.065 130.543 109.088 130.559 109.106C130.577 109.122 130.599 109.131 130.623 109.131C130.647 109.131 130.67 109.122 130.687 109.106L131.613 108.178V109.221C131.613 109.245 131.622 109.268 131.639 109.284C131.656 109.301 131.679 109.311 131.703 109.311C131.727 109.311 131.749 109.301 131.766 109.284C131.783 109.268 131.793 109.245 131.793 109.221V108.178L132.72 109.106C132.737 109.122 132.76 109.131 132.784 109.131C132.808 109.131 132.831 109.122 132.848 109.106C132.865 109.088 132.874 109.065 132.874 109.042C132.874 109.018 132.865 108.995 132.848 108.978L131.921 108.05H132.963C132.987 108.05 133.01 108.041 133.027 108.024C133.044 108.007 133.053 107.984 133.053 107.96C133.052 107.937 133.042 107.916 133.025 107.9C133.008 107.884 132.986 107.875 132.963 107.875Z" fill="#15B8DB"/>
<path d="M136.745 107.875H135.702L136.63 106.95C136.646 106.933 136.655 106.91 136.655 106.886C136.655 106.862 136.646 106.839 136.63 106.822C136.621 106.813 136.611 106.807 136.6 106.802C136.589 106.798 136.578 106.795 136.566 106.795C136.554 106.795 136.542 106.798 136.531 106.802C136.52 106.807 136.51 106.813 136.502 106.822L135.574 107.749V106.705C135.574 106.681 135.565 106.658 135.548 106.641C135.531 106.624 135.508 106.615 135.484 106.615C135.461 106.615 135.438 106.625 135.421 106.642C135.404 106.658 135.395 106.681 135.394 106.705V107.749L134.469 106.816C134.46 106.808 134.45 106.801 134.439 106.797C134.428 106.792 134.417 106.79 134.405 106.79C134.393 106.79 134.381 106.792 134.37 106.797C134.359 106.801 134.349 106.808 134.341 106.816C134.324 106.834 134.315 106.856 134.315 106.88C134.315 106.904 134.324 106.927 134.341 106.944L135.268 107.87H134.224C134.2 107.87 134.177 107.88 134.161 107.897C134.144 107.914 134.134 107.936 134.134 107.96C134.134 107.984 134.143 108.007 134.16 108.024C134.177 108.041 134.2 108.05 134.224 108.05H135.268L134.341 108.978C134.324 108.995 134.315 109.018 134.315 109.042C134.315 109.065 134.324 109.088 134.341 109.106C134.358 109.122 134.381 109.131 134.405 109.131C134.428 109.131 134.451 109.122 134.469 109.106L135.394 108.178V109.221C135.394 109.245 135.404 109.268 135.421 109.284C135.438 109.301 135.46 109.311 135.484 109.311C135.508 109.311 135.531 109.301 135.548 109.284C135.565 109.268 135.574 109.245 135.574 109.221V108.178L136.502 109.106C136.519 109.122 136.542 109.131 136.566 109.131C136.589 109.131 136.612 109.122 136.63 109.106C136.646 109.088 136.655 109.065 136.655 109.042C136.655 109.018 136.646 108.995 136.63 108.978L135.702 108.05H136.745C136.769 108.05 136.792 108.041 136.808 108.024C136.825 108.007 136.835 107.984 136.835 107.96C136.833 107.937 136.823 107.916 136.807 107.9C136.79 107.884 136.768 107.875 136.745 107.875Z" fill="#15B8DB"/>
<path d="M165.735 129.785C165.73 129.567 165.703 129.351 165.654 129.138C165.492 128.53 165.127 127.793 164.525 127.609C163.904 127.419 163.304 127.166 162.735 126.853C162.627 124.922 163.07 122.946 162.588 121.075C162.407 120.391 162.11 119.735 162.031 119.035C161.932 118.163 162.17 117.234 161.822 116.43C161.549 115.796 160.947 115.35 160.301 115.116C159.654 114.881 158.957 114.818 158.271 114.755C157.407 114.685 154.608 114.354 153.632 115.126C153.565 115.179 153.505 115.239 153.452 115.306V115.306C153.431 115.336 153.411 115.367 153.395 115.4L153.386 115.415C153.366 115.452 153.35 115.491 153.337 115.532V115.532C153.323 115.576 153.313 115.621 153.306 115.667C153.306 115.681 153.306 115.696 153.306 115.71C153.306 115.724 153.306 115.773 153.306 115.805V115.854C153.306 115.886 153.306 115.919 153.306 115.953C153.306 115.987 153.306 115.978 153.306 115.991C153.319 116.153 153.342 116.315 153.342 116.475C153.344 116.555 153.337 116.635 153.321 116.713C153.261 116.926 153.159 117.124 153.022 117.297V117.297L152.99 117.343C152.97 117.372 152.95 117.399 152.932 117.428C152.914 117.457 152.899 117.479 152.885 117.504C152.871 117.529 152.856 117.545 152.844 117.569C152.826 117.598 152.811 117.629 152.797 117.66C152.797 117.678 152.777 117.695 152.77 117.713C152.747 117.761 152.729 117.812 152.716 117.864C152.674 118.02 152.67 118.185 152.705 118.343C152.754 118.545 152.837 118.737 152.952 118.91C152.997 118.984 153.045 119.056 153.096 119.128L153.222 119.299C153.198 119.466 153.186 119.635 153.184 119.804C153.184 120.368 153.312 120.924 153.559 121.432C153.805 121.939 154.163 122.384 154.607 122.732C154.678 123.493 154.67 124.259 154.583 125.018C154.567 125.176 154.547 125.336 154.526 125.495C154.504 125.653 154.488 125.758 154.466 125.889C154.203 125.927 153.934 125.907 153.679 125.83C153.562 125.778 153.441 125.731 153.319 125.691C152.795 125.56 152.26 126.082 151.742 125.924C151.742 125.949 151.727 125.972 151.718 125.996C151.61 125.928 151.485 125.892 151.358 125.889C151.05 125.875 150.8 125.652 150.576 125.441L149.89 124.794C149.846 124.755 149.806 124.71 149.772 124.661C149.735 124.591 149.707 124.517 149.689 124.44C149.573 124.067 149.294 123.77 149.024 123.487C148.973 123.422 148.905 123.373 148.828 123.345C148.798 123.34 148.768 123.34 148.738 123.345C148.72 123.319 148.7 123.295 148.678 123.272C148.632 123.219 148.582 123.168 148.529 123.121C148.201 122.819 148.169 122.559 147.884 122.221C147.636 121.898 147.411 121.558 147.211 121.203C147.187 121.014 147.155 120.819 147.115 120.623C147.025 120.174 146.893 119.734 146.721 119.308L146.361 118.511L146.319 118.552C146.058 118.163 145.779 117.95 145.529 118.001C145.109 118.087 144.902 118.901 144.969 119.966L145.113 121.046C145.113 121.073 145.126 121.1 145.133 121.127C145.107 121.256 145.094 121.386 145.093 121.516C145.093 121.668 145.234 121.779 145.307 121.914C145.426 122.097 145.488 122.311 145.488 122.529C145.479 122.606 145.455 122.68 145.452 122.756C145.461 122.925 145.52 123.087 145.621 123.224L146.521 124.737L146.701 125.054L146.712 125.068C146.769 125.179 146.852 125.274 146.953 125.345C146.989 125.724 147.089 126.094 147.25 126.439C147.281 126.507 147.315 126.572 147.351 126.637C147.593 127.035 147.878 127.405 148.201 127.741L148.63 128.222C149.053 128.694 149.476 129.167 149.935 129.603C150.1 129.778 150.298 129.917 150.519 130.012C150.627 130.055 150.744 130.069 150.859 130.052C150.975 130.036 151.083 129.989 151.174 129.917C151.174 130.14 151.174 130.363 151.174 130.587C151.241 130.591 151.306 130.613 151.361 130.65C151.417 130.687 151.461 130.739 151.49 130.799C151.519 130.86 151.532 130.927 151.526 130.993C151.521 131.06 151.497 131.124 151.459 131.179C151.081 132.15 150.699 133.13 150.126 133.999C150.531 134.239 150.905 134.525 151.243 134.851C151.462 135.094 151.657 135.358 151.824 135.638C151.841 135.772 151.853 135.903 151.86 136.035C151.994 138.181 151.164 140.312 150.42 142.358C150.206 142.938 149.971 143.545 149.989 144.148C149.848 144.235 149.714 144.332 149.586 144.438C149.734 144.824 149.676 145.168 149.66 145.58C149.655 145.827 149.604 146.072 149.51 146.301C149.432 146.459 149.346 146.614 149.251 146.763C148.785 147.587 148.682 148.565 148.588 149.505C148.533 150.072 148.752 150.765 148.495 151.273C148.05 152.145 147.656 153.074 147.594 154.043C147.592 154.261 147.564 154.478 147.512 154.69C147.456 154.87 147.357 155.023 147.306 155.2C147.254 155.436 147.242 155.679 147.27 155.92C147.305 156.783 147.176 157.645 146.892 158.461C146.667 159.104 146.419 159.792 146.595 160.453C146.161 160.91 145.892 161.499 145.833 162.126C145.829 162.287 145.809 162.447 145.776 162.604C145.721 162.764 145.648 162.918 145.56 163.063C145.197 163.723 145.027 164.472 145.07 165.224C144.53 165.957 144.259 166.861 144.099 167.76C143.939 168.659 143.869 169.574 143.663 170.462C143.39 171.636 142.894 172.823 142.797 174.026C142.214 174.399 141.962 175.121 141.85 175.803C141.738 176.486 141.72 177.203 141.434 177.833C141.286 178.161 141.074 178.455 140.933 178.79C140.835 179.056 140.763 179.332 140.717 179.613C140.631 180.052 140.555 180.542 140.661 180.963C140.509 181.125 140.33 181.261 140.134 181.365C140.163 181.253 140.186 181.142 140.206 181.028C139.741 181.45 138.899 181.302 138.528 181.808C138.416 181.971 138.373 182.171 138.406 182.366C138.44 182.561 138.548 182.735 138.708 182.851C138.824 182.922 138.949 182.976 139.08 183.011C139.981 183.299 140.906 183.589 141.832 183.436C141.941 183.424 142.047 183.391 142.144 183.337C142.264 183.249 142.363 183.134 142.433 183.002C142.572 182.782 142.711 182.563 142.848 182.343C143.179 182.442 143.517 182.521 143.858 182.579C143.892 182.867 143.917 183.155 143.93 183.443C144.11 183.48 144.351 183.49 144.436 183.323C144.462 183.259 144.472 183.191 144.466 183.123C144.466 182.995 144.485 182.826 144.495 182.653H144.531C145.081 182.675 145.627 182.564 146.125 182.33C145.932 180.735 146.568 179.175 147.119 177.666C147.701 176.077 148.199 174.46 148.702 172.843C149.062 171.704 149.46 170.602 149.813 169.462C150.257 168.021 150.703 166.58 151.151 165.139C151.345 164.506 151.542 163.879 151.765 163.248C152.235 161.973 152.793 160.731 153.434 159.533C153.614 159.192 153.794 158.856 153.942 158.503C154.122 158.072 154.25 157.622 154.394 157.177C154.708 156.264 155.086 155.375 155.525 154.515C155.538 154.492 155.547 154.47 155.559 154.449C155.705 155.045 155.851 155.65 155.948 156.25C156.08 156.985 156.09 157.737 155.979 158.476C155.892 158.978 155.728 159.475 155.748 159.985C155.775 160.689 156.152 161.328 156.337 162.007C156.457 162.516 156.524 163.035 156.539 163.556C156.589 164.367 157.029 165.276 156.719 166.027C155.755 168.407 156.222 171.094 155.673 173.592C155.39 174.874 154.524 176.079 154.592 177.39C154.64 178.321 154.722 179.249 154.837 180.175C154.865 180.467 154.941 180.752 155.062 181.019C155.134 181.16 155.217 181.295 155.309 181.423C155.23 181.453 155.163 181.534 155.105 181.705C154.958 182.156 155.105 182.714 155.505 182.966C155.668 183.053 155.844 183.114 156.026 183.146C156.27 183.216 156.524 183.251 156.778 183.251C156.858 183.246 156.936 183.237 157.014 183.222C157.293 183.339 157.577 183.441 157.866 183.528C157.866 183.602 157.88 183.676 157.889 183.75C157.89 183.788 157.898 183.826 157.915 183.861C157.931 183.896 157.954 183.928 157.983 183.953C158.028 183.974 158.078 183.983 158.127 183.978H159.105C159.105 183.897 159.105 183.814 159.105 183.733C159.217 183.745 159.33 183.733 159.437 183.698C159.544 183.664 159.642 183.607 159.726 183.532C159.813 183.421 159.874 183.294 159.906 183.157C160.173 182.253 160.437 181.348 160.7 180.443C161.016 179.442 161.147 178.393 161.088 177.345C160.74 174.026 161.504 170.696 161.255 167.367C161.105 165.367 161.208 163.356 161.561 161.381C161.642 160.934 161.741 160.48 161.777 160.035C161.856 159.196 161.759 158.348 161.819 157.514C161.838 157.222 161.878 156.932 161.914 156.642C162.161 154.842 162.29 153.029 162.301 151.212C162.296 150.61 162.258 150.009 162.19 149.411C162.377 149.363 162.548 149.263 162.681 149.123C162.841 148.914 162.8 148.62 162.798 148.354C162.798 147.716 163.067 147.115 163.283 146.513C163.56 145.683 163.787 144.838 163.963 143.981C164.149 143.29 164.251 142.58 164.266 141.865C164.266 141.793 164.262 141.721 164.255 141.649C164.323 141.601 164.38 141.54 164.421 141.468C164.468 141.363 164.497 141.25 164.507 141.135C164.572 140.676 164.639 140.215 164.703 139.754C164.751 139.424 164.799 139.094 164.846 138.765L165.418 134.769C165.467 134.421 165.517 134.075 165.566 133.729L165.716 132.696C165.732 132.573 165.75 132.451 165.762 132.335C166.202 131.6 165.782 130.621 165.735 129.785ZM160.958 144.748C160.745 144.244 160.547 143.727 160.598 143.183H160.578C160.625 143.016 160.617 142.837 160.555 142.675C160.499 142.544 160.401 142.432 160.342 142.3C160.278 142.14 160.245 141.969 160.245 141.796C160.2 140.701 160.287 139.604 160.502 138.529C160.526 138.403 160.551 138.275 160.574 138.149C160.65 138.105 160.719 138.051 160.78 137.989C160.874 137.881 160.953 137.759 161.012 137.629C161.215 137.22 161.401 136.804 161.572 136.38C161.628 136.244 161.709 136.085 161.847 136.051C161.819 137.104 161.927 138.18 161.498 139.131C161.417 139.284 161.356 139.448 161.318 139.617C161.278 139.885 161.39 140.157 161.35 140.424C161.331 140.562 161.271 140.69 161.248 140.827C161.23 140.894 161.23 140.965 161.249 141.032C161.267 141.099 161.303 141.16 161.352 141.209C161.376 141.226 161.402 141.239 161.43 141.249C161.419 141.321 161.41 141.395 161.403 141.465C161.388 141.612 161.381 141.751 161.372 141.838C161.331 142.278 161.314 142.721 161.323 143.163C161.323 143.64 161.341 144.118 161.334 144.604C161.341 144.744 161.318 144.883 161.266 145.013C161.23 145.08 161.184 145.141 161.129 145.193C161.077 145.031 161.019 144.889 160.958 144.748Z" fill="url(#paint0_linear)"/>
<path d="M146.743 123.851C147.293 123.738 147.48 122.385 147.161 120.829C146.842 119.273 146.138 118.102 145.589 118.215C145.039 118.328 144.852 119.681 145.171 121.237C145.49 122.793 146.194 123.963 146.743 123.851Z" fill="#FBBEBE"/>
<path d="M155.134 181.74C154.987 182.186 155.134 182.745 155.534 182.988C155.696 183.074 155.87 183.135 156.051 183.168C156.295 183.237 156.548 183.272 156.802 183.271C157.113 183.256 157.412 183.134 157.724 183.09C157.76 183.081 157.798 183.087 157.83 183.105C157.846 183.122 157.857 183.142 157.864 183.163C157.871 183.185 157.873 183.208 157.87 183.231C157.873 183.408 157.886 183.585 157.909 183.76C157.909 183.799 157.918 183.837 157.934 183.872C157.95 183.907 157.974 183.939 158.003 183.964C158.048 183.985 158.098 183.994 158.147 183.989H159.123C159.145 183.132 159.051 182.275 158.844 181.443C158.83 181.379 158.806 181.318 158.772 181.262C158.689 181.172 158.58 181.109 158.46 181.082C158.222 180.983 157.964 180.938 157.706 180.951C157.391 180.992 157.128 181.196 156.859 181.365C156.591 181.534 156.226 181.684 155.9 181.597C155.574 181.511 155.302 181.239 155.134 181.74Z" fill="#3F3D56"/>
<path d="M140.804 180.949C140.529 181.243 140.193 181.472 139.819 181.619L139.653 181.698C139.63 181.707 139.611 181.723 139.597 181.743C139.594 181.757 139.594 181.772 139.597 181.786C139.6 181.8 139.606 181.813 139.615 181.824C139.753 182.038 139.957 182.2 140.195 182.287C140.434 182.374 140.694 182.38 140.937 182.305C141.044 182.278 141.144 182.227 141.227 182.154C141.364 181.991 141.443 181.787 141.45 181.574C141.505 181.354 141.495 181.124 141.423 180.909C141.173 180.346 141.081 180.601 140.804 180.949Z" fill="#FBBEBE"/>
<path d="M144.546 183.168C144.551 183.236 144.541 183.305 144.515 183.368C144.43 183.534 144.195 183.525 144.011 183.489C143.983 182.877 143.909 182.269 143.789 181.669C143.44 181.653 143.188 181.985 143.001 182.282L142.518 183.047C142.448 183.179 142.35 183.294 142.23 183.382C142.133 183.435 142.028 183.469 141.918 183.481C140.996 183.634 140.065 183.344 139.176 183.056C139.045 183.021 138.919 182.968 138.803 182.898C138.644 182.781 138.537 182.608 138.503 182.414C138.47 182.219 138.513 182.02 138.623 181.857C138.996 181.352 139.833 181.497 140.298 181.079C140.249 181.373 140.17 181.661 140.06 181.938C140.681 181.844 141.099 181.275 141.6 180.895C141.725 180.788 141.877 180.716 142.039 180.686C142.16 180.676 142.283 180.689 142.399 180.724C142.976 180.869 143.517 181.135 143.984 181.504C144.173 181.653 144.468 181.864 144.551 182.094C144.639 182.37 144.546 182.874 144.546 183.168Z" fill="#3F3D56"/>
<path d="M156.933 123.744C158.988 123.744 160.654 122.078 160.654 120.023C160.654 117.968 158.988 116.302 156.933 116.302C154.878 116.302 153.213 117.968 153.213 120.023C153.213 122.078 154.878 123.744 156.933 123.744Z" fill="#FBBEBE"/>
<path d="M164.262 141.993C164.247 142.704 164.146 143.411 163.962 144.098C163.785 144.951 163.558 145.793 163.281 146.619C163.067 147.219 162.798 147.821 162.8 148.456C162.8 148.721 162.843 149.015 162.681 149.224C162.537 149.37 162.355 149.474 162.155 149.524C162.056 149.551 161.964 149.6 161.887 149.669C161.81 149.737 161.75 149.823 161.712 149.919C161.543 149.666 161.417 149.388 161.338 149.094C161.015 148.105 160.715 147.11 160.437 146.11C160.412 146.052 160.401 145.989 160.406 145.926C160.41 145.864 160.43 145.803 160.463 145.749C160.508 145.71 160.562 145.68 160.619 145.661C160.804 145.586 160.973 145.477 161.118 145.341C161.186 145.28 161.242 145.207 161.284 145.126C161.336 144.997 161.36 144.858 161.354 144.719C161.354 144.242 161.354 143.767 161.341 143.289C161.334 142.849 161.351 142.408 161.392 141.969C161.392 141.883 161.408 141.744 161.423 141.596C161.45 141.314 161.504 140.986 161.657 140.876C161.885 140.723 162.57 140.928 162.829 140.964C163.275 141.025 163.729 141.097 164.165 141.182C164.228 141.448 164.261 141.72 164.262 141.993Z" fill="#3F3D56"/>
<path d="M149.24 124.189C149.096 124.477 148.751 124.616 148.484 124.798L147.571 125.425C147.51 125.48 147.439 125.522 147.361 125.548C147.283 125.575 147.201 125.586 147.119 125.58C147.045 125.552 146.977 125.51 146.919 125.456C146.861 125.402 146.815 125.337 146.782 125.264C146.783 125.26 146.783 125.255 146.782 125.25L146.593 124.933L145.693 123.424C145.593 123.289 145.535 123.127 145.525 122.959C145.525 122.882 145.552 122.81 145.56 122.732C145.562 122.515 145.499 122.301 145.38 122.12C145.308 121.985 145.163 121.873 145.167 121.722C145.16 121.523 145.195 121.325 145.268 121.14C145.362 120.969 145.498 120.824 145.662 120.719C145.747 120.657 145.833 120.6 145.923 120.539C145.971 120.506 146.024 120.482 146.08 120.467C146.23 120.436 146.377 120.56 146.528 120.566C147.178 121.001 147.429 121.826 147.94 122.421C148.228 122.759 148.257 123.019 148.583 123.321C148.635 123.368 148.686 123.418 148.734 123.471C148.799 123.541 148.853 123.62 148.896 123.705C148.956 123.86 149.314 124.042 149.24 124.189Z" fill="#3F3D56"/>
<path d="M155.626 123.746C155.894 124.314 156.103 124.937 156.026 125.56C156.01 125.729 155.956 125.892 155.869 126.037C155.61 126.435 155.066 126.507 154.592 126.531C154.492 126.522 154.392 126.534 154.297 126.565C154.202 126.596 154.113 126.645 154.038 126.711C153.974 126.803 153.943 126.913 153.95 127.025C153.956 127.136 153.999 127.242 154.072 127.327C154.224 127.489 154.413 127.613 154.623 127.687C155.372 128.016 156.181 128.288 156.994 128.213C157.373 128.177 157.74 128.067 158.116 128.011C158.527 127.967 158.939 127.944 159.352 127.943C159.841 127.925 160.329 127.876 160.817 127.827L162.11 127.699C162.181 127.7 162.25 127.675 162.303 127.629C162.399 127.518 162.276 127.354 162.157 127.269C161.471 126.761 160.598 126.412 160.207 125.648C160.027 125.288 159.971 124.859 159.838 124.47C159.705 124.081 159.492 123.73 159.409 123.334C159.365 122.986 159.345 122.636 159.35 122.286C159.354 121.932 159.226 121.59 158.99 121.327C158.732 121.088 158.359 121.027 158.01 121.012C157.149 120.974 156.233 121.18 155.622 121.787C155.458 121.951 155.318 122.147 155.149 122.295C154.979 122.442 154.749 122.485 154.861 122.68C154.972 122.874 155.192 122.995 155.311 123.166C155.431 123.351 155.536 123.545 155.626 123.746V123.746Z" fill="#FBBEBE"/>
<path d="M162.96 128.985C162.733 130.372 162.364 131.732 161.858 133.043C161.604 133.635 161.388 134.243 161.21 134.862C161.071 135.421 161.098 136.018 160.97 136.579C160.812 137.276 160.654 137.974 160.526 138.677C160.311 139.749 160.225 140.844 160.27 141.937C160.27 142.109 160.303 142.279 160.367 142.439C160.427 142.569 160.522 142.681 160.578 142.814C160.62 142.931 160.637 143.055 160.628 143.179C160.619 143.303 160.585 143.424 160.528 143.534C160.435 143.74 160.31 143.93 160.157 144.096C158.478 144.597 156.683 144.433 154.934 144.539C153.323 144.636 151.693 144.968 150.105 144.692C149.925 143.972 150.225 143.217 150.483 142.515C151.23 140.474 152.057 138.349 151.923 136.211C151.909 135.962 151.881 135.713 151.839 135.467C151.578 133.953 151.862 132.384 152.318 130.916C152.601 130.001 152.588 129.027 152.523 128.074C152.491 127.765 152.487 127.453 152.511 127.143C152.537 126.826 152.654 126.524 152.849 126.273C152.849 126.26 152.865 126.248 152.874 126.235C152.883 126.223 152.953 126.224 153.009 126.235C153.024 126.241 153.039 126.244 153.054 126.244C153.07 126.244 153.085 126.241 153.099 126.235L153.119 126.223C153.127 126.217 153.136 126.214 153.145 126.214C153.155 126.214 153.164 126.217 153.171 126.223C153.213 126.248 153.236 126.334 153.326 126.35C153.459 126.371 153.593 126.383 153.728 126.388C153.89 126.393 154.05 126.416 154.207 126.457H154.228C154.463 126.496 154.703 126.476 154.927 126.397C155.076 126.36 155.22 126.304 155.356 126.232C155.395 126.188 155.644 126.149 155.694 126.118C155.858 126.019 155.822 125.554 155.856 125.363C155.875 125.172 155.921 124.984 155.991 124.805C156.073 124.673 156.187 124.563 156.321 124.485C156.455 124.407 156.607 124.363 156.762 124.357C157.072 124.349 157.382 124.377 157.686 124.44C158.358 124.535 159.045 124.519 159.705 124.674C160.036 124.751 160.398 124.868 160.702 124.717C160.785 124.737 160.798 124.809 160.798 124.897C160.79 124.981 160.773 125.064 160.747 125.144C160.632 125.641 161.023 126.098 161.383 126.459C161.535 126.628 161.715 126.771 161.914 126.882C162.094 126.965 162.274 126.999 162.454 127.089C162.6 127.167 162.724 127.28 162.814 127.418C162.918 127.577 162.988 127.756 163.02 127.943C163.058 128.291 163.038 128.644 162.96 128.985Z" fill="#3F3D56"/>
<path opacity="0.1" d="M162.96 128.985C162.733 130.372 162.364 131.732 161.858 133.043C161.604 133.635 161.388 134.243 161.21 134.862C161.071 135.421 161.098 136.018 160.971 136.579C160.812 137.276 160.654 137.974 160.526 138.677C160.488 138.698 160.448 138.718 160.409 138.736C160.185 138.843 159.947 138.92 159.703 138.963C159.264 139.016 158.819 139.002 158.385 138.92L155.815 138.576C154.788 138.437 153.695 138.27 152.934 137.575C152.511 137.193 152.233 136.688 151.929 136.202C151.915 135.953 151.887 135.704 151.844 135.458C151.583 133.944 151.868 132.375 152.323 130.907C152.606 129.992 152.593 129.018 152.529 128.065C152.496 127.756 152.492 127.444 152.516 127.134C152.542 126.817 152.66 126.515 152.854 126.264C152.907 126.249 152.961 126.237 153.015 126.228V126.228C153.051 126.221 153.088 126.216 153.125 126.214H153.177C153.237 126.214 153.298 126.221 153.357 126.235C153.48 126.274 153.6 126.321 153.717 126.374H153.739C153.893 126.425 154.055 126.448 154.218 126.442C154.455 126.442 154.7 126.404 154.938 126.388C155.232 126.342 155.532 126.396 155.792 126.541C155.959 126.676 156.118 126.821 156.267 126.975C156.447 127.117 156.65 127.227 156.867 127.301C158.417 127.893 160.136 127.857 161.66 127.201C161.807 127.117 161.973 127.075 162.141 127.078C162.265 127.102 162.383 127.153 162.487 127.226C162.595 127.289 162.701 127.35 162.811 127.406C162.915 127.565 162.985 127.743 163.016 127.93C163.057 128.282 163.039 128.639 162.96 128.985V128.985Z" fill="black"/>
<path d="M164.529 127.793C163.812 127.574 163.123 127.272 162.476 126.893C162.372 126.82 162.254 126.77 162.13 126.745C161.961 126.743 161.795 126.785 161.648 126.867C160.124 127.524 158.405 127.56 156.856 126.968C156.639 126.893 156.437 126.783 156.256 126.642C156.106 126.488 155.948 126.343 155.781 126.208C155.188 125.825 154.369 126.275 153.706 126.028C153.589 125.976 153.468 125.929 153.346 125.889C152.822 125.758 152.289 126.28 151.774 126.122C151.582 126.643 151.441 127.181 151.351 127.728C151.278 128.357 151.239 128.99 151.234 129.623C151.234 130.003 151.216 130.383 151.234 130.763C151.297 130.773 151.358 130.797 151.412 130.832C151.466 130.867 151.512 130.913 151.547 130.967C151.571 131.029 151.58 131.096 151.575 131.163C151.57 131.23 151.551 131.295 151.518 131.354C151.142 132.321 150.76 133.299 150.189 134.165C150.592 134.405 150.965 134.69 151.302 135.015C151.932 135.682 152.242 136.616 152.923 137.232C153.69 137.926 154.783 138.095 155.804 138.232L158.374 138.576C158.809 138.657 159.254 138.673 159.694 138.621C159.938 138.576 160.174 138.5 160.398 138.392C160.544 138.331 160.677 138.243 160.79 138.133C160.885 138.025 160.964 137.904 161.023 137.773C161.226 137.366 161.412 136.95 161.583 136.528C161.642 136.379 161.732 136.204 161.894 136.191C162.849 135.33 163.749 134.448 164.704 133.587C165.087 133.269 165.431 132.906 165.728 132.506C166.202 131.806 165.771 130.813 165.728 129.967C165.723 129.75 165.696 129.535 165.647 129.324C165.492 128.71 165.129 127.975 164.529 127.793Z" fill="#15B8DB"/>
<path opacity="0.1" d="M149.24 124.189C149.096 124.477 148.75 124.616 148.484 124.798L147.571 125.425C147.51 125.48 147.438 125.522 147.361 125.548C147.283 125.575 147.201 125.586 147.119 125.58C147.045 125.552 146.977 125.51 146.919 125.456C146.861 125.402 146.815 125.337 146.782 125.264C146.782 125.223 146.782 125.178 146.782 125.135C146.775 124.989 146.795 124.843 146.84 124.704C146.929 124.501 147.068 124.322 147.243 124.186C147.582 123.865 147.985 123.619 148.426 123.465C148.495 123.438 148.57 123.431 148.642 123.444C148.67 123.451 148.697 123.462 148.722 123.478C148.786 123.548 148.841 123.627 148.884 123.712C148.956 123.86 149.314 124.042 149.24 124.189Z" fill="black"/>
<path d="M151.39 126.088C151.084 126.073 150.834 125.852 150.611 125.641L149.928 125.007C149.883 124.968 149.843 124.923 149.809 124.874C149.773 124.804 149.745 124.729 149.727 124.652C149.582 124.288 149.355 123.963 149.064 123.701C149.013 123.637 148.945 123.588 148.868 123.561C148.794 123.547 148.719 123.555 148.65 123.582C148.209 123.736 147.805 123.981 147.467 124.303C147.291 124.44 147.153 124.618 147.063 124.821C147.018 124.96 146.998 125.106 147.006 125.252C147.01 125.728 147.117 126.197 147.319 126.628C147.35 126.694 147.384 126.761 147.42 126.826C147.66 127.223 147.944 127.592 148.266 127.926L148.695 128.405C149.116 128.877 149.537 129.349 149.995 129.783C150.159 129.958 150.358 130.097 150.578 130.19C150.689 130.236 150.81 130.249 150.928 130.23C151.047 130.211 151.157 130.16 151.248 130.082C151.334 129.982 151.399 129.866 151.439 129.74C151.716 129.02 151.979 128.27 151.996 127.494C151.999 127.183 151.986 126.872 151.956 126.563C151.929 126.235 151.697 126.107 151.39 126.088Z" fill="#15B8DB"/>
<path d="M162.303 151.302C162.293 153.114 162.164 154.923 161.918 156.718C161.882 157.008 161.842 157.298 161.822 157.588C161.763 158.429 161.86 159.274 161.781 160.109C161.74 160.561 161.646 161.01 161.567 161.451C161.215 163.42 161.112 165.426 161.261 167.421C161.509 170.741 160.747 174.062 161.093 177.372C161.135 178.016 161.099 178.662 160.987 179.297C160.922 179.692 160.829 180.081 160.708 180.461C160.445 181.363 160.181 182.263 159.915 183.163C159.884 183.299 159.823 183.427 159.735 183.537C159.643 183.617 159.536 183.676 159.419 183.71C159.303 183.744 159.18 183.754 159.06 183.737C158.021 183.705 157.043 183.256 156.1 182.819C155.991 182.776 155.891 182.715 155.802 182.638C155.606 182.435 155.622 182.114 155.536 181.846C155.449 181.578 155.215 181.325 155.082 181.05C154.973 180.789 154.906 180.512 154.886 180.23C154.766 179.308 154.684 178.383 154.641 177.453C154.572 176.146 155.437 174.943 155.721 173.671C156.262 171.171 155.804 168.491 156.764 166.119C157.067 165.37 156.627 164.462 156.584 163.655C156.568 163.135 156.501 162.617 156.382 162.11C156.202 161.433 155.822 160.795 155.795 160.093C155.775 159.585 155.939 159.09 156.024 158.589C156.136 157.852 156.126 157.102 155.993 156.368C155.898 155.763 155.752 155.158 155.606 154.567L155.574 154.634C155.135 155.492 154.758 156.379 154.445 157.291C154.301 157.732 154.174 158.182 153.994 158.611C153.847 158.971 153.665 159.301 153.487 159.639C152.847 160.833 152.291 162.07 151.821 163.34C151.598 163.963 151.401 164.601 151.207 165.226L149.872 169.548C149.512 170.685 149.118 171.784 148.765 172.918C148.266 174.539 147.767 176.146 147.188 177.731C146.647 179.234 146.004 180.792 146.197 182.381C145.701 182.614 145.155 182.725 144.607 182.703C143.679 182.621 142.768 182.4 141.906 182.048C141.562 181.92 141.205 181.776 140.973 181.493C140.573 181.005 140.672 180.29 140.793 179.669C140.838 179.388 140.911 179.113 141.009 178.847C141.146 178.516 141.369 178.222 141.51 177.894C141.792 177.266 141.81 176.555 141.922 175.872C142.034 175.189 142.282 174.469 142.866 174.098C142.965 172.898 143.458 171.715 143.73 170.543C143.935 169.655 144.004 168.742 144.166 167.841C144.328 166.941 144.589 166.04 145.133 165.311C145.09 164.558 145.26 163.809 145.623 163.149C145.71 163.004 145.782 162.85 145.837 162.69C145.871 162.534 145.89 162.375 145.895 162.215C145.954 161.589 146.222 161.001 146.654 160.545C146.474 159.888 146.725 159.201 146.95 158.564C147.233 157.75 147.362 156.891 147.328 156.03C147.3 155.789 147.312 155.546 147.362 155.309C147.413 155.129 147.512 154.976 147.569 154.803C147.621 154.592 147.648 154.375 147.65 154.157C147.721 153.182 148.115 152.264 148.551 151.394C148.81 150.886 148.59 150.196 148.644 149.631C148.738 148.691 148.841 147.718 149.307 146.899C149.393 146.744 149.487 146.596 149.565 146.436C149.658 146.207 149.709 145.963 149.714 145.715C149.73 145.303 149.788 144.961 149.64 144.577C150.604 143.776 151.918 143.55 153.171 143.496C154.425 143.442 155.693 143.556 156.919 143.289C157.279 143.208 157.639 143.097 158.019 143.043C158.882 142.916 159.757 143.113 160.609 143.307C160.549 143.848 160.747 144.366 160.969 144.869C161.834 146.904 162.287 149.091 162.303 151.302V151.302Z" fill="#33313F"/>
<path opacity="0.1" d="M158.062 151.715L155.993 156.368C155.898 155.763 155.752 155.158 155.606 154.567L155.574 154.634V154.537L156.701 152.057L158.062 151.715Z" fill="black"/>
<path opacity="0.1" d="M164.262 141.992C164.143 142.082 164 142.135 163.852 142.146C163.624 142.154 163.396 142.123 163.178 142.054L161.558 141.648C161.507 141.636 161.457 141.618 161.41 141.596C161.437 141.314 161.491 140.986 161.644 140.876C161.873 140.723 162.557 140.928 162.816 140.964C163.263 141.025 163.717 141.097 164.152 141.182C164.22 141.447 164.257 141.719 164.262 141.992V141.992Z" fill="black"/>
<path d="M165.633 131.276C165.667 131.426 165.716 131.573 165.744 131.725C165.793 132.096 165.78 132.473 165.707 132.84L165.559 133.87L165.411 134.905L164.84 138.891L164.7 139.878L164.502 141.256C164.492 141.371 164.463 141.483 164.415 141.587C164.356 141.685 164.274 141.767 164.176 141.825C164.077 141.883 163.966 141.916 163.852 141.92C163.624 141.928 163.396 141.897 163.178 141.829L161.558 141.422C161.487 141.409 161.419 141.381 161.359 141.341C161.31 141.292 161.274 141.231 161.256 141.165C161.238 141.098 161.237 141.027 161.255 140.961C161.278 140.824 161.338 140.696 161.358 140.559C161.397 140.292 161.286 140.019 161.325 139.754C161.364 139.585 161.425 139.422 161.505 139.269C162.046 138.075 161.732 136.681 161.916 135.385C162.081 134.364 162.512 133.405 163.166 132.604C163.569 132.098 164.032 131.643 164.545 131.249C164.747 131.093 165.067 130.77 165.321 130.709C165.647 130.641 165.579 131.049 165.633 131.276Z" fill="#15B8DB"/>
<path d="M153.368 115.762C153.249 116.14 153.434 116.556 153.35 116.942C153.258 117.367 152.858 117.662 152.745 118.089C152.565 118.739 153.116 119.332 153.519 119.872C155.014 121.878 154.817 124.656 154.306 127.103C153.894 129.067 153.325 130.994 152.604 132.867C152.379 133.448 152.131 134.039 151.688 134.475C152.516 134.237 153.396 133.998 154.227 134.228C155.278 134.52 156.186 135.541 157.252 135.309C157.893 135.167 158.343 134.597 158.919 134.282C160 133.701 161.302 134.066 162.507 134.253C162.766 134.315 163.038 134.301 163.29 134.214C163.483 134.11 163.646 133.96 163.765 133.776C164.303 133.086 164.625 132.253 164.691 131.381C164.719 130.946 164.655 130.511 164.503 130.103C164.35 129.696 164.113 129.325 163.807 129.016C163.551 128.775 163.245 128.58 163.049 128.296C162.858 127.963 162.755 127.587 162.751 127.204C162.609 125.223 163.092 123.2 162.595 121.284C162.415 120.602 162.121 119.948 162.042 119.249C161.943 118.379 162.179 117.448 161.833 116.652C161.561 116.02 160.962 115.571 160.315 115.341C159.669 115.11 158.977 115.045 158.291 114.981C157.304 114.898 153.78 114.474 153.368 115.762Z" fill="#33313F"/>
<g opacity="0.1">
<path opacity="0.1" d="M154.306 127.103C153.896 129.059 153.33 130.978 152.613 132.843C152.737 132.596 152.842 132.337 152.941 132.08C153.663 130.208 154.232 128.28 154.643 126.316C155.156 123.867 155.352 121.093 153.857 119.085C153.497 118.606 153.035 118.087 153.051 117.525C152.918 117.695 152.814 117.887 152.745 118.091C152.565 118.741 153.116 119.334 153.519 119.874C155.014 121.878 154.817 124.656 154.306 127.103Z" fill="black"/>
<path opacity="0.1" d="M153.371 116.76C153.516 116.58 153.623 116.374 153.688 116.153C153.716 115.885 153.709 115.615 153.667 115.35C153.528 115.454 153.424 115.598 153.368 115.762C153.261 116.081 153.384 116.427 153.371 116.76Z" fill="black"/>
<path opacity="0.1" d="M164.104 132.984C163.985 133.167 163.821 133.317 163.628 133.42C163.377 133.509 163.105 133.522 162.845 133.459C161.64 133.279 160.324 132.908 159.258 133.49C158.68 133.803 158.232 134.372 157.589 134.516C156.524 134.754 155.617 133.733 154.565 133.436C153.82 133.229 153.035 133.4 152.284 133.616C152.134 133.934 151.933 134.225 151.688 134.477C152.516 134.239 153.396 134 154.227 134.23C155.278 134.522 156.186 135.543 157.252 135.311C157.893 135.168 158.343 134.599 158.919 134.284C160 133.702 161.302 134.068 162.507 134.255C162.766 134.317 163.038 134.303 163.29 134.216C163.483 134.112 163.646 133.961 163.765 133.778C164.092 133.347 164.344 132.865 164.511 132.352C164.39 132.572 164.254 132.783 164.104 132.984Z" fill="black"/>
</g>
<path d="M113.567 13.8392L102.325 24.9207L97.6432 20.3062L96.0714 21.8556L101.539 27.2448L102.325 27.9859L103.111 27.2448L115.139 15.3886L113.567 13.8392Z" fill="#15B8DB"/>
<path d="M123.465 5.06171C117.875 1.74834 111.497 0 104.998 0C98.5003 0 92.1218 1.74834 86.5318 5.06171C85.5425 8.1872 85 12.2704 85 15.7858C85 28.0257 91.5487 39.1961 100.9 43.8424C102.216 44.4974 103.588 45.0344 104.999 45.4477C106.411 45.0347 107.784 44.4971 109.1 43.8414C118.449 39.1958 125 28.0251 125 15.7858C125 12.2704 124.453 8.1872 123.465 5.06171ZM111.271 32.4457L109.1 34.5978L104.999 37.5194L100.9 34.5978L98.7296 32.4371C94.8688 28.2238 92.0297 22.268 92.0297 15.7858C92.0281 14.0241 92.2032 12.2666 92.5525 10.5398C96.4451 8.70484 100.695 7.75329 104.999 7.75329C109.302 7.75329 113.553 8.70484 117.445 10.5398C117.796 12.2664 117.972 14.024 117.971 15.7858C117.971 22.2724 115.136 28.2315 111.271 32.4457Z" fill="#15B8DB"/>
</g>
<defs>
<linearGradient id="paint0_linear" x1="138.407" y1="149.299" x2="165.959" y2="149.299" gradientUnits="userSpaceOnUse">
<stop stop-color="#808080" stop-opacity="0.25"/>
<stop offset="0.54" stop-color="#808080" stop-opacity="0.12"/>
<stop offset="1" stop-color="#808080" stop-opacity="0.1"/>
</linearGradient>
<clipPath id="clip0">
<rect width="210" height="184" fill="white"/>
</clipPath>
</defs>
</svg>
