<svg width="20" height="25" viewBox="0 0 20 25" fill="none" xmlns="http://www.w3.org/2000/svg">
<path d="M2.14291 0H15C16.1835 0 17.1429 1.19924 17.1429 2.67857C17.1429 3.1717 16.8231 3.57144 16.4286 3.57144C16.0341 3.57144 15.7143 3.1717 15.7143 2.67857C15.7143 2.18544 15.3945 1.7857 15 1.7857H2.14291C1.74841 1.7857 1.42861 2.18544 1.42861 2.67857V18.75C1.42861 19.2431 1.74841 19.6429 2.14291 19.6429C2.53742 19.6429 2.85721 20.0426 2.85721 20.5357C2.85721 21.0289 2.53742 21.4286 2.14291 21.4286C0.959446 21.4286 5.91278e-05 20.2294 5.91278e-05 18.75V2.67857C5.91278e-05 1.19924 0.959446 0 2.14291 0Z" fill="#141414"/>
<path d="M5.71431 4.46423H17.8571C19.0406 4.46423 20 5.66347 20 7.1428V22.3213C20 23.8007 19.0406 24.9999 17.8571 24.9999H5.71431C4.53084 24.9999 3.57146 23.8007 3.57146 22.3213V7.1428C3.57146 5.66347 4.53084 4.46423 5.71431 4.46423ZM5.00001 22.3214C5.00001 22.8145 5.31981 23.2143 5.71431 23.2143H17.8571C18.2516 23.2143 18.5714 22.8145 18.5714 22.3214V7.1428C18.5714 6.64967 18.2516 6.24993 17.8571 6.24993H5.71431C5.31981 6.24993 5.00001 6.64967 5.00001 7.1428V22.3214Z" fill="#141414"/>
</svg>
