<svg width="25" height="25" viewBox="0 0 25 25" fill="none" xmlns="http://www.w3.org/2000/svg">
<g clip-path="url(#clip0)">
<path d="M3.00274 13.6528C2.95448 13.2507 2.92969 12.8513 2.92969 12.5C2.92969 7.25574 7.25574 2.92969 12.5 2.92969C14.9462 2.92969 17.2363 3.91598 18.9209 5.45406L18.0761 6.31351C17.8858 6.50387 17.8125 6.78215 17.8858 7.04594C17.9737 7.29485 18.1787 7.48539 18.4423 7.54395C18.5898 7.57351 23.4333 9.13429 23.1249 9.0723C23.5172 9.20296 24.0974 8.78448 23.9893 8.20808C23.9595 8.06046 22.8872 2.68002 22.9492 2.98824C22.8907 2.72465 22.7001 2.50492 22.4365 2.43168C22.1876 2.35844 21.9091 2.43168 21.7188 2.62203L21.0011 3.32508C18.7891 1.2598 15.7518 0 12.5 0C5.62992 0 0 5.62992 0 12.5V12.5292C0 12.9421 0.0188828 13.2612 0.0408173 13.5054C0.0699997 13.8288 0.308418 14.0938 0.626945 14.1577L2.13165 14.4585C2.62146 14.5565 3.06187 14.1459 3.00274 13.6528Z" fill="#15B8DB"/>
<path d="M24.3775 10.8411L22.8684 10.5336C22.378 10.4337 21.9345 10.8447 21.9948 11.3401C22.0471 11.7675 22.0703 12.1831 22.0703 12.4999C22.0703 17.744 17.7443 22.0703 12.5 22.0703C10.0538 22.0703 7.76368 21.084 6.07911 19.5312L6.92388 18.6864C7.11423 18.4961 7.18747 18.2178 7.11423 17.954C7.0263 17.7049 6.82126 17.5145 6.55766 17.456C6.41023 17.4262 1.5667 15.8656 1.87512 15.9276C1.62602 15.8838 1.37692 15.957 1.21594 16.1327C1.04009 16.2938 0.966844 16.5574 1.01071 16.7919C1.04047 16.9393 2.11297 22.2709 2.05098 21.9627C2.10935 22.2265 2.29989 22.4462 2.56349 22.5192C2.86923 22.5959 3.12444 22.5032 3.28122 22.3289L3.98446 21.6258C6.19622 23.6913 9.23348 24.9999 12.5 24.9999C19.3701 24.9999 25 19.37 25 12.4999V12.4559C25 12.1312 24.9882 11.8125 24.9611 11.4957C24.9333 11.172 24.6958 10.9061 24.3775 10.8411Z" fill="#15B8DB"/>
</g>
<defs>
<clipPath id="clip0">
<rect width="25" height="25" fill="white"/>
</clipPath>
</defs>
</svg>
