<svg width="210" height="186" viewBox="0 0 210 186" fill="none" xmlns="http://www.w3.org/2000/svg">
<g clip-path="url(#clip0)">
<path opacity="0.1" d="M206.675 137.018C201.804 147.062 191.914 153.779 181.665 158.208C167.867 164.174 152.672 166.54 137.686 165.539C135.06 165.364 132.441 165.085 129.831 164.701C120.765 163.379 111.926 160.806 103.567 157.056C101.155 155.97 98.7914 154.784 96.4768 153.499C92.6107 151.356 88.9064 148.935 85.3936 146.252C84.51 145.578 83.6386 144.887 82.7795 144.178C82.1837 143.687 81.5934 143.185 80.994 142.697C79.7291 141.669 78.4276 140.692 76.9757 139.961C76.5377 139.74 76.0886 139.542 75.6302 139.367C71.0327 137.619 65.7312 138.279 60.9448 139.642C57.3042 140.679 53.7552 142.1 50.1183 143.113C48.5005 143.578 46.8521 143.928 45.1853 144.161C41.4637 144.632 37.6845 144.301 34.1021 143.188L33.7959 143.093C33.2826 142.932 32.7736 142.755 32.2689 142.563L31.9628 142.446C31.4739 142.258 30.9955 142.056 30.5274 141.839L30.2213 141.7C29.7324 141.473 29.254 141.233 28.7859 140.98C28.6173 140.892 28.4505 140.797 28.2855 140.707C25.6224 139.22 23.2017 137.336 21.1069 135.119C21.0464 135.059 20.9895 134.996 20.9235 134.936C20.6321 134.621 20.3461 134.3 20.0693 133.972C19.9666 133.851 19.864 133.73 19.7632 133.606C19.4344 133.205 19.1173 132.795 18.8118 132.376C18.7659 132.315 18.7219 132.253 18.6779 132.193C17.4262 130.461 16.3884 128.585 15.5873 126.605C15.5616 126.544 15.5378 126.482 15.5158 126.422C15.2713 125.792 15.0483 125.153 14.8467 124.503C14.7642 124.232 14.6853 123.953 14.6157 123.682C14.5919 123.601 14.5699 123.519 14.5497 123.438C13.5378 119.456 13.4223 115.316 13.4223 111.2C13.4223 110.72 13.4223 110.24 13.4223 109.761C13.4516 103.103 13.5543 96.3318 14.5369 89.7655C14.5369 89.7197 14.5497 89.6739 14.557 89.6299C14.8859 87.4193 15.3332 85.228 15.8971 83.0654C16.4872 80.7963 17.2414 78.5729 18.1537 76.413C20.4139 71.0984 23.7008 66.2621 27.3506 61.7795C36.5438 50.4997 48.6004 41.0305 62.712 37.4862C77.918 33.6689 94.8178 37.3268 107.083 47.0892C110.823 50.0654 114.183 53.5895 118.383 55.8711C122.049 57.8577 126.341 58.6805 130.267 57.1173C133.512 55.8253 135.624 55.1839 139.268 55.38C146.812 55.8067 154.25 57.3641 161.332 60C161.618 60.1045 161.904 60.2126 162.188 60.3207C180.649 67.3818 196.519 81.4106 204.768 99.4381C204.987 99.9146 205.199 100.395 205.404 100.879C210.323 112.364 212.101 125.824 206.675 137.018Z" fill="#15B8DB"/>
<path opacity="0.1" d="M22.0528 172.162C30.9904 172.162 38.2358 170.999 38.2358 169.563C38.2358 168.128 30.9904 166.965 22.0528 166.965C13.1151 166.965 5.86975 168.128 5.86975 169.563C5.86975 170.999 13.1151 172.162 22.0528 172.162Z" fill="#15B8DB"/>
<path opacity="0.1" d="M167.231 186.259C183.078 186.259 195.925 185.011 195.925 183.473C195.925 181.935 183.078 180.687 167.231 180.687C151.383 180.687 138.537 181.935 138.537 183.473C138.537 185.011 151.383 186.259 167.231 186.259Z" fill="#15B8DB"/>
<path d="M193.21 55.7465H23.5798C22.3153 55.7465 21.2902 56.7713 21.2902 58.0355V152.113C21.2902 153.377 22.3153 154.402 23.5798 154.402H193.21C194.475 154.402 195.5 153.377 195.5 152.113V58.0355C195.5 56.7713 194.475 55.7465 193.21 55.7465Z" fill="url(#paint0_linear)"/>
<path d="M192.954 57.1338H23.8566C22.592 57.1338 21.567 58.1586 21.567 59.4228V151.785C21.567 153.049 22.592 154.074 23.8566 154.074H192.954C194.218 154.074 195.243 153.049 195.243 151.785V59.4228C195.243 58.1586 194.218 57.1338 192.954 57.1338Z" fill="white"/>
<path d="M192.954 57.1338H23.8566C22.592 57.1338 21.567 58.1586 21.567 59.4228V151.785C21.567 153.049 22.592 154.074 23.8566 154.074H192.954C194.218 154.074 195.243 153.049 195.243 151.785V59.4228C195.243 58.1586 194.218 57.1338 192.954 57.1338Z" fill="white"/>
<path opacity="0.04" d="M192.954 57.1338H23.8566C22.592 57.1338 21.567 58.1586 21.567 59.4228V151.785C21.567 153.049 22.592 154.074 23.8566 154.074H192.954C194.218 154.074 195.243 153.049 195.243 151.785V59.4228C195.243 58.1586 194.218 57.1338 192.954 57.1338Z" fill="white"/>
<path d="M194.361 56.0214H22.4487C22.2148 56.0214 21.9906 56.1143 21.8252 56.2796C21.6599 56.4449 21.567 56.6691 21.567 56.9029V60.6286H195.236V56.9029C195.236 56.6704 195.144 56.4473 194.98 56.2822C194.816 56.1171 194.594 56.0233 194.361 56.0214Z" fill="#5A5773"/>
<path d="M25.0353 59.5162C25.6934 59.5162 26.2268 58.9829 26.2268 58.325C26.2268 57.6671 25.6934 57.1338 25.0353 57.1338C24.3772 57.1338 23.8438 57.6671 23.8438 58.325C23.8438 58.9829 24.3772 59.5162 25.0353 59.5162Z" fill="white"/>
<path d="M28.2433 59.5162C28.9014 59.5162 29.4349 58.9829 29.4349 58.325C29.4349 57.6671 28.9014 57.1338 28.2433 57.1338C27.5852 57.1338 27.0518 57.6671 27.0518 58.325C27.0518 58.9829 27.5852 59.5162 28.2433 59.5162Z" fill="white"/>
<path d="M31.4513 59.5162C32.1094 59.5162 32.6429 58.9829 32.6429 58.325C32.6429 57.6671 32.1094 57.1338 31.4513 57.1338C30.7932 57.1338 30.2598 57.6671 30.2598 58.325C30.2598 58.9829 30.7932 59.5162 31.4513 59.5162Z" fill="white"/>
<path opacity="0.2" d="M82.4788 69.2933H35.871V73.2481H82.4788V69.2933Z" fill="#15B8DB"/>
<path opacity="0.1" d="M180.939 85.151H35.871V145.987H180.939V85.151Z" fill="#5A5773"/>
<path opacity="0.1" d="M117.81 91.1186H115.326V86.2951C115.326 80.8522 110.985 76.3275 105.541 76.245C104.228 76.2312 102.925 76.4773 101.708 76.9691C100.491 77.4609 99.3828 78.1886 98.4481 79.1104C97.5135 80.0322 96.7706 81.1298 96.2621 82.3399C95.7537 83.5501 95.4899 84.8488 95.4859 86.1613V91.1186H93.0075C91.9122 91.122 90.8627 91.5585 90.0882 92.3327C89.3137 93.107 88.8771 94.1562 88.8737 95.2512V115.084C88.8771 116.179 89.3137 117.228 90.0882 118.002C90.8627 118.777 91.9122 119.213 93.0075 119.216H117.81C118.905 119.213 119.954 118.776 120.729 118.002C121.503 117.228 121.939 116.179 121.942 115.084V95.2512C121.939 94.1563 121.503 93.1072 120.729 92.3328C119.954 91.5585 118.905 91.122 117.81 91.1186ZM106.857 104.011V111.114C106.859 111.49 106.719 111.853 106.463 112.13C106.208 112.406 105.857 112.575 105.482 112.602C105.286 112.612 105.09 112.581 104.907 112.512C104.723 112.444 104.555 112.339 104.413 112.203C104.271 112.068 104.158 111.905 104.081 111.725C104.004 111.545 103.964 111.351 103.964 111.155V104.007C103.294 103.68 102.754 103.136 102.432 102.463C102.111 101.79 102.028 101.027 102.195 100.301C102.363 99.5737 102.773 98.9253 103.356 98.4609C103.94 97.9966 104.664 97.7438 105.411 97.7438C106.157 97.7438 106.881 97.9966 107.465 98.4609C108.049 98.9253 108.458 99.5737 108.626 100.301C108.793 101.027 108.71 101.79 108.389 102.463C108.067 103.136 107.527 103.68 106.857 104.007V104.011ZM112.437 91.1186H98.3786V86.1613C98.3786 84.2983 99.1189 82.5117 100.437 81.1943C101.754 79.877 103.541 79.1369 105.405 79.1369C107.269 79.1369 109.056 79.877 110.373 81.1943C111.691 82.5117 112.431 84.2983 112.431 86.1613L112.437 91.1186Z" fill="black"/>
<path d="M117.81 90.7521H115.326V85.9286C115.326 80.4857 110.985 75.961 105.541 75.8785C104.228 75.8647 102.925 76.1108 101.708 76.6026C100.491 77.0944 99.3828 77.8221 98.4481 78.7439C97.5135 79.6657 96.7706 80.7633 96.2621 81.9734C95.7537 83.1835 95.4899 84.4823 95.4859 85.7948V90.7521H93.0075C91.9122 90.7554 90.8627 91.1919 90.0882 91.9662C89.3137 92.7405 88.8771 93.7896 88.8737 94.8846V114.717C88.8771 115.812 89.3137 116.861 90.0882 117.636C90.8627 118.41 91.9122 118.846 93.0075 118.85H117.81C118.905 118.846 119.954 118.41 120.729 117.636C121.503 116.861 121.939 115.812 121.942 114.717V94.8846C121.939 93.7898 121.503 92.7406 120.729 91.9663C119.954 91.192 118.905 90.7554 117.81 90.7521V90.7521ZM106.857 103.645V110.748C106.859 111.124 106.719 111.487 106.463 111.763C106.208 112.039 105.857 112.208 105.482 112.236C105.286 112.245 105.09 112.214 104.907 112.146C104.723 112.077 104.555 111.972 104.413 111.837C104.271 111.701 104.158 111.539 104.081 111.358C104.004 111.178 103.964 110.984 103.964 110.788V103.641C103.294 103.314 102.754 102.769 102.432 102.096C102.111 101.423 102.028 100.661 102.195 99.934C102.363 99.2072 102.773 98.5587 103.356 98.0944C103.94 97.63 104.664 97.3772 105.411 97.3772C106.157 97.3772 106.881 97.63 107.465 98.0944C108.049 98.5587 108.458 99.2072 108.626 99.934C108.793 100.661 108.71 101.423 108.389 102.096C108.067 102.769 107.527 103.314 106.857 103.641V103.645ZM112.437 90.7521H98.3786V85.7948C98.3786 83.9318 99.1189 82.1451 100.437 80.8278C101.754 79.5104 103.541 78.7704 105.405 78.7704C107.269 78.7704 109.056 79.5104 110.373 80.8278C111.691 82.1451 112.431 83.9318 112.431 85.7948L112.437 90.7521Z" fill="#15B8DB"/>
<path opacity="0.1" d="M180.939 79.2957H166.256V82.7612H180.939V79.2957Z" fill="#5A5773"/>
<path d="M185.936 184.312C185.84 183.827 185.674 183.357 185.445 182.918L183.245 179.634H183.258C183.258 179.634 182.912 177.984 183.258 177.174C183.605 176.364 182.023 174.372 182.023 174.372C182.023 174.372 181.83 173.872 182.332 173.256C182.835 172.64 182.023 170.837 182.023 170.837C182.023 170.837 181.638 167.071 181.599 166.496C181.561 165.92 181.251 162.731 181.251 162.731L180.518 155.971L179.212 138.053L179.188 137.718C179.35 137.639 179.436 137.59 179.436 137.59L179.176 127.682L179.401 127.479C181.37 125.698 185.911 121.574 185.865 121.485C185.819 121.395 185.315 114.599 185.256 112.899C185.206 111.69 184.941 110.5 184.475 109.384C184.362 109.158 184.033 107.672 183.898 107.043C183.861 106.871 183.837 106.763 183.837 106.763C183.837 106.763 182.506 104.227 182.622 103.074C182.737 101.921 182.968 101.058 180.131 100.655C180.131 100.655 177.748 100.299 176.329 99.33C175.49 98.7493 174.573 98.2902 173.605 97.9665C173.605 97.9665 172.809 96.5004 172.256 96.997C172.021 96.4739 171.846 95.9262 171.733 95.3642L171.717 95.2615C172.767 94.529 173.524 93.4469 173.85 92.2084C173.869 92.1387 173.883 92.0673 173.9 91.9976C173.955 92.0163 174.012 92.0268 174.07 92.0288C174.552 92.0288 174.849 91.4918 175.3 91.3214C175.484 91.2499 175.709 91.2389 175.85 91.0942C175.897 91.0383 175.932 90.9737 175.952 90.904C175.973 90.8344 175.98 90.7613 175.971 90.6891C175.976 90.6392 175.976 90.5889 175.971 90.5389C175.972 90.5212 175.972 90.5034 175.971 90.4857V90.5041C175.848 89.837 175.332 89.245 175.388 88.567C175.443 87.9292 176.004 87.3684 175.958 86.7472C175.958 86.6981 175.954 86.649 175.946 86.6006V86.6225C175.877 86.38 175.752 86.1575 175.579 85.9738C175.382 85.705 175.123 85.4876 174.824 85.3397C174.569 85.2279 174.274 85.2023 174.035 85.0685C173.335 84.6873 173.337 83.694 172.921 83.0159C172.743 82.7329 172.49 82.5045 172.19 82.3561C171.89 82.2077 171.555 82.1449 171.222 82.1748C170.701 82.2261 170.23 82.5028 169.715 82.5926C169.011 82.7172 168.294 82.4882 167.627 82.2261C166.96 81.964 166.283 81.6763 165.566 81.6763C164.85 81.6763 164.074 82.0428 163.858 82.7191C163.742 83.0856 163.799 83.4796 163.711 83.8516C163.554 84.5077 162.978 84.9769 162.382 85.3031C162.016 85.5065 161.579 85.7392 161.466 86.1241C161.466 86.1131 161.466 86.1039 161.466 86.0948C161.457 86.1255 161.451 86.1567 161.447 86.1882C161.444 86.2291 161.444 86.2702 161.447 86.311C161.447 86.5749 161.587 86.826 161.68 87.077C161.854 87.5547 161.85 88.0791 161.669 88.5541C161.533 88.9023 161.302 89.2084 161.17 89.5547C161.108 89.7161 161.068 89.8849 161.049 90.0569V90.0276C161.045 90.1057 161.045 90.184 161.049 90.2621C161.047 90.5298 161.11 90.7939 161.233 91.0318C161.317 91.1961 161.433 91.3419 161.574 91.4605C161.716 91.5792 161.879 91.6684 162.056 91.7227C162.423 91.807 162.652 91.4479 163.038 91.5395C163.108 91.5561 163.176 91.5776 163.242 91.6036C163.255 91.6861 163.268 91.7686 163.282 91.8492C163.516 93.0826 164.174 94.1955 165.141 94.9958C165.141 95.0398 165.156 95.0838 165.161 95.1296C165.278 95.8602 165.329 96.5999 165.313 97.3397C165.313 97.3397 164.736 96.4949 163.944 98.1259C163.944 98.1259 161.878 99.3171 161.165 99.4528C160.452 99.5884 157.92 100.47 157.92 100.47C157.538 100.746 157.079 100.894 156.608 100.893C155.818 100.893 155.161 102.621 155.257 103.561C155.352 104.502 155.2 105.194 154.465 105.233C153.73 105.271 154.131 106.761 154.137 106.787L154.069 107.108C153.926 107.764 153.614 109.171 153.504 109.391C153.038 110.507 152.773 111.697 152.721 112.906C152.665 114.607 152.172 121.376 152.115 121.492C152.076 121.567 155.187 124.409 157.374 126.396L157.691 126.682L156.685 136.08C156.714 136.442 156.822 136.793 157 137.109C157.179 137.426 157.424 137.7 157.719 137.912C157.719 138.022 157.719 138.134 157.708 138.249C157.664 139.349 157.576 140.679 157.4 141.028C157.092 141.643 157.169 144.946 157.169 144.946C157.169 144.946 156.859 151.668 156.474 152.399C156.089 153.13 156.01 154.664 156.126 154.965C156.241 155.265 155.739 163.338 155.739 163.338L155.354 166.95C155.354 166.95 155.469 170.406 155.121 170.483C154.773 170.56 154.58 172.943 154.58 172.943C154.58 172.943 153.347 174.632 153.886 175.246C154.424 175.86 153.807 176.132 153.75 176.284C153.693 176.436 152.573 177.017 153.383 179.165C153.391 179.186 153.399 179.207 153.409 179.227C152.65 180.281 150.245 183.68 150.392 184.197C150.5 184.526 150.729 184.801 151.033 184.967C151.6 185.306 152.571 185.463 154.117 184.967C156.683 184.14 156.5 183.545 156.5 183.545C156.513 183.266 156.632 183.003 156.833 182.81C157.035 182.617 157.302 182.509 157.581 182.507C158.643 182.43 159.434 181.452 159.434 181.452L159.31 180.988L159.139 180.347C159.16 180.163 159.29 179.843 159.873 179.665C160.762 179.395 160.529 177.706 160.529 177.706C160.529 177.706 160.452 175.939 160.837 175.708C161.222 175.477 161.07 172.558 161.07 172.558C161.07 172.558 161.495 170.445 162.111 169.023C162.727 167.601 163.464 159.152 163.464 159.152C163.464 159.152 163.964 155.003 164.428 153.812C164.892 152.621 165.317 149.28 165.317 149.28C165.317 149.28 168.175 143.747 168.212 142.518C168.212 142.518 168.578 141.365 168.945 142.633C169.311 143.901 170.342 146.936 170.342 146.936L171.344 150.662L172.541 156.231L173.315 160.919C173.315 160.919 173.198 162.686 173.498 163.301C173.799 163.917 174.232 165.336 174.001 165.605C173.77 165.874 174.463 167.143 174.657 167.41C174.851 167.678 174.657 173.364 174.657 173.364C174.657 173.364 175.544 178.204 176.818 179.045C176.907 179.104 177.002 179.153 177.101 179.192C177.082 179.716 177.064 180.418 177.088 180.785C177.085 180.867 177.099 180.948 177.128 181.025C177.243 181.179 178.556 182.216 178.827 182.216C179.099 182.216 180.061 182.888 180.101 183.215C180.142 183.541 182.923 184.923 183.317 184.963C183.711 185.003 185.621 185.346 185.883 184.809C185.948 184.652 185.966 184.48 185.936 184.312ZM179.104 115.091L179.302 115.261C179.302 115.261 179.506 116.846 179.65 117.321C179.795 117.795 179.621 118.719 179.621 118.719C179.634 119.064 179.703 119.404 179.825 119.727C179.997 120.073 179.476 120.827 179.476 120.827H179.012L178.868 114.893L179.104 115.091ZM165.313 97.3727V97.3379C165.31 97.3489 165.308 97.3617 165.308 97.3727H165.313ZM158.192 120.216C158.12 120.063 158.11 119.888 158.162 119.727C158.203 119.64 158.236 119.549 158.259 119.456C158.316 119.215 158.352 118.97 158.366 118.723C158.366 118.72 158.366 118.717 158.366 118.714C158.349 118.626 158.201 117.775 158.338 117.324C158.476 116.874 158.685 115.265 158.685 115.265L158.817 115.153L159.123 114.887C159.123 114.887 159.123 114.788 159.145 114.625C159.209 116.018 159.26 117.557 159.178 117.634C159.024 117.786 158.463 119.284 158.599 119.342C158.643 119.362 158.582 119.962 158.479 120.768C158.364 120.595 158.268 120.41 158.192 120.216V120.216Z" fill="url(#paint1_linear)"/>
<path d="M172.967 98.837V101.117L168.288 103.468C168.288 103.468 163.643 100.659 164.789 99.5407C165.522 98.8333 165.381 96.8907 165.183 95.5548C165.068 94.7777 164.934 94.2078 164.934 94.2078C164.934 94.2078 173.278 91.8254 172.017 93.6342C171.595 94.2389 171.562 95.0215 171.704 95.7967C171.99 97.3342 172.967 98.837 172.967 98.837Z" fill="#C37098"/>
<path d="M160.151 121.131L159.548 128.557C159.548 128.557 158.644 127.737 157.475 126.671C155.306 124.693 152.226 121.866 152.263 121.791C152.32 121.675 152.813 114.938 152.866 113.245C152.916 112.043 153.178 110.859 153.64 109.748C153.75 109.529 154.06 108.128 154.19 107.474C154.234 107.271 154.261 107.139 154.261 107.139L155.273 106.732C155.273 106.732 159.489 111.434 159.489 111.521C159.489 111.607 159.202 115.219 159.202 115.219L158.903 115.479L158.773 115.591C158.773 115.591 158.571 117.169 158.428 117.642C158.285 118.114 158.439 118.935 158.456 119.023C158.442 119.27 158.407 119.516 158.351 119.756C158.327 119.849 158.295 119.939 158.254 120.026C158.202 120.186 158.213 120.36 158.283 120.513C158.365 120.726 158.471 120.928 158.599 121.116L160.151 121.131Z" fill="#3F3D56"/>
<path d="M185.703 121.791C185.747 121.88 181.251 125.984 179.302 127.756L178.419 128.557L177.821 121.131H179.37C179.37 121.131 179.887 120.385 179.715 120.04C179.594 119.719 179.527 119.381 179.515 119.038C179.515 119.038 179.685 118.122 179.542 117.647C179.399 117.172 179.198 115.596 179.198 115.596L179.001 115.428L178.769 115.224C178.769 115.224 178.481 111.612 178.481 111.526C178.481 111.44 182.697 106.737 182.697 106.737L183.702 107.139C183.702 107.139 183.724 107.247 183.76 107.419C183.896 108.044 184.22 109.523 184.332 109.748C184.794 110.859 185.056 112.043 185.106 113.245C185.154 114.938 185.645 121.675 185.703 121.791Z" fill="#3F3D56"/>
<path d="M185.722 184.822C185.452 185.357 183.561 185.005 183.17 184.976C182.78 184.946 180.023 183.559 179.984 183.235C179.946 182.91 178.991 182.242 178.723 182.242C178.455 182.242 177.156 181.208 177.04 181.056C177.011 180.98 176.998 180.899 177.002 180.818C176.961 180.189 177.04 178.571 177.04 178.571L182.585 178.877L185.28 182.929C185.507 183.366 185.671 183.833 185.768 184.316C185.8 184.486 185.784 184.661 185.722 184.822V184.822Z" fill="#3F3D56"/>
<path opacity="0.1" d="M185.722 184.822C185.452 185.357 183.561 185.005 183.17 184.976C182.78 184.946 180.023 183.559 179.984 183.235C179.946 182.91 178.991 182.242 178.723 182.242C178.455 182.242 177.156 181.208 177.04 181.056C177.011 180.98 176.998 180.899 177.002 180.818C176.961 180.189 177.04 178.571 177.04 178.571L182.585 178.877L185.28 182.929C185.507 183.366 185.671 183.833 185.768 184.316C185.8 184.486 185.784 184.661 185.722 184.822V184.822Z" fill="black"/>
<path opacity="0.1" d="M185.722 184.822C185.452 185.357 183.56 185.005 183.17 184.976C182.78 184.946 180.023 183.559 179.984 183.235C179.946 182.91 178.99 182.242 178.723 182.242C178.455 182.242 177.155 181.208 177.04 181.056C177.011 180.98 176.998 180.899 177.002 180.818L178.798 181.954C178.798 181.954 179.946 182.687 180.252 183.121C180.558 183.556 182.97 184.459 183.17 184.477C183.318 184.492 184.902 184.188 185.768 184.316C185.8 184.486 185.784 184.661 185.722 184.822V184.822Z" fill="black"/>
<path d="M159.508 181.477C159.508 181.477 158.723 182.452 157.675 182.527C157.398 182.529 157.133 182.638 156.933 182.83C156.734 183.022 156.616 183.283 156.604 183.559C156.604 183.559 156.787 184.153 154.252 184.976C152.721 185.469 151.759 185.313 151.198 184.976C150.897 184.81 150.67 184.536 150.562 184.21C150.39 183.6 153.774 178.954 153.774 178.954L156.853 178.771L159.053 179.764L159.39 181.023L159.508 181.477Z" fill="#3F3D56"/>
<path opacity="0.1" d="M159.508 181.477C159.508 181.477 158.723 182.452 157.675 182.527C157.398 182.529 157.133 182.638 156.933 182.83C156.734 183.022 156.616 183.283 156.604 183.559C156.604 183.559 156.787 184.153 154.252 184.976C152.721 185.469 151.759 185.313 151.198 184.976C150.897 184.81 150.67 184.536 150.562 184.21C150.39 183.6 153.774 178.954 153.774 178.954L156.853 178.771L159.053 179.764L159.39 181.023L159.508 181.477Z" fill="black"/>
<path opacity="0.1" d="M159.508 181.477C159.508 181.477 158.723 182.452 157.675 182.527C157.398 182.53 157.133 182.638 156.933 182.83C156.734 183.022 156.616 183.283 156.604 183.559C156.604 183.559 156.787 184.153 154.252 184.976C152.722 185.469 151.759 185.313 151.198 184.976C152.641 184.826 155.829 183.915 156.148 183.6C156.531 183.216 157.009 182.165 157.334 182.146C157.559 182.132 158.705 181.443 159.392 181.016L159.508 181.477Z" fill="black"/>
<path d="M183.121 177.215C182.776 178.017 183.121 179.661 183.121 179.661C183.121 179.661 177.988 179.929 176.734 179.088C175.48 178.246 174.593 173.428 174.593 173.428C174.593 173.428 174.776 167.771 174.593 167.504C174.409 167.236 173.713 165.975 173.942 165.708C174.171 165.44 173.759 164.025 173.445 163.413C173.132 162.801 173.262 161.044 173.262 161.044L172.496 156.378L171.311 150.836L170.305 147.127C170.305 147.127 169.273 144.106 168.923 142.846C168.573 141.585 168.202 142.73 168.202 142.73C168.166 143.954 165.335 149.46 165.335 149.46C165.335 149.46 164.914 152.786 164.455 153.97C163.997 155.154 163.499 159.284 163.499 159.284C163.499 159.284 162.765 167.694 162.16 169.109C161.555 170.524 161.139 172.626 161.139 172.626C161.139 172.626 161.293 175.532 160.91 175.761C160.527 175.99 160.589 177.75 160.589 177.75C160.589 177.75 160.819 179.43 159.939 179.7C159.059 179.969 159.205 180.541 159.205 180.541C159.205 180.541 154.311 181.344 153.508 179.201C152.705 177.059 153.814 176.489 153.875 176.335C153.935 176.181 154.545 175.915 154.01 175.301C153.475 174.687 154.698 173.009 154.698 173.009C154.698 173.009 154.89 170.639 155.233 170.562C155.576 170.485 155.464 167.045 155.464 167.045L155.845 163.452C155.845 163.452 156.344 155.423 156.228 155.117C156.113 154.811 156.19 153.284 156.573 152.551C156.956 151.818 157.26 145.133 157.26 145.133C157.26 145.133 157.183 141.847 157.49 141.235C157.673 140.888 157.75 139.556 157.794 138.469C157.827 137.639 157.834 136.952 157.834 136.952L162.116 135.347L167.616 133.589L172.243 135.807L179.013 137.106L179.097 138.273L180.389 156.106L181.122 162.834C181.122 162.834 181.429 166.006 181.467 166.58C181.506 167.154 181.887 170.901 181.887 170.901C181.887 170.901 182.69 172.697 182.193 173.309C181.696 173.921 181.887 174.409 181.887 174.409C181.887 174.409 183.465 176.412 183.121 177.215Z" fill="#3F3D56"/>
<path opacity="0.1" d="M172.021 93.6342C171.599 94.2389 171.566 95.0215 171.707 95.7967C170.744 96.4761 169.584 96.8202 168.406 96.7762C167.228 96.7322 166.097 96.3024 165.187 95.5529V95.5529C165.071 94.7759 164.938 94.2059 164.938 94.2059C164.938 94.2059 173.282 91.8272 172.021 93.6342Z" fill="black"/>
<path d="M173.971 91.2958C173.971 92.3578 173.656 93.3959 173.066 94.2789C172.476 95.162 171.637 95.8502 170.656 96.2566C169.674 96.663 168.594 96.7694 167.552 96.5622C166.51 96.355 165.553 95.8436 164.802 95.0926C164.051 94.3417 163.54 93.3849 163.332 92.3433C163.125 91.3017 163.231 90.2221 163.638 89.2409C164.045 88.2597 164.733 87.4211 165.616 86.8311C166.499 86.2411 167.538 85.9262 168.6 85.9262C169.307 85.9228 170.007 86.0593 170.66 86.328C171.313 86.5966 171.906 86.992 172.406 87.4913C172.905 87.9906 173.301 88.5839 173.569 89.2369C173.838 89.8899 173.975 90.5897 173.971 91.2958Z" fill="#C37098"/>
<path opacity="0.1" d="M175.089 100.219L173.33 131.547L163.77 129.541L161.876 116.982L163.751 100.122L165.163 100.303L167.652 100.62L170.118 100.772L172.791 100.475L175.089 100.219Z" fill="black"/>
<path d="M175.089 100.448L173.33 131.777L163.77 129.77L161.876 117.211L163.751 100.353L165.163 100.532L167.652 100.849L170.118 101.001L172.791 100.704L175.089 100.448Z" fill="#15B8DB"/>
<path d="M167.231 101.289L170.673 101.404L169.706 102.759C169.706 102.759 169.773 105.495 170.234 106.279C170.694 107.064 170.558 119.181 170.558 119.181L169.641 120.92L168.074 118.97L168.094 102.971L167.231 101.289Z" fill="#3F3D56"/>
<path opacity="0.1" d="M167.231 101.289L170.673 101.404L169.706 102.759C169.706 102.759 169.773 105.495 170.234 106.279C170.694 107.064 170.558 119.181 170.558 119.181L169.641 120.92L168.074 118.97L168.094 102.971L167.231 101.289Z" fill="black"/>
<path opacity="0.1" d="M172.622 97.7337L169.41 101.289L171.245 103.2L174.287 100.237L172.622 97.7337Z" fill="black"/>
<path d="M172.622 97.5047L169.41 101.06L171.245 102.971L174.287 100.008L172.622 97.5047Z" fill="#15B8DB"/>
<path opacity="0.1" d="M168.054 101.117L164.802 97.8675L164.496 99.5682L165.988 103.296L168.054 101.117Z" fill="black"/>
<path d="M168.168 100.888L164.917 97.6385L164.611 99.3391L166.103 103.067L168.168 100.888Z" fill="#15B8DB"/>
<path opacity="0.1" d="M179.113 138.279C177.552 139.022 175.881 139.506 174.164 139.71C171.009 140.111 168.945 136.098 168.945 136.098L167.74 137.665C167.357 139.329 161.526 139.749 159.156 139.118C158.664 138.997 158.202 138.778 157.796 138.475C157.829 137.645 157.836 136.957 157.836 136.957L162.118 135.352L167.618 133.595L172.245 135.812L179.014 137.111L179.113 138.279Z" fill="black"/>
<path opacity="0.1" d="M175.09 100.45L173.332 131.777L163.77 129.77L161.873 117.213L163.746 100.353L165.158 100.536C165.121 101.15 165.052 101.762 164.95 102.368C164.721 103.441 166.136 111.048 166.136 111.048C166.136 111.048 168.826 119.579 170.036 118.349C171.245 117.119 172.969 110.626 172.969 110.626C174.136 108.218 172.989 101.463 172.903 101.328C172.843 101.128 172.806 100.922 172.793 100.714L175.09 100.45Z" fill="black"/>
<path opacity="0.1" d="M179.22 124.692L179.3 127.761L178.417 128.562L177.821 121.131H179.141L179.22 124.692Z" fill="black"/>
<path opacity="0.1" d="M158.457 119.029C158.444 119.276 158.409 119.521 158.353 119.762C158.353 119.694 158.353 119.656 158.338 119.65C158.283 119.635 158.349 119.355 158.457 119.029Z" fill="black"/>
<path opacity="0.1" d="M160.151 121.131L159.548 128.557C159.548 128.557 158.644 127.737 157.475 126.671L157.614 125.355C157.614 125.355 158.107 122.122 158.287 120.528C158.368 120.74 158.474 120.943 158.602 121.131H160.151Z" fill="black"/>
<path d="M165.337 97.7521C165.337 97.7521 164.765 96.9109 163.981 98.5346C163.981 98.5346 161.935 99.7203 161.231 99.8541C160.527 99.9879 158.023 100.868 158.023 100.868C157.645 101.141 157.19 101.288 156.723 101.287C155.939 101.287 155.288 103.008 155.383 103.945C155.478 104.881 155.326 105.57 154.6 105.609C153.874 105.647 154.274 107.155 154.274 107.155L159.112 112.699C159.112 112.699 159.418 117.803 159.266 117.957C159.114 118.111 158.558 119.606 158.692 119.657C158.826 119.709 157.959 125.353 157.959 125.353L156.793 136.307C156.793 136.307 156.793 138.139 159.165 138.772C161.537 139.404 167.372 138.986 167.748 137.322L168.952 135.753C168.952 135.753 171.016 139.769 174.171 139.367C177.326 138.966 179.335 137.819 179.335 137.819L178.99 124.692L178.761 115.23L183.687 107.139C183.687 107.139 182.367 104.615 182.483 103.474C182.598 102.332 182.825 101.467 180.015 101.065C180.015 101.065 177.645 100.712 176.248 99.746C175.418 99.1697 174.511 98.7132 173.553 98.3898C173.553 98.3898 172.765 96.9237 172.217 97.4259C172.217 97.4259 172.767 99.4986 172.721 99.8083C172.675 100.118 172.807 101.518 172.893 101.663C172.98 101.808 174.127 108.554 172.959 110.962C172.959 110.962 171.245 117.455 170.026 118.684C168.807 119.914 166.127 111.383 166.127 111.383C166.127 111.383 164.712 103.774 164.941 102.704C165.17 101.634 165.337 97.7521 165.337 97.7521Z" fill="#3F3D56"/>
<path d="M169.429 122.813C169.894 122.813 170.27 122.437 170.27 121.972C170.27 121.507 169.894 121.131 169.429 121.131C168.964 121.131 168.587 121.507 168.587 121.972C168.587 122.437 168.964 122.813 169.429 122.813Z" fill="#3F3D56"/>
<path d="M169.429 126.779C169.894 126.779 170.27 126.402 170.27 125.938C170.27 125.473 169.894 125.097 169.429 125.097C168.964 125.097 168.587 125.473 168.587 125.938C168.587 126.402 168.964 126.779 169.429 126.779Z" fill="#3F3D56"/>
<path opacity="0.1" d="M169.429 122.813C169.894 122.813 170.27 122.437 170.27 121.972C170.27 121.507 169.894 121.131 169.429 121.131C168.964 121.131 168.587 121.507 168.587 121.972C168.587 122.437 168.964 122.813 169.429 122.813Z" fill="black"/>
<path opacity="0.1" d="M169.429 126.779C169.894 126.779 170.27 126.402 170.27 125.938C170.27 125.473 169.894 125.097 169.429 125.097C168.964 125.097 168.587 125.473 168.587 125.938C168.587 126.402 168.964 126.779 169.429 126.779Z" fill="black"/>
<path opacity="0.1" d="M176.99 176.067C176.99 176.067 180.444 176.335 180.787 176.603C181.13 176.87 176.99 176.067 176.99 176.067Z" fill="black" stroke="#15B8DB" stroke-miterlimit="10"/>
<path opacity="0.1" d="M156.428 173.353C156.428 173.353 157.161 174.27 156.85 174.691C156.538 175.113 156.428 173.353 156.428 173.353Z" fill="black" stroke="#15B8DB" stroke-miterlimit="10"/>
<path opacity="0.1" d="M157.308 176.658C157.308 176.658 158.646 175.778 159.181 176.362C159.717 176.947 157.308 176.658 157.308 176.658Z" fill="black" stroke="#15B8DB" stroke-miterlimit="10"/>
<path opacity="0.1" d="M173.971 91.2957C173.972 91.7539 173.914 92.2103 173.799 92.6537C173.686 92.6022 173.591 92.5173 173.528 92.4106C173.464 92.3038 173.435 92.1802 173.443 92.0563C173.467 91.8382 173.612 91.6384 173.581 91.4222C173.535 91.0887 173.132 90.953 172.919 90.6891C172.657 90.3703 172.714 89.9066 172.736 89.4943C172.758 89.0819 172.653 88.578 172.267 88.4369C172.151 88.3947 172.025 88.391 171.913 88.3434C171.608 88.2151 171.515 87.8376 171.311 87.5774C170.904 87.0532 170.096 87.0642 169.478 87.3135C169.209 87.4423 168.934 87.5573 168.653 87.658C168.513 87.7075 168.364 87.7274 168.215 87.7164C168.066 87.7053 167.922 87.6636 167.79 87.5938C167.669 87.5169 167.572 87.4106 167.447 87.3336C167.033 87.0844 166.49 87.3336 166.131 87.6543C165.772 87.975 165.484 88.4057 165.031 88.6018C164.828 88.6934 164.576 88.7484 164.481 88.9463C164.434 89.0541 164.414 89.1717 164.422 89.289C164.422 90.0019 164.507 90.7258 164.358 91.424C164.263 91.873 163.948 92.3825 163.491 92.3275C163.434 92.3191 163.378 92.305 163.324 92.2854C163.187 91.5514 163.204 90.7968 163.375 90.0699C163.546 89.3429 163.866 88.6596 164.316 88.0635C164.766 87.4674 165.336 86.9717 165.988 86.608C166.64 86.2443 167.361 86.0206 168.105 85.9513C168.849 85.8819 169.599 85.9684 170.307 86.2052C171.016 86.442 171.667 86.8239 172.219 87.3265C172.772 87.8291 173.213 88.4413 173.515 89.1242C173.818 89.807 173.974 90.5453 173.975 91.2921L173.971 91.2957Z" fill="black"/>
<path d="M163.084 91.9812C163.222 92.0123 163.352 92.0838 163.493 92.1021C163.95 92.1571 164.265 91.6476 164.36 91.1986C164.509 90.5004 164.432 89.7765 164.426 89.0636C164.416 88.9464 164.435 88.8285 164.483 88.7209C164.587 88.523 164.839 88.468 165.033 88.3764C165.477 88.1785 165.766 87.757 166.133 87.4289C166.499 87.1009 167.033 86.859 167.447 87.1082C167.57 87.1815 167.669 87.2915 167.79 87.3684C167.922 87.4372 168.067 87.4784 168.216 87.4894C168.365 87.5004 168.514 87.4811 168.655 87.4326C168.939 87.3483 169.205 87.1998 169.478 87.0881C170.091 86.8388 170.901 86.8297 171.311 87.3501C171.515 87.6122 171.608 87.9879 171.913 88.1162C172.025 88.1638 172.151 88.1693 172.266 88.2115C172.653 88.3562 172.752 88.8565 172.736 89.2689C172.719 89.6812 172.664 90.1449 172.919 90.4637C173.132 90.724 173.535 90.8596 173.581 91.1968C173.61 91.413 173.467 91.6146 173.443 91.8309C173.438 91.9113 173.448 91.9919 173.474 92.0682C173.5 92.1444 173.541 92.2148 173.595 92.2751C173.648 92.3355 173.713 92.3846 173.785 92.4197C173.858 92.4549 173.937 92.4752 174.017 92.4796C174.494 92.4796 174.789 91.9463 175.234 91.7759C175.418 91.7044 175.639 91.6934 175.784 91.5487C175.838 91.4791 175.876 91.3986 175.896 91.3128C175.915 91.2271 175.916 91.1381 175.898 91.052C175.808 90.3501 175.245 89.7399 175.306 89.0361C175.363 88.3617 175.988 87.7735 175.856 87.11C175.789 86.8654 175.663 86.6409 175.489 86.4558C175.293 86.1895 175.037 85.973 174.741 85.8235C174.486 85.7136 174.191 85.6879 173.958 85.5542C173.266 85.1748 173.267 84.1852 172.859 83.5108C172.683 83.2321 172.434 83.007 172.139 82.8602C171.845 82.7135 171.515 82.6507 171.187 82.6788C170.672 82.7301 170.204 83.0031 169.695 83.0948C168.996 83.2194 168.289 82.9903 167.627 82.7282C166.965 82.4662 166.296 82.1785 165.587 82.1785C164.877 82.1785 164.109 82.545 163.893 83.2157C163.779 83.5822 163.836 83.9744 163.748 84.3428C163.594 84.997 163.015 85.4625 162.432 85.7869C162.03 86.0105 161.548 86.267 161.5 86.7234C161.469 87.0129 161.629 87.2732 161.73 87.5535C161.901 88.0279 161.897 88.5479 161.719 89.0196C161.585 89.366 161.361 89.6702 161.225 90.0148C161.129 90.2486 161.084 90.5002 161.092 90.7529C161.1 91.0057 161.162 91.2538 161.273 91.4809C161.359 91.6464 161.477 91.7928 161.621 91.911C161.765 92.0291 161.932 92.1166 162.111 92.1681C162.472 92.2542 162.699 91.8969 163.084 91.9812Z" fill="#3F3D56"/>
<g opacity="0.1">
<path opacity="0.1" d="M164.36 90.7991C164.265 91.2481 163.948 91.7576 163.491 91.7026C163.35 91.6843 163.222 91.6128 163.082 91.5816C162.699 91.4973 162.472 91.8565 162.111 91.7649C161.932 91.7135 161.765 91.626 161.62 91.5078C161.476 91.3897 161.357 91.2433 161.271 91.0777C161.175 90.8911 161.117 90.6875 161.101 90.4784C161.064 90.8029 161.124 91.131 161.271 91.4222C161.357 91.5878 161.476 91.7342 161.62 91.8524C161.765 91.9705 161.932 92.058 162.111 92.1094C162.478 92.1937 162.699 91.8345 163.082 91.9262C163.217 91.9728 163.353 92.0126 163.491 92.0453C163.948 92.1021 164.265 91.5926 164.36 91.1436C164.435 90.747 164.465 90.343 164.448 89.9396C164.446 90.2283 164.417 90.5161 164.36 90.7991V90.7991Z" fill="black"/>
<path opacity="0.1" d="M161.849 88.0392C161.872 87.7389 161.831 87.437 161.728 87.154C161.645 86.9658 161.574 86.7724 161.517 86.5749C161.509 86.6057 161.503 86.6369 161.499 86.6684C161.468 86.9561 161.629 87.2182 161.728 87.4985C161.792 87.6726 161.832 87.8544 161.849 88.0392V88.0392Z" fill="black"/>
<path opacity="0.1" d="M175.854 87.0734C175.768 87.5938 175.346 88.0832 175.304 88.6311C175.294 88.7249 175.294 88.8195 175.304 88.9133C175.396 88.2737 175.962 87.7075 175.854 87.0734Z" fill="black"/>
<path opacity="0.1" d="M175.885 90.9402C175.87 91.0168 175.834 91.0878 175.781 91.1455C175.645 91.2903 175.414 91.3012 175.231 91.3727C174.785 91.5432 174.497 92.0819 174.014 92.0764C173.89 92.0694 173.771 92.025 173.673 91.9491C173.574 91.8732 173.502 91.7694 173.464 91.6513C173.452 91.691 173.444 91.7314 173.438 91.7722C173.433 91.8525 173.443 91.9329 173.47 92.009C173.496 92.085 173.537 92.1551 173.59 92.2153C173.643 92.2755 173.708 92.3244 173.78 92.3594C173.853 92.3944 173.931 92.4147 174.012 92.4191C174.49 92.4191 174.783 91.8859 175.229 91.7172C175.412 91.6458 175.636 91.6348 175.779 91.49C175.833 91.4204 175.871 91.3399 175.89 91.2542C175.91 91.1684 175.911 91.0794 175.892 90.9934C175.891 90.9714 175.887 90.9567 175.885 90.9402Z" fill="black"/>
<path opacity="0.1" d="M173.586 90.7881C173.541 90.4546 173.137 90.319 172.925 90.0551C172.794 89.8817 172.724 89.6708 172.723 89.454C172.708 89.7948 172.714 90.143 172.925 90.3996C173.136 90.6562 173.456 90.7661 173.559 91.03C173.585 90.9522 173.594 90.8698 173.586 90.7881V90.7881Z" fill="black"/>
<path opacity="0.1" d="M172.734 88.8694C172.749 88.457 172.65 87.953 172.263 87.8119C172.149 87.7698 172.023 87.7643 171.911 87.7185C171.607 87.5902 171.511 87.2127 171.31 86.9524C170.901 86.4301 170.092 86.4393 169.476 86.6885C169.201 86.8003 168.939 86.9488 168.653 87.0331C168.513 87.0826 168.364 87.1025 168.215 87.0915C168.066 87.0804 167.922 87.0387 167.79 86.9689C167.669 86.892 167.57 86.7857 167.447 86.7087C167.031 86.4595 166.488 86.7087 166.131 87.0294C165.773 87.3501 165.484 87.7789 165.031 87.9769C164.826 88.0685 164.576 88.1235 164.47 88.3214C164.423 88.4293 164.404 88.5469 164.413 88.6641C164.413 88.7356 164.413 88.807 164.413 88.8785C164.416 88.8047 164.434 88.7322 164.466 88.6659C164.573 88.468 164.822 88.413 165.027 88.3214C165.471 88.1235 165.761 87.702 166.127 87.3739C166.494 87.0459 167.027 86.804 167.443 87.0532C167.566 87.1265 167.665 87.2365 167.786 87.3116C167.918 87.3818 168.063 87.4238 168.211 87.4349C168.36 87.4459 168.509 87.4258 168.65 87.3758C168.93 87.2761 169.205 87.1617 169.473 87.0331C170.087 86.7838 170.895 86.7728 171.306 87.2951C171.508 87.5554 171.603 87.9329 171.907 88.0612C172.019 88.1088 172.145 88.1143 172.259 88.1565C172.573 88.2738 172.697 88.6256 172.725 88.9738L172.734 88.8694Z" fill="black"/>
</g>
<g opacity="0.1">
<path opacity="0.1" d="M163.706 90.7881C163.716 90.4839 163.825 90.1914 164.016 89.9544C164.207 89.7175 164.47 89.5489 164.765 89.4741C165.583 89.2744 166.44 89.3132 167.236 89.5859C168.976 90.1614 167.016 92.2322 167.016 92.2322C167.016 92.2322 165.713 93.5151 164.498 92.6189C164.139 92.3477 163.887 91.9581 163.788 91.5193C163.729 91.2803 163.701 91.0344 163.706 90.7881V90.7881Z" fill="black"/>
<path opacity="0.1" d="M173.269 90.7881C173.259 90.4837 173.149 90.191 172.958 89.954C172.767 89.717 172.503 89.5486 172.208 89.4741C171.391 89.2747 170.534 89.3135 169.739 89.5859C167.999 90.1614 169.959 92.2322 169.959 92.2322C169.959 92.2322 171.26 93.5151 172.477 92.6189C172.836 92.3477 173.088 91.9581 173.187 91.5193C173.246 91.2803 173.274 91.0344 173.269 90.7881Z" fill="black"/>
<path opacity="0.1" d="M166.908 89.4173V89.5034H170.085V89.4008L166.908 89.4173Z" fill="black"/>
<path opacity="0.1" d="M167.922 90.3354H168.023V90.0441C168.023 90.0441 168.345 89.793 168.881 90.0441V90.3043H169.064V90.1339H168.974C168.974 90.1339 169.011 89.7802 168.413 89.837C168.413 89.837 167.933 89.7912 167.944 90.0954H167.834L167.922 90.3354Z" fill="black"/>
</g>
<path d="M163.706 90.669C163.716 90.3648 163.825 90.0723 164.016 89.8353C164.207 89.5984 164.47 89.4298 164.765 89.355C165.583 89.1566 166.44 89.1954 167.236 89.4668C168.976 90.0441 167.016 92.1131 167.016 92.1131C167.016 92.1131 165.713 93.3959 164.498 92.4998C164.138 92.2292 163.886 91.8394 163.788 91.4002C163.728 91.1612 163.701 90.9153 163.706 90.669V90.669Z" fill="#15B8DB"/>
<path d="M173.269 90.669C173.259 90.3646 173.149 90.0718 172.958 89.8349C172.767 89.5979 172.503 89.4295 172.208 89.355C171.391 89.1565 170.534 89.1953 169.739 89.4668C167.999 90.0441 169.959 92.1131 169.959 92.1131C169.959 92.1131 171.26 93.3959 172.477 92.4998C172.837 92.2292 173.089 91.8394 173.187 91.4002C173.246 91.1612 173.274 90.9153 173.269 90.669Z" fill="#15B8DB"/>
<path d="M166.908 89.3018V89.3898H170.085V89.2854L166.908 89.3018Z" fill="#15B8DB"/>
<path d="M167.922 90.22H168.023V89.9286C168.023 89.9286 168.345 89.6794 168.881 89.9286V90.1907H169.064V90.0184H168.974C168.974 90.0184 169.011 89.6665 168.413 89.7215C168.413 89.7215 167.933 89.6775 167.944 89.9799H167.834L167.922 90.22Z" fill="#15B8DB"/>
<path d="M22.5734 119.786H21.5322V143.225H22.5734V119.786Z" fill="#535461"/>
<path d="M29.1177 143.153L29.0517 144.209L28.9601 145.699L28.9216 146.32L28.8299 147.812L28.7896 148.433L28.6979 149.923L27.6475 166.869C27.6027 167.599 27.2814 168.284 26.749 168.784C26.2165 169.285 25.5132 169.563 24.7823 169.563H19.3232C18.5925 169.563 17.8894 169.285 17.3573 168.784C16.8252 168.283 16.5042 167.599 16.4598 166.869L15.4039 149.923L15.3123 148.433L15.2738 147.812L15.184 146.317L15.1455 145.695L15.0538 144.205L14.9878 143.15C14.9753 142.947 15.0044 142.744 15.0734 142.553C15.1424 142.362 15.2497 142.188 15.3888 142.04C15.528 141.892 15.6959 141.774 15.8823 141.694C16.0687 141.613 16.2696 141.572 16.4727 141.572H27.6347C27.838 141.572 28.0392 141.613 28.2257 141.694C28.4123 141.775 28.5803 141.893 28.7193 142.041C28.8584 142.189 28.9655 142.365 29.034 142.556C29.1025 142.747 29.131 142.951 29.1177 143.153V143.153Z" fill="#3F3D56"/>
<path d="M29.0518 144.209L28.9601 145.699H15.1437L15.052 144.209H29.0518Z" fill="#9D9CB5"/>
<path d="M28.9216 146.32L28.8299 147.812H15.2756L15.1821 146.32H28.9216Z" fill="#9D9CB5"/>
<path d="M28.7896 148.433L28.698 149.923H15.4076L15.3141 148.433H28.7896Z" fill="#9D9CB5"/>
<path d="M13.4626 128.571C19.5267 132.957 22.0528 139.818 22.0528 139.818C22.0528 139.818 14.744 139.567 8.67076 135.182C2.59754 130.796 0.0806274 123.935 0.0806274 123.935C0.0806274 123.935 7.39673 124.186 13.4626 128.571Z" fill="#15B8DB"/>
<path d="M0.0898438 123.935C0.0898438 123.935 7.67541 128.15 10.108 131.632C12.5406 135.114 22.0528 139.82 22.0528 139.82" stroke="#535461" stroke-width="2" stroke-miterlimit="10"/>
<path d="M17.3764 119.744C20.6761 122.126 22.0528 125.865 22.0528 125.865C22.0528 125.865 18.0748 125.729 14.7733 123.341C11.4718 120.953 10.0988 117.22 10.0988 117.22C10.0988 117.22 14.0768 117.346 17.3764 119.744Z" fill="#15B8DB"/>
<path d="M10.0988 117.211C10.0988 117.211 14.2271 119.502 15.5506 121.398C16.8741 123.295 22.0528 125.855 22.0528 125.855" stroke="#535461" stroke-width="2" stroke-miterlimit="10"/>
<path d="M26.8501 125.667C23.0573 129.832 22.2562 135.275 22.2562 135.275C22.2562 135.275 27.6017 133.965 31.3926 129.799C35.1836 125.634 35.9865 120.189 35.9865 120.189C35.9865 120.189 30.641 121.499 26.8501 125.667Z" fill="#15B8DB"/>
<path d="M35.9865 120.189C35.9865 120.189 31.048 124.459 29.7923 127.402C28.5366 130.345 22.2562 135.282 22.2562 135.282" stroke="#535461" stroke-width="2" stroke-miterlimit="10"/>
<path d="M113.567 13.8392L102.325 24.9207L97.6432 20.3062L96.0714 21.8556L101.539 27.2448L102.325 27.9859L103.111 27.2448L115.139 15.3886L113.567 13.8392Z" fill="#15B8DB"/>
<path d="M123.465 5.06171C117.875 1.74834 111.497 0 104.998 0C98.5003 0 92.1218 1.74834 86.5318 5.06171C85.5425 8.1872 85 12.2704 85 15.7858C85 28.0257 91.5487 39.1961 100.9 43.8424C102.216 44.4974 103.588 45.0344 104.999 45.4477C106.411 45.0347 107.784 44.4971 109.1 43.8414C118.449 39.1958 125 28.0251 125 15.7858C125 12.2704 124.453 8.1872 123.465 5.06171ZM111.271 32.4457L109.1 34.5978L104.999 37.5194L100.9 34.5978L98.7296 32.4371C94.8688 28.2238 92.0297 22.268 92.0297 15.7858C92.0281 14.0241 92.2032 12.2666 92.5525 10.5398C96.4451 8.70484 100.695 7.75329 104.999 7.75329C109.302 7.75329 113.553 8.70484 117.445 10.5398C117.796 12.2664 117.972 14.024 117.971 15.7858C117.971 22.2724 115.136 28.2315 111.271 32.4457Z" fill="#15B8DB"/>
</g>
<defs>
<linearGradient id="paint0_linear" x1="108.394" y1="154.402" x2="108.394" y2="55.7465" gradientUnits="userSpaceOnUse">
<stop stop-color="#808080" stop-opacity="0.25"/>
<stop offset="0.54" stop-color="#808080" stop-opacity="0.12"/>
<stop offset="1" stop-color="#808080" stop-opacity="0.1"/>
</linearGradient>
<linearGradient id="paint1_linear" x1="33736.1" y1="88631" x2="33736.1" y2="30054" gradientUnits="userSpaceOnUse">
<stop stop-color="#808080" stop-opacity="0.25"/>
<stop offset="0.54" stop-color="#808080" stop-opacity="0.12"/>
<stop offset="1" stop-color="#808080" stop-opacity="0.1"/>
</linearGradient>
<clipPath id="clip0">
<rect width="210" height="186" fill="white"/>
</clipPath>
</defs>
</svg>
